<svg width="709" height="796" viewBox="0 0 709 796" fill="none" xmlns="http://www.w3.org/2000/svg">
<path d="M5.13782 522.804C6.43182 494.888 22.5875 484.858 30.5036 483.332C28.1088 527.801 37.3155 601.006 42.2182 632.05C19.6616 632.075 7.72271 609.844 7.18659 591.791C6.65046 573.738 3.52032 557.699 5.13782 522.804Z" fill="#B65681"/>
<path fill-rule="evenodd" clip-rule="evenodd" d="M30.7646 483.325L30.7226 484.143C28.4632 528.111 37.3657 600.564 42.1047 631.314L42.2182 632.05L41.475 632.05C30.3905 632.053 21.9203 626.413 16.1768 618.544C10.4429 610.687 7.4012 600.582 7.13228 591.527C6.97023 586.07 6.57312 580.781 6.14446 575.072C5.17584 562.17 4.04614 547.124 5.10345 523.153C6.33461 495.24 22.0401 485.05 29.9626 483.483L30.7646 483.325ZM29.4077 484.921C21.8521 486.882 7.54201 496.795 6.37695 523.209C5.32296 547.105 6.44345 562.016 7.41079 574.889C7.84158 580.622 8.242 585.951 8.40646 591.489C8.66854 600.314 11.6395 610.163 17.2056 617.789C22.6313 625.223 30.4984 630.521 40.7305 630.764C35.9942 599.799 27.3129 528.753 29.4077 484.921Z" fill="black"/>
<path fill-rule="evenodd" clip-rule="evenodd" d="M33.4215 483.246C30.8117 517.954 26.4992 604.637 42.2183 632.046C36.0197 632.445 18.8679 624.09 14.512 607.703C11.6189 596.819 7.06729 524.682 10.9981 511.014C15.0656 496.871 31.3074 484.169 33.4215 483.246ZM31.5487 489.109C28.7544 488.762 26.3843 509.912 26.3834 553.146C26.3821 618.291 38.9134 629.749 36.0584 619.323C29.5729 595.64 27.8879 538.905 31.5487 489.109Z" fill="#A93D70"/>
<path d="M21.5618 511.617C22.3559 512.938 17.8671 537.262 11.2984 544.849C7.01224 553.04 11.7966 513.251 12.511 511.886C13.2254 510.521 20.7677 510.297 21.5618 511.617Z" fill="#FFFEF9"/>
<path d="M383.022 41.984L370.022 187.756L380.533 190.846L392.239 41.7102L383.022 41.984Z" fill="#B65681"/>
<path fill-rule="evenodd" clip-rule="evenodd" d="M392.938 41.0426L381.114 191.687L369.334 188.223L382.432 41.3547L392.938 41.0426ZM383.614 42.609L370.712 187.284L379.953 190.002L391.541 42.3736L383.614 42.609Z" fill="black"/>
<path d="M411.478 37.3125C407.662 50.288 394.05 57.7135 381.075 53.8977C368.099 50.082 360.674 36.4699 364.489 23.4943C368.305 10.5188 381.917 3.0933 394.893 6.90908C407.868 10.7249 415.294 24.3369 411.478 37.3125Z" fill="#A33069"/>
<path fill-rule="evenodd" clip-rule="evenodd" d="M381.438 52.6612C393.731 56.2761 406.627 49.2415 410.241 36.9488C413.856 24.6562 406.822 11.7606 394.529 8.14562C382.236 4.53067 369.341 11.5653 365.726 23.858C362.111 36.1506 369.146 49.0462 381.438 52.6612ZM381.075 53.8977C394.05 57.7135 407.662 50.288 411.478 37.3125C415.294 24.3369 407.868 10.7249 394.893 6.90908C381.917 3.0933 368.305 10.5188 364.489 23.4943C360.674 36.4699 368.099 50.082 381.075 53.8977Z" fill="black"/>
<path d="M306.976 80.9482L325.187 181.452L335.962 181.132L315.85 80.6847L306.976 80.9482Z" fill="#B65681"/>
<path fill-rule="evenodd" clip-rule="evenodd" d="M306.857 76.9497L316.455 76.6647L335.963 181.132L324.544 181.471L306.857 76.9497ZM308.288 78.2041L325.539 180.144L334.506 179.878L315.479 77.9905L308.288 78.2041Z" fill="black"/>
<path d="M1.14441 562.791C2.13874 596.272 8.23615 599.463 11.3411 602.954L8.99603 523.989C6.08491 527.026 0.150087 529.31 1.14441 562.791Z" fill="#A33069"/>
<path fill-rule="evenodd" clip-rule="evenodd" d="M8.99603 523.989L11.4599 606.952L10.4229 605.611C10.1952 605.316 9.94482 605.02 9.67686 604.702C8.3762 603.161 6.66204 601.131 5.12867 596.478C3.29303 590.908 1.70222 581.574 1.20001 564.663C0.697921 547.757 1.74028 538.654 3.25892 533.374C4.02181 530.721 4.9067 529.026 5.77897 527.791C6.21295 527.177 6.63789 526.685 7.02849 526.256C7.15441 526.117 7.27379 525.989 7.38778 525.866C7.63614 525.598 7.85899 525.357 8.06851 525.105L8.99603 523.989ZM4.32895 533.777C2.87214 538.842 1.82366 547.765 2.32451 564.63C2.82523 581.49 4.41019 590.662 6.18237 596.04C7.53861 600.155 8.99543 602.042 10.2325 603.52L7.96042 527.015C7.91173 527.068 7.86319 527.121 7.81496 527.174C7.44063 527.585 7.05237 528.036 6.6594 528.592C5.87778 529.699 5.05379 531.256 4.32895 533.777Z" fill="black"/>
<path d="M705.773 590.964C704.358 613.571 695.444 627.769 692.215 631.226L697.249 550.827C700.062 554.016 707.189 568.356 705.773 590.964Z" fill="#A33069"/>
<path fill-rule="evenodd" clip-rule="evenodd" d="M696.704 549.235L691.46 632.98L692.686 631.667C696.028 628.091 704.993 613.748 706.417 591.006C707.13 579.626 705.693 570.315 703.717 563.437C701.748 556.582 699.228 552.098 697.733 550.402L696.704 549.235ZM702.478 563.793C704.415 570.534 705.834 579.698 705.131 590.925C703.88 610.893 696.746 624.212 692.983 629.275L697.782 552.64C699.137 554.75 700.962 558.515 702.478 563.793Z" fill="black"/>
<path d="M697.852 551.51C697.534 523.595 686.787 516.094 669.261 512.101C670.092 556.578 654.969 629.497 649.163 660.342C685.236 659.271 692.415 638.341 693.543 620.332C694.671 602.322 698.25 586.404 697.852 551.51Z" fill="#B65681"/>
<path fill-rule="evenodd" clip-rule="evenodd" d="M668.6 511.29L668.615 512.114C669.358 551.865 657.326 614.42 650.627 649.243C649.846 653.308 649.136 656.995 648.529 660.224L648.38 661.011L649.181 660.987C667.345 660.448 678.354 654.9 684.948 647.106C691.525 639.333 693.618 629.432 694.185 620.373C694.529 614.877 695.105 609.557 695.727 603.815C697.132 590.84 698.771 575.707 698.495 551.504C698.335 537.477 695.556 528.449 690.502 522.421C685.447 516.394 678.209 513.48 669.402 511.473L668.6 511.29ZM689.514 523.25C694.295 528.95 697.048 537.63 697.207 551.518C697.482 575.646 695.857 590.642 694.453 603.589C693.829 609.355 693.248 614.714 692.899 620.292C692.338 629.242 690.278 638.811 683.964 646.273C677.764 653.602 667.37 659.003 649.944 659.672C650.517 656.643 651.173 653.23 651.892 649.495C658.539 614.94 670.484 552.853 669.917 512.916C678.26 514.894 684.882 517.725 689.514 523.25Z" fill="black"/>
<path d="M332.371 60.1852C332.764 73.4341 322.343 84.4935 309.094 84.887C295.845 85.2805 284.786 74.859 284.392 61.61C283.999 48.361 294.42 37.3016 307.669 36.9082C320.918 36.5147 331.978 46.9362 332.371 60.1852Z" fill="#A33069"/>
<path fill-rule="evenodd" clip-rule="evenodd" d="M309.056 83.6244C321.608 83.2517 331.481 72.7743 331.108 60.2227C330.736 47.671 320.258 37.798 307.707 38.1708C295.155 38.5435 285.282 49.0209 285.655 61.5725C286.027 74.1242 296.505 83.9972 309.056 83.6244ZM309.094 84.887C322.343 84.4935 332.764 73.4341 332.371 60.1852C331.978 46.9362 320.918 36.5147 307.669 36.9082C294.42 37.3016 283.999 48.361 284.392 61.61C284.786 74.859 295.845 85.2805 309.094 84.887Z" fill="black"/>
<path fill-rule="evenodd" clip-rule="evenodd" d="M351.169 180.68C48.9615 189.655 22.4444 446.238 32.9487 562.549C43.0468 674.362 68.8832 708.443 114.675 730.227L115.252 730.502C164.893 754.119 229.581 784.894 337.528 785.462C466.535 786.141 528.012 771.429 574.969 745.55C656.825 700.436 664.463 628.202 669.953 512.706C678.848 325.584 530.417 179.22 351.169 180.68ZM341.861 757.627C271.595 755.255 128.644 731.485 119.445 630.213C110.923 536.393 191.232 398.056 342.658 393.559C468.953 389.808 560.968 469.549 583.401 595.171C607.896 732.33 453.547 761.398 341.861 757.627Z" fill="#B65681"/>
<path fill-rule="evenodd" clip-rule="evenodd" d="M75.9118 331.992C32.9897 411.475 28.9909 504.357 34.2265 562.324C39.2627 618.084 48.2184 654.377 61.576 679.43C74.9148 704.447 92.6669 718.298 115.424 729.123L115.999 729.397C165.515 752.952 229.969 783.612 337.556 784.177C466.262 784.854 527.484 770.175 574.204 744.429C614.905 722.001 637.13 692.856 649.882 654.95C662.651 616.995 665.926 570.253 668.667 512.613C677.527 326.268 529.704 180.515 351.179 181.966C200.605 186.439 118.804 252.566 75.9118 331.992ZM74.7793 331.382C117.898 251.536 200.127 185.166 351.148 180.681L351.162 180.68C530.41 179.22 678.848 325.571 669.952 512.673C667.213 570.282 663.937 617.206 651.102 655.359C638.25 693.56 615.818 722.965 574.826 745.555C527.821 771.457 466.337 786.14 337.549 785.463C229.675 784.895 165.013 754.136 115.446 730.558L114.871 730.284C91.9278 719.37 73.9379 705.349 60.4403 680.034C46.9614 654.754 37.9863 618.256 32.945 562.44C27.6978 504.343 31.69 411.174 74.7793 331.382ZM170.93 477.997C208.898 431.094 266.884 395.357 342.654 393.107C405.82 391.231 460.446 410.233 502.088 445.439C543.728 480.642 572.348 532.014 583.565 594.82C589.699 629.162 584.643 656.797 571.81 678.855C558.982 700.905 538.42 717.32 513.649 729.303C464.124 753.26 397.626 759.569 341.855 757.687C306.752 756.502 253.469 749.974 207.791 731.076C162.123 712.181 123.889 680.84 119.267 629.96C114.997 582.961 132.976 524.883 170.93 477.997ZM171.931 478.805C134.157 525.468 116.313 583.222 120.548 629.843C125.106 680.02 162.794 711.068 208.284 729.888C253.764 748.705 306.876 755.22 341.898 756.402C397.588 758.282 463.84 751.969 513.088 728.146C537.703 716.239 558.034 699.975 570.697 678.21C583.354 656.453 588.387 629.136 582.298 595.045C571.127 532.496 542.639 481.405 501.257 446.42C459.877 411.436 405.567 392.525 342.692 394.392C267.34 396.63 209.691 432.158 171.931 478.805Z" fill="black"/>
<path d="M117.499 631.12C126.718 732.12 270.309 755.795 340.891 758.146C453.079 761.882 608.13 732.859 583.555 596.074C561.047 470.793 468.635 391.286 341.769 395.054C189.66 399.571 108.959 537.555 117.499 631.12Z" fill="#FBF3F6"/>
<path fill-rule="evenodd" clip-rule="evenodd" d="M170.301 477.325C132.389 524.305 114.483 582.454 118.739 629.395C123.319 679.916 161.152 711.18 206.814 730.134C252.468 749.085 305.781 755.649 340.935 756.843C396.834 758.74 463.335 752.39 512.767 728.408C537.474 716.422 557.88 700.049 570.589 678.134C583.292 656.23 588.341 628.726 582.226 594.401C571.007 531.421 542.406 479.977 500.865 444.748C459.326 409.521 404.81 390.474 341.698 392.348C266.063 394.595 208.2 430.362 170.301 477.325ZM169.297 476.511C207.403 429.291 265.604 393.314 341.659 391.055C405.064 389.172 459.897 408.31 501.699 443.76C543.499 479.209 572.232 530.936 583.497 594.174C589.657 628.752 584.585 656.576 571.705 678.785C558.831 700.984 538.194 717.51 513.33 729.573C463.621 753.69 396.873 760.037 340.891 758.136C305.655 756.94 252.172 750.363 206.32 731.33C160.478 712.301 122.097 680.742 117.453 629.512C113.163 582.19 131.204 523.715 169.297 476.511Z" fill="black"/>
<path fill-rule="evenodd" clip-rule="evenodd" d="M449.757 474.755C449.963 472.365 452.199 470.576 454.752 470.759C460.303 471.158 469.114 472.746 478.03 476.212C486.923 479.669 496.356 485.164 502.572 493.631C504.019 495.603 503.48 498.306 501.368 499.669C499.255 501.031 496.369 500.537 494.921 498.565C490.085 491.978 482.427 487.333 474.444 484.23C466.486 481.137 458.639 479.747 454.006 479.414C451.453 479.231 449.551 477.144 449.757 474.755Z" fill="#020203"/>
<path fill-rule="evenodd" clip-rule="evenodd" d="M233.877 472.32C242.013 469.753 250.672 468.359 256.429 468.752C258.953 468.924 261.143 467.056 261.321 464.579C261.499 462.102 259.598 459.955 257.075 459.782C249.713 459.28 239.809 461.007 231.083 463.76C226.669 465.153 222.397 466.857 218.752 468.782C215.194 470.661 211.863 472.943 209.711 475.635C208.149 477.59 208.496 480.416 210.485 481.947C212.475 483.478 215.354 483.134 216.916 481.18C217.92 479.924 219.957 478.351 223.086 476.699C226.127 475.092 229.86 473.587 233.877 472.32Z" fill="#020203"/>
<path d="M325.939 702.497C320.198 696.146 314.499 692.595 312.367 691.613C310.383 688.537 319.263 690.154 324.436 694.39C329.609 698.626 334.521 694.09 352.171 693.566C369.82 693.042 368.115 699.363 381.221 694.585C391.707 690.762 391.856 691.552 390.62 692.424C387.951 694.594 381.752 699.711 378.312 702.823C374.011 706.713 367.931 714.418 354.064 714.829C340.197 715.241 333.114 710.435 325.939 702.497Z" fill="#212121"/>
<path d="M317.696 588.76C315.534 625.556 286.011 655.824 249.285 656.915C212.558 658.005 183.209 629.63 182.115 592.786C181.021 555.942 206.432 507.721 255.971 512.153C300.029 516.095 319.858 551.964 317.696 588.76Z" fill="#3B3B3B"/>
<path d="M235.757 521.256C209.722 525.453 197.285 552.764 194.321 565.895L218.843 565.778C225.401 549.443 233.919 537.003 237.358 532.825L235.757 521.256Z" fill="#D9D9D9"/>
<path d="M255.087 599.641C220.989 598.235 196.921 589.073 189.15 584.668C185.283 586.798 187.492 594.997 186.578 608.327C195.605 625.594 204.918 652.527 253.887 647.445C293.062 643.379 309.835 612.728 313.324 597.911C308.119 599.073 289.185 601.047 255.087 599.641Z" fill="#676767"/>
<path d="M191.78 614.603C189.779 583.039 192.475 563.389 194.072 557.51C189.578 562.827 187.72 567.419 186.171 582.369C184.931 594.329 189.394 608.842 191.78 614.603Z" fill="#303635"/>
<path d="M396.754 595.828C401.113 632.201 427.76 660.618 464.762 659.519C501.763 658.42 525.331 628.656 524.243 592.042C523.062 552.282 490.683 514.232 449.56 520.322C405.484 526.848 392.395 559.455 396.754 595.828Z" fill="#3B3B3B"/>
<g filter="url(#filter0_d_3161_21)">
<path fill-rule="evenodd" clip-rule="evenodd" d="M464.685 656.944C429.329 657.994 403.577 630.886 399.339 595.523C397.2 577.68 399.385 561.071 407.223 548.212C415 535.451 428.554 526.036 449.944 522.869C469.536 519.968 487.104 527.549 500.007 540.778C512.937 554.035 521.07 572.876 521.641 592.119C522.695 627.581 499.992 655.896 464.685 656.944ZM464.762 659.519C427.76 660.618 401.113 632.201 396.754 595.828C392.395 559.455 405.484 526.848 449.56 520.322C490.683 514.232 523.062 552.282 524.243 592.042C525.331 628.656 501.763 658.42 464.762 659.519Z" fill="black"/>
</g>
<path d="M462.07 604.428C429.953 609.725 408.194 601.504 401.328 596.731C401.63 606.901 417.217 664.8 468.739 659.198C509.956 654.716 521.558 612.388 519.058 591.877C515.543 593.792 494.186 599.131 462.07 604.428Z" fill="#676767"/>
<path d="M410.719 549.099C406.599 554.375 404.929 566.878 404.61 572.47C407.618 575.601 406.923 568.536 408.636 560.756C410.348 552.975 415.869 542.505 410.719 549.099Z" fill="#D9D9D9"/>
<path d="M671.154 534.871C670.373 595.064 659.298 633.091 652.848 653.799L674.667 653.151C695.609 644.579 695.487 553.975 692.705 546.797C683.15 536.499 674.357 534.556 671.154 534.871Z" fill="#A93D70"/>
<path d="M671.331 537.841C678.779 537.62 688.821 544.099 692.912 547.366C694.941 543.957 690.778 535.27 689.773 531.314C686.354 523.761 676.621 521.738 670.852 521.71L671.331 537.841Z" fill="white"/>
<path fill-rule="evenodd" clip-rule="evenodd" d="M340.593 767.108C267.3 764.63 118.192 739.814 108.594 634.096C99.7031 536.159 183.468 391.752 341.415 387.061C473.15 383.149 569.129 466.392 592.532 597.527C618.084 740.706 457.089 771.047 340.593 767.108ZM341.052 758.134C271.24 755.773 129.213 732.13 120.071 631.412C111.601 538.107 191.387 400.531 341.833 396.063C467.311 392.336 558.732 471.642 581.024 596.576C605.364 732.983 452.015 761.887 341.052 758.134Z" fill="#ECCAD6"/>
<path fill-rule="evenodd" clip-rule="evenodd" d="M162.922 475.54C202.832 426.636 263.774 389.367 343.397 387.002C409.776 385.031 467.174 404.827 510.924 441.516C554.671 478.203 584.735 531.751 596.507 597.223C602.944 633.022 597.624 661.828 584.135 684.823C570.652 707.808 549.043 724.925 523.01 737.422C470.961 762.408 401.078 769.004 342.466 767.055C305.576 765.828 249.584 759.036 201.587 739.346C153.6 719.659 113.437 687 108.593 633.968C104.119 584.976 123.025 524.427 162.922 475.54ZM163.926 476.347C124.21 525.012 105.44 585.238 109.88 633.852C114.66 686.18 154.273 718.547 202.081 738.16C249.88 757.769 305.701 764.549 342.51 765.773C401.04 767.719 470.676 761.12 522.448 736.267C548.324 723.845 569.701 706.88 583.018 684.177C596.33 661.484 601.626 632.996 595.235 597.449C583.509 532.232 553.578 478.966 510.09 442.496C466.603 406.028 409.523 386.322 343.435 388.284C264.232 390.637 203.627 427.698 163.926 476.347ZM171.888 480.334C209.907 433.737 267.963 398.226 343.814 395.973C407.048 394.096 461.728 412.958 503.406 447.917C545.082 482.875 573.721 533.896 584.936 596.278C591.068 630.39 586.001 657.841 573.148 679.755C560.302 701.66 539.714 717.97 514.913 729.878C465.33 753.686 398.76 759.968 342.93 758.111C307.79 756.943 254.453 750.471 208.731 731.71C163.018 712.952 124.75 681.831 120.134 631.29C115.871 584.607 133.882 526.914 171.888 480.334ZM172.892 481.141C135.068 527.499 117.192 584.868 121.421 631.174C125.972 681.01 163.691 711.84 209.225 730.524C254.749 749.204 307.915 755.663 342.974 756.829C398.722 758.683 465.045 752.398 514.351 728.723C538.995 716.891 559.351 700.732 572.032 679.11C584.707 657.497 589.751 630.364 583.664 596.504C572.495 534.378 543.989 483.638 502.572 448.897C461.157 414.159 406.795 395.386 343.852 397.256C268.421 399.496 210.703 434.799 172.892 481.141Z" fill="black"/>
<path d="M117.996 389.332C127.469 342.519 165.335 306.752 183.083 294.72C189.79 302.83 198.151 301.303 208.659 306.744C217.066 311.096 227.438 329.409 231.574 338.022C218.059 353.252 192.115 410.141 180.833 436.682L132.337 480.308C123.609 469.488 108.522 436.145 117.996 389.332Z" fill="#FBF3F6"/>
<path d="M464.736 251.847C456.073 239.081 463.899 238.197 468.895 239.351C472.063 237.087 486.271 236.1 517.755 250.272C557.11 267.987 593.358 311.841 608.529 343.297C620.666 368.462 607.656 386.516 599.633 392.398C587.396 381.301 558.126 367.584 545.021 362.113L498.312 314.663C491.758 290.114 475.564 267.804 464.736 251.847Z" fill="#FBF3F6"/>
<defs>
<filter id="filter0_d_3161_21" x="391.962" y="519.677" width="136.317" height="147.873" filterUnits="userSpaceOnUse" color-interpolation-filters="sRGB">
<feFlood flood-opacity="0" result="BackgroundImageFix"/>
<feColorMatrix in="SourceAlpha" type="matrix" values="0 0 0 0 0 0 0 0 0 0 0 0 0 0 0 0 0 0 127 0" result="hardAlpha"/>
<feOffset dy="4"/>
<feGaussianBlur stdDeviation="2"/>
<feComposite in2="hardAlpha" operator="out"/>
<feColorMatrix type="matrix" values="0 0 0 0 0 0 0 0 0 0 0 0 0 0 0 0 0 0 0.25 0"/>
<feBlend mode="normal" in2="BackgroundImageFix" result="effect1_dropShadow_3161_21"/>
<feBlend mode="normal" in="SourceGraphic" in2="effect1_dropShadow_3161_21" result="shape"/>
</filter>
</defs>
</svg>
