<svg width="766" height="795" viewBox="0 0 766 795" fill="none" xmlns="http://www.w3.org/2000/svg">
<path d="M491.591 38.9789C462.981 61.1667 445.696 134.112 440.63 167.811C475.498 204.791 550.955 273.919 573.843 254.594C596.73 235.269 612.584 193.459 617.651 174.969C639.108 188.687 675.764 218.808 703.479 213.44C724.709 209.328 711.525 177.653 692.75 105.184C673.975 32.7162 659.671 9.45479 623.909 2.29743C588.147 -4.85993 527.352 11.2441 491.591 38.9789Z" fill="#F5F4EF"/>
<path d="M557.592 6.97414C581.779 0.362849 606.02 -1.89562 624.027 1.70833C642.05 5.3154 654.712 13.0036 665.201 28.9185C675.655 44.7794 683.945 68.8014 693.332 105.033C702.707 141.221 710.714 167.32 713.708 184.844C715.205 193.601 715.474 200.333 713.972 205.159C713.216 207.588 712.008 209.55 710.274 211.036C708.543 212.52 706.323 213.5 703.593 214.029C689.507 216.757 673.246 210.465 657.925 201.885C642.926 193.486 628.607 182.76 618.006 175.915C615.389 185.247 610.235 199.941 602.968 214.733C595.498 229.938 585.768 245.311 574.229 255.054C568.226 260.122 558.91 259.294 548.052 254.945C537.143 250.575 524.426 242.554 511.37 232.799C485.249 213.282 457.641 186.727 440.194 168.223L439.993 168.011L440.037 167.722C442.574 150.845 448.169 124.147 456.713 98.8853C460.985 86.254 466 73.9676 471.744 63.442C477.485 52.924 483.977 44.1238 491.223 38.5045C509.181 24.5773 533.397 13.5875 557.592 6.97414ZM623.791 2.88633C606.037 -0.667061 581.999 1.54831 557.908 8.13337C533.825 14.7163 509.762 25.6461 491.958 39.4537C484.899 44.9282 478.502 53.5658 472.797 64.0181C467.097 74.4631 462.109 86.6805 457.85 99.2713C449.382 124.31 443.816 150.775 441.267 167.612C458.698 186.078 486.142 212.449 512.089 231.835C525.116 241.569 537.734 249.518 548.499 253.83C559.316 258.163 568.015 258.729 573.455 254.135C584.804 244.553 594.445 229.357 601.891 214.203C609.33 199.06 614.548 184.021 617.072 174.81L617.288 174.024L617.974 174.463C628.766 181.363 643.212 192.27 658.511 200.838C673.811 209.406 689.735 215.49 703.365 212.85C705.942 212.351 707.955 211.441 709.493 210.123C711.028 208.807 712.126 207.053 712.827 204.802C714.237 200.268 714.018 193.781 712.525 185.047C709.542 167.589 701.569 141.615 692.17 105.335C682.782 69.0993 674.531 45.2565 664.199 29.5803C653.902 13.9582 641.531 6.43666 623.791 2.88633Z" fill="black"/>
<path d="M546.886 212.059C546.886 212.059 574.5 144.777 576.901 138.77C585.906 148.982 612.92 172.411 617.122 175.414C615.922 179.62 613.28 188.751 605.116 208.455C596.952 228.159 587.707 240.294 584.105 243.898L546.886 212.059Z" fill="#C4C3BF"/>
<path d="M515.729 68.9342C482.113 63.2083 461.193 131.561 454.934 166.453L544.339 218.344L576.524 139.275C562.22 127.644 537.186 98.4582 515.729 68.9342Z" fill="#F1BEC5"/>
<path d="M516.215 67.3479C548.361 111.669 597.791 158.215 618.924 175.491L618.165 176.421C597.021 159.136 547.66 112.664 515.431 68.3112C505.938 68.5834 497.597 73.4043 490.324 81.1765C482.968 89.0374 476.742 99.8773 471.579 111.934C461.252 136.044 455.228 164.882 452.848 184.082L451.657 183.934C454.045 164.663 460.09 135.706 470.475 111.46C475.667 99.3376 481.96 88.358 489.448 80.3552C496.941 72.3486 505.671 67.2832 515.719 67.1004L516.031 67.0945L516.215 67.3479Z" fill="black"/>
<path d="M515.729 67.7011C476.392 68.4168 457.021 145.537 452.252 184.008L449.035 186.828C453.992 146.69 477.772 62.0216 518.671 61.2749C552.134 107.574 601.727 160.371 623.726 178.418L618.544 175.956C597.385 158.659 547.915 112.077 515.729 67.7011Z" fill="#D9D9D9"/>
<path d="M577.974 137.714L532.378 248.653L531.823 248.424L531.267 248.196L576.864 137.256L577.974 137.714Z" fill="black"/>
<path d="M488.055 44.4544C482.292 49.2602 476.049 60.4739 473.647 65.48C545.085 -15.0183 566.696 106.931 686.759 94.916C662.746 18.022 644.136 -1.20145 588.307 3.60442C532.478 8.4103 495.259 38.447 488.055 44.4544Z" fill="#FCFCFB"/>
<path d="M703.567 212.059C710.158 210.783 712.143 205.828 712.963 198.843C711.232 206.156 696.004 215.465 648.939 194.194C666.532 205.051 687.245 215.221 703.567 212.059Z" fill="#D9D9D9"/>
<path d="M515.669 67.883C509.906 67.4024 477.249 67.883 455.638 164C482.052 69.6851 506.545 74.0105 513.268 72.0881C514.229 80.7387 564.295 140.572 616.522 177.817L617.122 175.414C588.307 148.982 540.282 102.057 515.669 67.883Z" fill="black" fill-opacity="0.5"/>
<path d="M259.538 29.4547C281.636 28.077 318.236 102.935 333.774 140.537C304.137 175.268 237.439 239.908 207.745 220.619C178.051 201.33 170.052 182.731 169.764 175.842C143.868 206.267 83.2777 242.146 78.266 230.091C63.5894 194.787 114.519 107.815 133.51 81.9818C152.5 56.1488 231.915 31.1769 259.538 29.4547Z" fill="#F5F4EF"/>
<path d="M259.463 28.2556C262.573 28.0618 265.815 29.2131 269.076 31.2745C272.345 33.3409 275.731 36.3814 279.161 40.1307C286.023 47.6305 293.204 58.1139 300.147 69.7626C314.041 93.0715 327.101 121.244 334.883 140.078L335.164 140.757L334.686 141.317C319.833 158.723 295.686 183.635 271.501 201.796C259.415 210.872 247.256 218.31 236.2 222.259C225.17 226.198 214.98 226.75 207.092 221.626C192.139 211.913 182.602 202.344 176.756 194.286C172.146 187.932 169.8 182.471 168.945 178.601C155.75 193.385 135.055 209.11 116.795 219.931C107.255 225.584 98.3123 229.942 91.3965 232.125C87.9521 233.213 84.9119 233.793 82.5126 233.669C80.1095 233.545 78.0402 232.675 77.1579 230.553C73.3431 221.377 73.8407 209.017 76.8636 195.426C79.8958 181.794 85.5146 166.722 92.168 151.99C105.474 122.529 122.998 94.2546 132.543 81.2704C137.443 74.6047 146.146 68.0986 156.736 62.0739C167.354 56.0329 179.985 50.4105 192.864 45.5525C218.587 35.8489 245.477 29.1277 259.463 28.2556ZM259.612 30.6539C245.976 31.5042 219.347 38.1297 193.71 47.8006C180.908 52.6299 168.399 58.2019 157.922 64.1624C147.417 70.1392 139.072 76.4429 134.477 82.6936C125.032 95.5426 107.594 123.671 94.3571 152.98C87.7391 167.633 82.1901 182.538 79.2074 195.948C76.2153 209.401 75.8515 221.154 79.375 229.629C79.7458 230.521 80.6663 231.168 82.6369 231.27C84.6115 231.372 87.3295 230.89 90.6743 229.834C97.3379 227.73 106.101 223.475 115.572 217.862C134.514 206.637 156.017 190.14 168.85 175.062L170.836 172.73L170.964 175.791C171.094 178.909 173.026 185.055 178.699 192.874C184.348 200.661 193.657 210.035 208.399 219.611C215.358 224.131 224.64 223.836 235.393 219.995C246.121 216.164 258.056 208.888 270.06 199.874C293.799 182.048 317.559 157.612 332.379 140.316C324.593 121.556 311.734 93.892 298.085 70.9946C291.174 59.4009 284.09 49.077 277.389 41.7534C274.039 38.0911 270.817 35.2162 267.794 33.3055C264.763 31.3901 262.027 30.5033 259.612 30.6539Z" fill="black"/>
<path d="M186.089 163.088L170.678 174.654C168.11 186.991 184.162 202.926 192.51 209.352C193.58 209.352 198.931 207.167 211.773 198.429C203.04 193.288 191.012 172.726 186.089 163.088Z" fill="black" fill-opacity="0.2"/>
<path d="M277.91 170.799L233.605 93.6917C234.675 91.3357 237.843 84.9529 241.952 78.2703C276.883 105.001 293.749 140.384 297.816 154.735L277.91 170.799Z" fill="black" fill-opacity="0.1"/>
<path d="M226.127 109.543C220.617 129.054 196.283 153.094 184.805 162.675C186.871 166.856 205.898 192.332 210.489 198.429C244.637 198.719 290.184 188.671 279.501 164.417C262.5 125.82 245.163 102.045 233.875 92.1231C233.588 89.8004 231.636 90.0327 226.127 109.543Z" fill="#E7BAC3"/>
<path d="M243.278 77.2824C256.191 86.2422 285.044 113.74 297.673 152.434L295.39 153.18C282.965 115.111 254.517 88.0049 241.911 79.2583L243.278 77.2824Z" fill="black"/>
<path d="M187.161 162.546C190.827 169.811 202.12 188.479 217.773 204.661L216.047 206.333C200.195 189.945 188.771 171.067 185.017 163.63L187.161 162.546Z" fill="black"/>
<path d="M224.446 112.742C217.564 134.067 184.877 162.902 169.394 174.654C180.577 172.074 217.564 135.959 227.026 112.742C236.488 89.5245 236.488 87.8048 260.573 57.7085C246.811 62.8679 233.048 86.085 224.446 112.742Z" fill="black"/>
<path d="M112.247 129.675C125.517 113.611 168.367 75.4429 233.605 51.2828C169.908 42.544 127.657 85.3385 112.247 129.675Z" fill="#FFFFFD"/>
<path d="M168.752 172.726C130.226 212.565 93.6253 226.701 85.92 228.629C79.863 230.144 78.683 225.58 78.8469 222.982C87.1841 230.186 113.531 213.207 153.984 181.08C186.346 155.377 212.843 125.391 222.047 113.611C219.907 120.465 206.251 141.884 168.752 172.726Z" fill="#D9D9D9"/>
<path d="M170.036 174.654C179.882 168.228 203.041 150.237 216.91 129.675C234.247 103.973 229.007 104.586 234.247 93.0492C240.436 79.425 257.956 60.4291 259.792 57.9203L259.931 57.7085C259.908 57.755 259.861 57.826 259.792 57.9203L245.163 80.198C241.952 83.1966 238.485 92.1496 237.458 96.2619C236.173 101.402 233.605 114.896 219.479 132.245C205.352 149.594 194.436 162.445 170.036 174.654Z" fill="black" fill-opacity="0.4"/>
<path d="M4.45595 509.352C5.86078 479.022 23.4002 468.123 31.9942 466.466C29.3944 514.781 39.3896 594.32 44.7122 628.05C20.2237 628.077 7.26224 603.922 6.68019 584.308C6.09815 564.693 2.69991 547.266 4.45595 509.352Z" fill="#F5F4EF"/>
<path fill-rule="evenodd" clip-rule="evenodd" d="M32.2777 466.457L32.232 467.346C29.7792 515.118 39.4441 593.84 44.589 627.25L44.7122 628.05L43.9054 628.05C31.8715 628.053 22.6758 621.925 16.4404 613.375C10.2154 604.839 6.91319 593.859 6.62124 584.021C6.44531 578.092 6.01419 572.345 5.54881 566.142C4.49723 552.125 3.27077 535.776 4.41864 509.731C5.75525 479.404 22.8059 468.332 31.4069 466.63L32.2777 466.457ZM30.8045 468.191C22.6018 470.323 7.06606 481.094 5.80122 509.793C4.65695 535.756 5.87341 551.957 6.9236 565.944C7.39129 572.173 7.826 577.963 8.00455 583.98C8.28908 593.568 11.5145 604.269 17.5573 612.555C23.4477 620.633 31.9886 626.388 43.0971 626.652C37.9552 593.008 28.5303 515.816 30.8045 468.191Z" fill="black"/>
<path fill-rule="evenodd" clip-rule="evenodd" d="M35.1621 466.372C32.3287 504.082 27.6468 598.269 44.7122 628.05C37.9827 628.484 19.362 619.401 14.6331 601.596C11.4922 589.771 6.55068 511.392 10.8181 496.542C15.234 481.175 32.8669 467.375 35.1621 466.372ZM33.1289 472.742C30.0953 472.365 27.5222 495.344 27.5212 542.319C27.5197 613.101 41.1244 625.55 38.0248 614.222C30.9838 588.49 29.1546 526.846 33.1289 472.742Z" fill="#D6D5CF"/>
<path d="M22.2866 497.198C23.1488 498.633 18.2755 525.061 11.1441 533.304C6.49092 542.204 11.6851 498.974 12.4607 497.49C13.2362 496.007 21.4245 495.764 22.2866 497.198Z" fill="#FFFEF9"/>
<path d="M0.120515 552.799C1.2 589.177 7.81965 592.644 11.1906 596.437L8.64462 510.639C5.48416 513.939 -0.958972 516.421 0.120515 552.799Z" fill="#A2A2A2"/>
<path fill-rule="evenodd" clip-rule="evenodd" d="M8.64462 510.639L11.3195 600.781L10.1937 599.323C9.94652 599.003 9.67467 598.681 9.38376 598.336C7.9717 596.662 6.11073 594.455 4.44602 589.4C2.45316 583.348 0.726098 573.206 0.180872 554.833C-0.364216 536.464 0.767421 526.573 2.41613 520.836C3.24436 517.954 4.20504 516.112 5.15202 514.771C5.62316 514.104 6.0845 513.569 6.50856 513.103C6.64527 512.952 6.77486 512.812 6.89862 512.679C7.16825 512.388 7.41019 512.126 7.63766 511.852L8.64462 510.639ZM3.5778 521.274C1.99622 526.778 0.857941 536.473 1.40169 554.796C1.9453 573.116 3.66601 583.082 5.58996 588.924C7.06237 593.396 8.64396 595.446 9.98695 597.052L7.52031 513.928C7.46745 513.985 7.41475 514.043 7.36239 514.1C6.95599 514.547 6.53449 515.037 6.10786 515.641C5.25929 516.843 4.36473 518.536 3.5778 521.274Z" fill="black"/>
<path d="M765.1 583.409C763.563 607.972 753.886 623.398 750.38 627.154L755.845 539.8C758.9 543.265 766.637 558.845 765.1 583.409Z" fill="#A2A2A2"/>
<path fill-rule="evenodd" clip-rule="evenodd" d="M755.253 538.07L749.561 629.06L750.892 627.634C754.52 623.749 764.253 608.164 765.799 583.455C766.572 571.09 765.013 560.974 762.868 553.501C760.729 546.053 757.995 541.18 756.371 539.338L755.253 538.07ZM761.523 553.888C763.625 561.212 765.166 571.168 764.402 583.367C763.045 605.062 755.299 619.534 751.215 625.035L756.424 541.77C757.895 544.062 759.877 548.153 761.523 553.888Z" fill="black"/>
<path d="M756.5 540.542C756.155 510.212 744.487 502.062 725.46 497.723C726.362 546.049 709.944 625.276 703.641 658.79C742.804 657.626 750.598 634.885 751.822 615.318C753.046 595.75 756.932 578.455 756.5 540.542Z" fill="#F5F4EF"/>
<path fill-rule="evenodd" clip-rule="evenodd" d="M724.742 496.843L724.759 497.737C725.566 540.928 712.503 608.894 705.231 646.73C704.382 651.147 703.612 655.153 702.952 658.661L702.791 659.516L703.661 659.491C723.38 658.905 735.332 652.877 742.491 644.408C749.631 635.963 751.903 625.205 752.519 615.362C752.893 609.391 753.518 603.611 754.193 597.372C755.719 583.275 757.498 566.832 757.199 540.535C757.025 525.295 754.008 515.485 748.521 508.937C743.033 502.388 735.175 499.221 725.614 497.041L724.742 496.843ZM747.448 509.836C752.638 516.03 755.627 525.461 755.799 540.551C756.098 566.766 754.334 583.06 752.811 597.127C752.132 603.391 751.502 609.214 751.123 615.275C750.514 624.999 748.277 635.396 741.423 643.504C734.691 651.467 723.407 657.335 704.489 658.061C705.111 654.77 705.823 651.062 706.603 647.004C713.82 609.46 726.788 542.001 726.173 498.609C735.23 500.758 742.419 503.834 747.448 509.836Z" fill="black"/>
<path fill-rule="evenodd" clip-rule="evenodd" d="M380.123 137.629C52.0325 147.381 23.2443 426.162 34.6483 552.536C45.6113 674.023 73.6605 711.052 123.374 734.721L124 735.019C177.894 760.679 248.122 794.117 365.315 794.734C505.371 795.472 572.113 779.487 623.091 751.369C711.959 702.353 720.251 623.868 726.211 498.381C735.868 295.07 574.724 136.043 380.123 137.629ZM370.019 764.492C293.734 761.914 138.539 736.088 128.552 626.053C119.301 524.117 206.488 373.811 370.884 368.925C507.996 364.85 607.891 451.49 632.247 587.98C658.839 737.005 491.27 768.588 370.019 764.492Z" fill="#F5F4EF"/>
<path fill-rule="evenodd" clip-rule="evenodd" d="M81.2911 302.032C34.6927 388.391 30.3515 489.309 36.0355 552.292C41.503 612.875 51.2258 652.309 65.7274 679.529C80.2087 706.71 99.4813 721.76 124.187 733.522L124.812 733.819C178.569 759.411 248.543 792.724 365.344 793.339C505.074 794.074 571.54 778.125 622.262 750.152C666.448 725.783 690.577 694.117 704.421 652.931C718.284 611.692 721.839 560.907 724.815 498.279C734.434 295.813 573.95 137.45 380.135 139.026C216.664 143.887 127.857 215.734 81.2911 302.032ZM80.0617 301.369C126.873 214.615 216.145 142.503 380.101 137.63L380.116 137.629C574.716 136.042 735.868 295.056 726.21 498.345C723.236 560.938 719.68 611.922 705.745 653.376C691.793 694.882 667.44 726.831 622.937 751.375C571.906 779.518 505.156 795.471 365.337 794.735C248.223 794.119 178.024 760.699 124.211 735.08L123.587 734.782C98.6788 722.925 79.1482 707.69 64.4945 680.185C49.8611 652.718 40.1173 613.062 34.6443 552.417C28.9476 489.294 33.2817 388.065 80.0617 301.369ZM184.448 460.669C225.667 409.708 288.619 370.879 370.879 368.434C439.455 366.396 498.76 387.043 543.969 425.294C589.175 463.542 620.246 519.36 632.424 587.598C639.083 624.912 633.594 654.937 619.662 678.905C605.736 702.861 583.413 720.697 556.52 733.717C502.753 759.746 430.56 766.602 370.012 764.556C331.902 763.269 274.056 756.177 224.466 735.643C174.886 715.113 133.377 681.061 128.359 625.779C123.724 574.714 143.243 511.611 184.448 460.669ZM185.534 461.547C144.525 512.247 125.153 574.998 129.751 625.652C134.699 680.17 175.615 713.904 225.001 734.353C274.376 754.798 332.037 761.876 370.059 763.161C430.518 765.203 502.444 758.344 555.911 732.46C582.634 719.523 604.707 701.852 618.454 678.203C632.196 654.564 637.659 624.884 631.049 587.844C618.921 519.882 587.993 464.372 543.066 426.36C498.142 388.349 439.181 367.802 370.92 369.83C289.115 372.262 226.529 410.864 185.534 461.547Z" fill="black"/>
<path d="M126.441 627.04C136.449 736.777 292.338 762.501 368.966 765.055C490.763 769.115 659.094 737.581 632.414 588.961C607.978 452.842 507.651 366.456 369.919 370.549C204.782 375.458 117.169 525.379 126.441 627.04Z" fill="#FFE59F"/>
<path fill-rule="evenodd" clip-rule="evenodd" d="M183.765 459.939C142.605 510.983 123.166 574.163 127.786 625.165C132.758 680.058 173.832 714.027 223.405 734.621C272.969 755.21 330.848 762.343 369.013 763.64C429.7 765.701 501.897 758.802 555.563 732.745C582.385 719.722 604.539 701.932 618.336 678.122C632.127 654.322 637.609 624.439 630.97 587.144C618.79 518.715 587.741 462.821 542.641 424.543C497.544 386.268 438.359 365.574 369.841 367.611C287.728 370.051 224.909 408.913 183.765 459.939ZM182.674 459.055C224.044 407.749 287.23 368.659 369.8 366.205C438.634 364.159 498.164 384.953 543.547 423.47C588.927 461.986 620.121 518.189 632.351 586.897C639.038 624.467 633.531 654.698 619.549 678.828C605.572 702.948 583.167 720.904 556.174 734.011C502.207 760.214 429.742 767.11 368.965 765.045C330.712 763.745 272.647 756.599 222.869 735.92C173.1 715.245 131.432 680.955 126.39 625.292C121.733 573.877 141.319 510.343 182.674 459.055Z" fill="black"/>
<path fill-rule="evenodd" clip-rule="evenodd" d="M487.156 457.146C487.379 454.549 489.807 452.605 492.579 452.805C498.605 453.238 508.171 454.964 517.851 458.729C527.505 462.485 537.746 468.455 544.494 477.655C546.066 479.797 545.481 482.735 543.187 484.215C540.894 485.696 537.76 485.159 536.189 483.017C530.939 475.86 522.624 470.813 513.958 467.441C505.318 464.08 496.799 462.57 491.769 462.208C488.998 462.009 486.932 459.743 487.156 457.146Z" fill="#020203"/>
<path fill-rule="evenodd" clip-rule="evenodd" d="M252.787 454.501C261.619 451.712 271.02 450.197 277.27 450.624C280.01 450.811 282.387 448.782 282.581 446.09C282.774 443.399 280.711 441.066 277.971 440.879C269.979 440.333 259.227 442.209 249.753 445.201C244.961 446.714 240.323 448.565 236.366 450.657C232.503 452.699 228.887 455.177 226.551 458.103C224.855 460.227 225.231 463.297 227.391 464.96C229.551 466.624 232.677 466.251 234.373 464.127C235.463 462.762 237.674 461.054 241.071 459.259C244.373 457.513 248.426 455.878 252.787 454.501Z" fill="#020203"/>
<path d="M343.784 581.014C341.437 620.994 309.386 653.881 269.514 655.066C229.642 656.251 197.779 625.421 196.591 585.389C195.403 545.358 222.99 492.964 276.773 497.78C324.604 502.063 346.131 541.035 343.784 581.014Z" fill="#3B3B3B"/>
<path d="M254.828 507.671C226.563 512.231 213.061 541.904 209.843 556.171L236.465 556.044C243.585 538.296 252.833 524.78 256.567 520.24L254.828 507.671Z" fill="#D9D9D9"/>
<path d="M275.813 592.836C238.795 591.309 212.666 581.354 204.228 576.568C200.031 578.883 202.428 587.791 201.436 602.274C211.236 621.035 221.348 650.299 274.511 644.777C317.041 640.359 335.25 607.056 339.039 590.957C333.388 592.22 312.832 594.364 275.813 592.836Z" fill="#676767"/>
<path d="M207.084 609.093C204.912 574.799 207.838 553.449 209.573 547.061C204.694 552.838 202.677 557.827 200.994 574.07C199.648 587.065 204.494 602.834 207.084 609.093Z" fill="#303635"/>
<path d="M429.614 588.695C434.346 628.214 463.275 659.089 503.446 657.895C543.616 656.701 569.203 624.363 568.022 584.581C566.74 541.38 531.588 500.039 486.943 506.655C439.091 513.746 424.881 549.175 429.614 588.695Z" fill="#3B3B3B"/>
<path fill-rule="evenodd" clip-rule="evenodd" d="M503.363 655.098C464.978 656.239 437.021 626.785 432.42 588.363C430.098 568.976 432.47 550.93 440.979 536.958C449.422 523.094 464.137 512.864 487.359 509.423C508.629 506.271 527.702 514.508 541.71 528.881C555.747 543.285 564.577 563.756 565.197 584.665C566.341 623.195 541.693 653.959 503.363 655.098ZM503.446 657.895C463.275 659.089 434.346 628.214 429.614 588.695C424.881 549.175 439.091 513.746 486.943 506.655C531.588 500.039 566.74 541.38 568.022 584.581C569.203 624.363 543.616 656.701 503.446 657.895Z" fill="black"/>
<path d="M500.523 598.038C465.657 603.793 442.033 594.861 434.58 589.675C434.908 600.725 451.83 663.633 507.764 657.546C552.511 652.677 565.107 606.687 562.393 584.402C558.576 586.481 535.39 592.283 500.523 598.038Z" fill="#676767"/>
<path d="M444.775 537.922C440.302 543.654 438.489 557.239 438.142 563.315C441.409 566.718 440.653 559.041 442.513 550.587C444.372 542.134 450.366 530.757 444.775 537.922Z" fill="#D9D9D9"/>
<path d="M727.516 522.464C726.667 587.864 714.644 629.181 707.641 651.681L731.329 650.977C754.064 641.662 753.932 543.22 750.911 535.421C740.538 524.232 730.992 522.121 727.516 522.464Z" fill="#D7D7D7"/>
<path d="M727.706 525.691C735.792 525.45 746.695 532.49 751.136 536.039C753.339 532.335 748.819 522.897 747.728 518.598C744.016 510.393 733.45 508.194 727.186 508.164L727.706 525.691Z" fill="white"/>
<path fill-rule="evenodd" clip-rule="evenodd" d="M368.642 774.792C289.072 772.1 127.193 745.136 116.773 630.272C107.121 523.862 198.06 366.962 369.535 361.865C512.553 357.614 616.752 448.059 642.16 590.54C669.9 746.106 495.116 779.072 368.642 774.792ZM369.14 765.042C293.35 762.477 139.158 736.788 129.233 627.356C120.038 525.979 206.657 376.5 369.988 371.646C506.214 367.597 605.465 453.764 629.666 589.507C656.091 737.715 489.607 769.12 369.14 765.042Z" fill="#F5F4EF"/>
<path fill-rule="evenodd" clip-rule="evenodd" d="M175.754 457.999C219.082 404.864 285.244 364.37 371.686 361.801C443.751 359.659 506.065 381.168 553.562 421.031C601.056 460.893 633.695 519.073 646.475 590.21C653.463 629.106 647.688 660.404 633.043 685.388C618.405 710.362 594.946 728.959 566.683 742.538C510.176 769.686 434.308 776.852 370.676 774.735C330.626 773.402 269.838 766.022 217.731 744.628C165.634 723.239 122.031 687.754 116.772 630.134C111.915 576.903 132.44 511.116 175.754 457.999ZM176.844 458.876C133.727 511.751 113.349 577.187 118.169 630.007C123.358 686.862 166.364 722.03 218.267 743.34C270.16 764.646 330.762 772.012 370.724 773.342C434.267 775.456 509.867 768.287 566.073 741.283C594.166 727.786 617.373 709.354 631.831 684.687C646.283 660.031 652.033 629.078 645.094 590.455C632.364 519.596 599.87 461.722 552.656 422.096C505.445 382.473 443.476 361.062 371.728 363.194C285.741 365.75 219.946 406.018 176.844 458.876ZM185.488 463.207C226.764 412.579 289.792 373.996 372.14 371.549C440.789 369.508 500.152 390.002 545.4 427.986C590.646 465.968 621.738 521.404 633.913 589.183C640.571 626.246 635.069 656.071 621.116 679.882C607.169 703.682 584.818 721.403 557.893 734.341C504.063 760.209 431.791 767.035 371.18 765.017C333.03 763.747 275.124 756.716 225.486 736.332C175.859 715.951 134.312 682.137 129.302 627.224C124.673 576.502 144.227 513.818 185.488 463.207ZM186.578 464.084C145.514 514.453 126.108 576.786 130.699 627.098C135.64 681.246 176.59 714.743 226.023 735.043C275.446 755.339 333.166 762.357 371.227 763.624C431.75 765.639 503.754 758.809 557.283 733.087C584.037 720.23 606.137 702.673 619.904 679.181C633.665 655.698 639.14 626.217 632.532 589.428C620.407 521.927 589.459 466.797 544.495 429.051C499.532 391.307 440.514 370.911 372.181 372.942C290.289 375.376 227.627 413.734 186.578 464.084Z" fill="black"/>
<path d="M126.98 364.334C137.265 313.471 178.373 274.609 197.642 261.535C204.924 270.347 214.001 268.688 225.409 274.599C234.535 279.328 245.796 299.226 250.286 308.584C235.613 325.131 207.448 386.943 195.199 415.78L142.55 463.18C133.074 451.424 116.695 415.197 126.98 364.334Z" fill="#FFFFFD"/>
<path d="M503.418 214.953C494.014 201.083 502.51 200.123 507.933 201.376C511.373 198.916 526.798 197.844 560.978 213.242C603.703 232.49 643.056 280.137 659.527 314.315C672.704 341.657 658.578 361.273 649.869 367.664C636.584 355.607 604.807 340.703 590.579 334.759L539.869 283.204C532.755 256.531 515.174 232.291 503.418 214.953Z" fill="#FEFEFE" fill-opacity="0.8"/>
<path d="M357.787 652.397C331.373 646.63 321.568 662.009 319.967 670.419C319.367 676.426 322.369 687.24 343.38 696.251C360.188 703.46 376.397 694.449 382.4 689.042V670.419C375.196 666.815 360.188 658.164 357.787 652.397Z" fill="white" fill-opacity="0.5"/>
<path d="M402.81 651.858C429.224 646.091 439.029 661.47 440.63 669.88C441.23 675.887 438.229 686.701 417.218 695.712C400.409 702.921 388.403 693.848 382.4 688.441L382.4 670.419C389.604 666.815 400.409 657.625 402.81 651.858Z" fill="white" fill-opacity="0.5"/>
<path d="M365.611 722.324C359.484 718.297 356.317 704.821 355.5 698.587C370.395 698.545 379.496 692.683 382.185 689.758C386.685 693.296 393.232 702.103 410.775 697.812C412.921 706.53 404.774 718.069 400.432 722.749C391.378 724.285 371.739 726.351 365.611 722.324Z" fill="black"/>
<path d="M382.749 711.41C371.228 711.07 365.723 718.521 364.411 722.288C367.735 724.991 375.943 730.441 382.183 730.625C388.424 730.809 397.338 725.863 401.015 723.367C399.726 719.523 394.27 711.75 382.749 711.41Z" fill="#7D2E2E"/>
<path d="M413.182 697.41C412.399 703.128 409.973 711.66 405.198 718.725C400.406 725.815 393.148 731.549 382.765 731.243C372.431 730.939 365.603 725.344 361.318 718.589C357.058 711.874 355.262 703.953 354.902 698.687L357.297 698.523C357.637 703.493 359.35 711.002 363.345 717.301C367.316 723.561 373.488 728.566 382.836 728.841C392.135 729.115 398.709 724.038 403.209 717.38C407.727 710.696 410.057 702.539 410.804 697.084L413.182 697.41Z" fill="black"/>
<path d="M353.753 696.732C333.111 696.124 321.695 679.685 319.966 670.419C316.683 679.938 327.992 694.531 347.081 698.94C366.169 703.349 378.007 695.644 382.131 691.559C386.008 695.88 395.562 704.576 414.94 699.137C424.63 696.417 442.149 685.503 440.032 675.825C437.761 684.973 420.304 694.78 409.011 696.558C392.937 699.089 382.608 688.969 382.343 684.353C381.808 688.945 374.394 697.341 353.753 696.732Z" fill="black"/>
<path d="M384.021 668.176L383.385 689.793L380.985 689.722L381.621 668.105L384.021 668.176Z" fill="black"/>
<path d="M365.649 659.821C376.987 666.406 381.762 670.113 382.733 671.143C388.402 665.613 390.639 667.77 399.252 660.812C415.44 647.734 407.866 633.42 383.264 632.695C358.662 631.97 351.478 651.591 365.649 659.821Z" fill="#B66570"/>
<path d="M383.3 631.494C395.716 631.86 404.338 635.656 407.604 641.537C410.981 647.619 408.265 655.074 400.006 661.746C395.587 665.317 392.769 666.568 390.368 667.614C388.068 668.616 386.25 669.391 383.571 672.003L382.697 672.856L381.86 671.967C381.472 671.556 380.133 670.436 377.398 668.556C374.696 666.698 370.695 664.141 365.047 660.86C361.283 658.674 358.855 655.68 357.818 652.368C356.78 649.056 357.167 645.523 358.857 642.337C362.238 635.962 370.706 631.123 383.3 631.494ZM383.229 633.896C371.221 633.542 363.795 638.151 360.977 643.463C359.568 646.12 359.276 648.991 360.109 651.649C360.941 654.309 362.93 656.854 366.252 658.783C371.94 662.087 375.996 664.675 378.759 666.575C380.596 667.838 381.89 668.817 382.719 669.511C385.291 667.193 387.246 666.355 389.41 665.412C391.698 664.415 394.305 663.265 398.498 659.878C406.426 653.472 408.018 647.23 405.505 642.705C402.881 637.978 395.414 634.255 383.229 633.896Z" fill="black"/>
</svg>
