<svg width="16" height="16" viewBox="0 0 16 16" fill="none" xmlns="http://www.w3.org/2000/svg">
    <path fill-rule="evenodd" clip-rule="evenodd" d="M9.88271 2.07615C10.0243 1.93451 10.2368 1.89107 10.4227 1.96576C12.8119 2.9259 14.5001 5.26477 14.5001 7.99916C14.5001 11.589 11.59 14.4992 8.00014 14.4992C5.26574 14.4992 2.92688 12.8109 1.96674 10.4217C1.89205 10.2359 1.93549 10.0234 2.07713 9.88173C2.21876 9.74009 2.43126 9.69665 2.61712 9.77135C3.2499 10.0256 3.94137 10.1658 4.6668 10.1658C7.70437 10.1658 10.1668 7.70339 10.1668 4.66583C10.1668 3.94039 10.0266 3.24892 9.77232 2.61615C9.69763 2.43029 9.74107 2.21779 9.88271 2.07615Z" fill="#F1F7FF"/>
</svg>
