<svg width="16" height="16" viewBox="0 0 16 16" fill="none" xmlns="http://www.w3.org/2000/svg">
<path fill-rule="evenodd" clip-rule="evenodd" d="M7.99984 1.16602C8.27598 1.16602 8.49984 1.38987 8.49984 1.66602V2.99935C8.49984 3.27549 8.27598 3.49935 7.99984 3.49935C7.72369 3.49935 7.49984 3.27549 7.49984 2.99935V1.66602C7.49984 1.38987 7.72369 1.16602 7.99984 1.16602ZM3.16809 3.16744C3.36336 2.97217 3.67994 2.97217 3.8752 3.16744L4.81801 4.11025C5.01327 4.30551 5.01327 4.62209 4.81801 4.81735C4.62275 5.01261 4.30617 5.01261 4.1109 4.81735L3.16809 3.87454C2.97283 3.67928 2.97283 3.3627 3.16809 3.16744ZM1.1665 7.99935C1.1665 7.72321 1.39036 7.49935 1.6665 7.49935H2.99984C3.27598 7.49935 3.49984 7.72321 3.49984 7.99935C3.49984 8.27549 3.27598 8.49935 2.99984 8.49935H1.6665C1.39036 8.49935 1.1665 8.27549 1.1665 7.99935ZM12.9998 7.49935C12.7237 7.49935 12.4998 7.72321 12.4998 7.99935C12.4998 8.27549 12.7237 8.49935 12.9998 8.49935H14.3332C14.6093 8.49935 14.8332 8.27549 14.8332 7.99935C14.8332 7.72321 14.6093 7.49935 14.3332 7.49935H12.9998ZM11.1818 11.1814C11.377 10.9861 11.6936 10.9861 11.8889 11.1814L12.8317 12.1242C13.0269 12.3194 13.0269 12.636 12.8317 12.8313C12.6364 13.0265 12.3198 13.0265 12.1246 12.8313L11.1818 11.8885C10.9865 11.6932 10.9865 11.3766 11.1818 11.1814ZM7.99984 4.49935C6.06684 4.49935 4.49984 6.06635 4.49984 7.99935C4.49984 9.93235 6.06684 11.4993 7.99984 11.4993C9.93283 11.4993 11.4998 9.93235 11.4998 7.99935C11.4998 6.06635 9.93283 4.49935 7.99984 4.49935ZM12.8316 3.87454C13.0268 3.67928 13.0268 3.3627 12.8316 3.16744C12.6363 2.97217 12.3197 2.97217 12.1245 3.16744L11.1817 4.11025C10.9864 4.30551 10.9864 4.62209 11.1817 4.81735C11.3769 5.01261 11.6935 5.01261 11.8888 4.81735L12.8316 3.87454ZM7.99984 12.4993C8.27598 12.4993 8.49984 12.7232 8.49984 12.9993V14.3327C8.49984 14.6088 8.27598 14.8327 7.99984 14.8327C7.72369 14.8327 7.49984 14.6088 7.49984 14.3327V12.9993C7.49984 12.7232 7.72369 12.4993 7.99984 12.4993ZM4.81791 11.8885C5.01317 11.6932 5.01317 11.3766 4.81791 11.1814C4.62265 10.9861 4.30606 10.9861 4.1108 11.1814L3.16799 12.1242C2.97273 12.3194 2.97273 12.636 3.16799 12.8313C3.36326 13.0265 3.67984 13.0265 3.8751 12.8313L4.81791 11.8885Z" fill="#6F7785"/>
</svg>
