<svg width="276" height="394" viewBox="0 0 276 394" fill="none" xmlns="http://www.w3.org/2000/svg">
    <g filter="url(#filter0_d_830_17498)">
        <path d="M179.353 220.706C203.797 221.908 233.322 202.503 235.807 151.947C236.887 129.979 235.758 116.208 231.231 100.933C222.947 72.9378 203.894 52.8121 170.848 51.1877C144.821 49.9084 122.472 62.9658 111.112 84.1446C103.727 97.9375 103.089 115.381 102.166 134.163C101.243 152.945 105.275 149.195 105.707 156.074C106.92 175.181 111.826 191.356 123.509 203.569C137.093 217.67 154.925 219.505 179.353 220.706Z" fill="#F9E3D2"/>
        <path fill-rule="evenodd" clip-rule="evenodd" d="M208.373 135.2C208.585 130.9 210.31 127.761 212.656 127.325C213.47 127.247 214.29 127.417 215.007 127.811C215.724 128.205 216.306 128.806 216.678 129.536C219.255 134.303 220.034 144.345 215.699 145.626C210.524 147.039 208.024 142.308 208.373 135.2Z" fill="#262626"/>
        <path fill-rule="evenodd" clip-rule="evenodd" d="M169.602 144.587C164.082 144.096 163.538 135.355 165.782 130.605C166.218 129.714 167.803 125.907 171.748 126.18C173.032 126.321 174.259 126.791 175.308 127.545C176.358 128.3 177.196 129.312 177.741 130.485C179.508 135.747 178.586 145.249 171.028 144.657L169.602 144.587Z" fill="#262626"/>
        <path d="M194.213 148.188C194.593 148.612 195.017 148.997 195.476 149.335C196.232 149.902 197.093 150.315 198.008 150.549C198.924 150.783 199.877 150.834 200.812 150.698L201.208 150.623C203.909 150.331 205.71 150.75 206.323 151.693C208.763 155.43 207.744 159.218 203.109 162.136C200.676 163.684 197.404 164.105 195.723 163.157C195.524 163.046 195.303 162.98 195.075 162.964C194.848 162.947 194.619 162.98 194.406 163.061C194.193 163.142 194 163.268 193.84 163.432C193.681 163.595 193.559 163.791 193.482 164.006C193.28 164.441 193.241 164.935 193.375 165.395C193.508 165.856 193.804 166.253 194.207 166.511C196.974 168.063 201.384 167.509 204.705 165.454C210.994 161.485 212.702 155.168 209.022 149.513C207.566 147.192 204.692 146.532 200.934 146.945L200.443 147.015C199.348 147.179 198.233 146.904 197.34 146.249C197.075 146.044 196.829 145.816 196.603 145.568C196.456 145.401 196.274 145.268 196.07 145.176C195.867 145.085 195.646 145.039 195.423 145.039C195.2 145.04 194.98 145.089 194.777 145.182C194.574 145.275 194.393 145.41 194.247 145.578C193.938 145.941 193.766 146.4 193.759 146.877C193.753 147.353 193.914 147.817 194.213 148.188Z" fill="#262626"/>
        <path d="M193.875 185.816C194.1 185.873 194.312 185.974 194.497 186.113C194.682 186.252 194.838 186.428 194.955 186.628C195.072 186.829 195.148 187.051 195.178 187.281C195.208 187.511 195.192 187.745 195.13 187.969C194.691 189.651 192.436 190.353 186.968 190.921C186.242 190.996 185.512 191.022 184.783 190.997C183.388 190.962 181.997 190.826 180.622 190.591C179.841 190.468 179.249 190.352 178.891 190.275C178.435 190.171 178.038 189.889 177.79 189.492C177.541 189.095 177.46 188.616 177.564 188.159C177.668 187.702 177.95 187.305 178.346 187.056C178.742 186.807 179.221 186.726 179.678 186.83L181.237 187.108C182.453 187.309 183.681 187.429 184.913 187.465C185.495 187.488 186.079 187.468 186.658 187.403C188.366 187.276 190.058 186.992 191.713 186.553L192.095 186.426C192.303 186.166 192.581 185.97 192.897 185.862C193.212 185.754 193.551 185.738 193.875 185.816Z" fill="#262626"/>
        <path d="M114.613 175.245C114.786 171.73 109.634 132.737 109.634 132.737C105.959 133.344 102.36 134.348 98.9005 135.733C96.869 136.636 95.1048 138.05 93.7787 139.836C92.4526 141.623 91.6095 143.722 91.331 145.93C91.1583 149.445 90.9855 152.96 94.1625 160.225C100.526 174.553 111.103 175.072 114.613 175.245Z" fill="#F9E3D2"/>
        <path d="M85.5511 139.524C86.237 125.569 109.447 82.3142 111.112 84.1446L111.853 89.2717L119.906 103.948C119.735 107.436 121.135 120.99 120.998 123.781C120.826 127.269 117.068 132.33 116.382 146.285C115.696 160.239 120.691 165.73 119.833 183.173C118.976 200.615 101.464 208.497 89.5881 235.889C77.7127 263.282 86.5515 261.967 81.2997 261.709C67.2949 261.021 63.6724 227.621 61.2001 206.518C58.7278 185.414 78.5845 174.151 84.1792 167.432C89.774 160.713 84.6937 156.966 85.5511 139.524Z" fill="#DFDFDF"/>
        <path d="M233.064 126.085C226.414 115.252 208.162 115.301 199.868 116.68C196.188 129.225 214.399 124.04 221.696 126.933C226.655 128.899 241.974 130.951 243.539 129.804C244.278 129.263 235.727 130.424 233.064 126.085Z" fill="white"/>
        <path d="M149.301 123.349C156.981 113.22 175.14 115.059 183.26 117.245C185.691 130.091 168.076 123.144 160.53 125.308C155.403 126.778 139.956 127.318 138.511 126.023C137.829 125.412 146.225 127.406 149.301 123.349Z" fill="white"/>
        <path d="M115.178 128.74C118.253 123.296 121.016 106.8 119.906 105.58C121.743 103.922 119.906 105.58 130.075 113.25C135.558 186.094 162.294 190.032 182.201 193.232C207.272 197.262 226.223 190.151 235.54 143.399C250.01 170.338 237.498 174.968 245.565 189.353C253.632 203.737 239.285 210.026 250.596 229.816C259.645 245.647 256.153 271.47 253.275 282.402C252.92 277.722 249.564 265.085 238.978 251.975C249.427 267.875 248.848 289.179 247.252 297.843C246.142 296.622 236.13 274.216 229.882 258.522C231.497 297.068 253.14 320.863 256.041 333.245C252.454 334.817 237.041 327.065 225.387 314.253C226.308 324.09 244.503 341.873 255.161 351.14L274.428 366.979L230.813 388.704C209.023 391.713 160.155 391.827 139.766 378.236C114.278 361.246 118.723 342.231 123.424 317.983C108.648 332.994 94.3857 337.538 94.7287 330.561C95.0716 323.584 117.622 293.219 107.633 282.237C90.4695 274.4 89.6625 255.127 90.4341 239.428C91.2058 223.729 111.834 196.767 115.764 188.218C119.694 179.669 110.305 156.477 108.983 147.669C107.661 138.862 111.334 135.545 115.178 128.74Z" fill="#F0F0F0"/>
        <path fill-rule="evenodd" clip-rule="evenodd" d="M191.681 187.196C204.666 197.249 219.777 204.19 235.857 207.487C235.857 207.487 239.135 188.412 241.774 186.812C250.673 187.029 259.27 190.08 266.32 195.521C266.32 195.521 263.687 214.266 245.901 218.519C245.901 218.519 228.005 216.727 187.66 189.122L191.681 187.196Z" fill="#962101"/>
        <path fill-rule="evenodd" clip-rule="evenodd" d="M241.774 186.812C241.774 186.812 241.594 190.468 252.795 193.944C263.996 197.42 266.32 195.521 266.32 195.521C266.32 195.521 258.477 188.278 241.774 186.812Z" fill="#D9391B"/>
        <path fill-rule="evenodd" clip-rule="evenodd" d="M244.531 187.923C244.531 187.923 244.392 190.747 253.056 193.438C261.72 196.128 263.504 194.659 263.504 194.659C263.504 194.659 257.433 189.06 244.531 187.923Z" fill="#8C0B01"/>
        <path fill-rule="evenodd" clip-rule="evenodd" d="M248.228 192.917C253.603 195.342 259.429 196.599 265.324 196.605C265.324 196.605 261.827 210.872 250.077 215.689C238.327 220.506 243.76 203.283 248.228 192.917Z" fill="#BF300A"/>
        <path fill-rule="evenodd" clip-rule="evenodd" d="M254.609 195.386C257.796 196.35 261.098 196.883 264.427 196.969C264.427 196.969 259.524 211.073 251.713 214.37C243.901 217.666 250.317 203.149 254.609 195.386Z" fill="#DC3417"/>
        <path d="M183.158 172.142C168.681 169.42 138.082 167.752 131.504 182.86C168.198 184.224 198.927 184.664 183.158 172.142Z" fill="white"/>
        <path d="M190.314 172.494C204.989 171.204 235.604 172.545 240.668 188.225C204.018 185.984 173.393 183.409 190.314 172.494Z" fill="white"/>
        <path d="M128.724 2.00882C187.141 13.9917 220.056 47.7854 229.211 63.1845C180.441 65.6907 81.5211 73.4566 75.9945 84.47C70.4678 95.4835 42.3233 106.889 28.9419 111.215L22.4527 91.143C33.536 56.4388 70.3069 -9.97401 128.724 2.00882Z" fill="#F43433"/>
        <path d="M77.9571 110.538C66.7417 104.14 70.4539 98.964 57.2297 98.357L75.6366 68.8411L96.9399 104.301C94.4925 115.198 89.1725 116.936 77.9571 110.538Z" fill="#960114"/>
        <path d="M119.954 21.3833C117.524 31.4954 127.129 45.7342 132.235 51.5896L93.9979 60.9123C102.386 55.1118 114.797 32.1427 119.954 21.3833Z" fill="#960114"/>
        <path d="M64.7411 84.2209C70.1625 61.6632 84.5431 30.3569 91.0557 17.5235C79.9455 22.6697 48.291 75.6392 31.1505 97.7458L35.0357 111.535C42.6786 111.83 59.3197 106.779 64.7411 84.2209Z" fill="#960114"/>
        <path d="M2.21075 102.618C0.0812774 111.478 5.53777 120.387 14.3982 122.517C23.2586 124.646 32.1676 119.19 34.2971 110.33C36.4266 101.469 30.9701 92.5601 22.1097 90.4306C13.2493 88.3011 4.34023 93.7576 2.21075 102.618Z" fill="#FEF7E5"/>
        <path d="M34.2883 110.365C30.8106 113.317 25.1552 116.871 21.0608 116.191C15.5224 115.271 8.30393 113.639 8.20997 103.332C8.16827 98.7581 9.40098 94.8068 10.8557 91.8398C6.64867 93.9416 3.36435 97.8181 2.17937 102.749C0.0498946 111.609 5.50638 120.518 14.3668 122.647C23.2272 124.777 32.1362 119.32 34.2657 110.46C34.2733 110.428 34.2809 110.397 34.2883 110.365Z" fill="#FFF8E5"/>
        <path d="M251.954 99.4243C249.629 121.081 238.134 117.701 232.677 113.304C196.528 98.9595 157.538 92.1597 131.048 99.6775C104.557 107.195 69.5834 128.616 72.6482 92.3272C75.3322 60.5479 101.501 56.229 125.448 52.2767L126.006 52.1846C167.483 45.336 212.644 57.5797 220.189 60.4215C227.734 63.2633 254.86 72.354 251.954 99.4243Z" fill="#FFF8E5"/>
    </g>
    <defs>
        <filter id="filter0_d_830_17498" x="0.71875" y="0.581543" width="274.709" height="392.768" filterUnits="userSpaceOnUse" color-interpolation-filters="sRGB">
            <feFlood flood-opacity="0" result="BackgroundImageFix"/>
            <feColorMatrix in="SourceAlpha" type="matrix" values="0 0 0 0 0 0 0 0 0 0 0 0 0 0 0 0 0 0 127 0" result="hardAlpha"/>
            <feOffset dy="2"/>
            <feGaussianBlur stdDeviation="0.5"/>
            <feComposite in2="hardAlpha" operator="out"/>
            <feColorMatrix type="matrix" values="0 0 0 0 0 0 0 0 0 0 0 0 0 0 0 0 0 0 0.25 0"/>
            <feBlend mode="normal" in2="BackgroundImageFix" result="effect1_dropShadow_830_17498"/>
            <feBlend mode="normal" in="SourceGraphic" in2="effect1_dropShadow_830_17498" result="shape"/>
        </filter>
    </defs>
</svg>
