<svg width="708" height="1213" viewBox="0 0 708 1213" fill="none" xmlns="http://www.w3.org/2000/svg">
<ellipse cx="343.5" cy="1189.5" rx="200.5" ry="23.5" fill="#5D6573"/>
<path d="M520.054 838.636C528.052 833.939 558.24 825.743 561.045 820.542C559.867 817.729 550.264 781.279 536.434 777.643C522.603 774.008 482.32 762.15 462.696 805.914C471.431 820.056 479.317 843.177 485.322 864.904C488.417 858.28 512.805 842.892 520.054 838.636Z" fill="#F5F4EF" stroke="black"/>
<path d="M259.611 1201C217.706 1201 201.001 1187.57 201.645 1179.08L364.017 1180.86L489.661 1182.05C495.89 1186.78 477.777 1193.98 461.931 1197.45C434.869 1203.37 390.411 1199.22 374.302 1194.48C357.979 1196.46 313.745 1201 259.611 1201Z" fill="#383838"/>
<g filter="url(#filter0_d_2268_527)">
<path d="M423.246 1114.54C473.476 1114.54 489.118 1146.54 490.66 1162.54C491.982 1152.94 488.016 1112.62 484.051 1083.82C480.878 1060.77 462.901 1038.37 454.309 1030.05C450.123 1033.25 437.522 1041.06 420.602 1046.69C403.682 1052.33 380.065 1054.59 370.372 1055.01C369.05 1056.51 364.423 1063.46 356.492 1079.34C346.578 1099.18 351.866 1143.34 353.848 1152.3C355.435 1159.47 354.069 1170.22 353.187 1174.7H356.492C357.814 1154.64 373.015 1114.54 423.246 1114.54Z" fill="#F5F4EF"/>
</g>
<g filter="url(#filter1_d_2268_527)">
<path fill-rule="evenodd" clip-rule="evenodd" d="M454.048 1025.67L453.591 1026.03C449.502 1029.25 437.083 1037.18 420.391 1042.9C403.718 1048.61 380.395 1050.91 370.813 1051.35L370.53 1051.36L370.345 1051.57C369.646 1052.39 368.146 1054.59 365.855 1058.57C363.554 1062.58 360.437 1068.41 356.503 1076.51C354.002 1081.67 352.476 1088.36 351.613 1095.6C350.749 1102.85 350.545 1110.69 350.709 1118.18C351.037 1133.14 352.84 1146.72 353.833 1151.34C354.6 1154.91 354.659 1159.41 354.409 1163.61C354.16 1167.81 353.607 1171.67 353.175 1173.93L353.027 1174.7H357.707L357.746 1174.09C358.394 1163.97 362.45 1148.77 372.501 1136.11C382.531 1123.48 398.55 1113.35 423.223 1113.35C447.947 1113.35 464.09 1121.45 474.241 1131.52C484.409 1141.6 488.605 1153.69 489.356 1161.71L490.657 1161.73C490.993 1159.22 490.989 1154.76 490.744 1149.07C490.498 1143.37 490.006 1136.39 489.351 1128.79C488.04 1113.61 486.075 1095.98 484.109 1081.28C482.521 1069.41 477.236 1057.74 471.301 1047.99C465.365 1038.23 458.752 1030.36 454.459 1026.08L454.048 1025.67ZM453.939 1027.41C458.164 1031.7 464.485 1039.31 470.182 1048.66C476.066 1058.33 481.256 1069.83 482.811 1081.45C484.774 1096.13 486.737 1113.74 488.046 1128.91C488.7 1136.49 489.191 1143.45 489.435 1149.13C489.539 1151.54 489.599 1153.71 489.608 1155.59C487.693 1147.95 483.282 1138.64 475.165 1130.59C464.745 1120.26 448.26 1112.04 423.223 1112.04C398.134 1112.04 381.742 1122.37 371.475 1135.3C361.428 1147.95 357.264 1163.07 356.482 1173.39H354.604C355.017 1171.04 355.49 1167.5 355.716 1163.69C355.968 1159.45 355.918 1154.81 355.114 1151.07C354.142 1146.55 352.345 1133.05 352.018 1118.15C351.855 1110.7 352.059 1102.92 352.914 1095.75C353.769 1088.57 355.272 1082.05 357.682 1077.08C361.605 1069 364.708 1063.19 366.991 1059.22C369.086 1055.58 370.475 1053.51 371.164 1052.64C380.963 1052.17 404.134 1049.85 420.817 1044.13C437.069 1038.56 449.329 1030.91 453.939 1027.41Z" fill="black"/>
</g>
<path d="M394.39 1108.56C393.342 1100.65 376.487 1089.6 368.19 1085.07C397.535 1092.49 431.508 1051.28 447.447 1030.05C463.692 1042.42 488.059 1100.52 480.853 1126.48C467.229 1102.75 416.006 1100.93 394.39 1108.56Z" fill="#91908D" fill-opacity="0.14"/>
<g filter="url(#filter2_d_2268_527)">
<path d="M267.186 1114.54C218.526 1114.54 203.373 1146.54 201.879 1162.54C200.598 1152.94 204.44 1112.62 208.281 1083.82C211.355 1060.77 228.77 1038.37 237.094 1030.05C241.149 1033.25 253.357 1041.06 269.747 1046.69C286.138 1052.33 309.018 1054.59 318.408 1055.01C319.689 1056.51 324.171 1063.46 331.854 1079.34C341.458 1099.18 336.336 1143.34 334.415 1152.3C332.878 1159.47 334.202 1170.22 335.055 1174.7H331.854C330.573 1154.64 315.847 1114.54 267.186 1114.54Z" fill="#F5F4EF"/>
</g>
<g filter="url(#filter3_d_2268_527)">
<path fill-rule="evenodd" clip-rule="evenodd" d="M237.347 1025.67L237.79 1026.03C241.751 1029.25 253.781 1037.18 269.952 1042.9C286.104 1048.61 308.698 1050.91 317.981 1051.35L318.255 1051.36L318.434 1051.57C319.111 1052.39 320.564 1054.59 322.784 1058.57C325.013 1062.58 328.033 1068.41 331.843 1076.51C334.266 1081.67 335.744 1088.36 336.58 1095.6C337.417 1102.85 337.616 1110.69 337.457 1118.18C337.139 1133.14 335.392 1146.72 334.43 1151.34C333.687 1154.91 333.63 1159.41 333.872 1163.61C334.113 1167.81 334.649 1171.67 335.067 1173.93L335.21 1174.7H330.677L330.639 1174.09C330.012 1163.97 326.082 1148.77 316.345 1136.11C306.629 1123.48 291.11 1113.35 267.209 1113.35C243.257 1113.35 227.618 1121.45 217.785 1131.52C207.934 1141.6 203.869 1153.69 203.142 1161.71L201.882 1161.73C201.556 1159.22 201.56 1154.76 201.798 1149.07C202.036 1143.37 202.512 1136.39 203.147 1128.79C204.417 1113.61 206.321 1095.98 208.225 1081.28C209.763 1069.41 214.883 1057.74 220.632 1047.99C226.383 1038.23 232.79 1030.36 236.948 1026.08L237.347 1025.67ZM237.452 1027.41C233.359 1031.7 227.235 1039.31 221.717 1048.66C216.017 1058.33 210.989 1069.83 209.482 1081.45C207.581 1096.13 205.679 1113.74 204.411 1128.91C203.777 1136.49 203.302 1143.45 203.065 1149.13C202.964 1151.54 202.907 1153.71 202.897 1155.59C204.753 1147.95 209.026 1138.64 216.89 1130.59C226.984 1120.26 242.954 1112.04 267.209 1112.04C291.514 1112.04 307.393 1122.37 317.34 1135.3C327.072 1147.95 331.106 1163.07 331.864 1173.39H333.684C333.283 1171.04 332.825 1167.5 332.606 1163.69C332.361 1159.45 332.41 1154.81 333.189 1151.07C334.13 1146.55 335.872 1133.05 336.188 1118.15C336.347 1110.7 336.148 1102.92 335.32 1095.75C334.492 1088.57 333.036 1082.05 330.701 1077.08C326.901 1069 323.895 1063.19 321.683 1059.22C319.654 1055.58 318.308 1053.51 317.641 1052.64C308.148 1052.17 285.701 1049.85 269.54 1044.13C253.795 1038.56 241.918 1030.91 237.452 1027.41Z" fill="black"/>
</g>
<path d="M337.374 1126.48C322.14 1075.05 241.329 1045.48 236.693 1030.05C270.607 1035.71 303.372 1049.13 315.516 1055.13C335.122 1073.64 338.257 1110.41 337.374 1126.48Z" fill="url(#paint0_linear_2268_527)"/>
<path d="M268.725 1117.72C206.798 1117.72 198.689 1160.53 202.375 1181.94C201.291 1186.83 212.393 1196.62 265.473 1196.62C318.553 1196.62 332.69 1183.98 333.124 1177.66C331.172 1150.74 315.56 1117.72 268.725 1117.72Z" fill="#EFEDE8"/>
<path fill-rule="evenodd" clip-rule="evenodd" d="M212.037 1140.72C202.932 1155.18 201.841 1172.57 203.647 1184.16L203.667 1184.29L203.642 1184.41C203.433 1185.45 203.779 1186.91 205.384 1188.56C206.991 1190.22 209.808 1192.02 214.352 1193.68C223.435 1196.99 239.239 1199.66 265.491 1199.66C291.726 1199.66 308.272 1196.21 318.288 1191.93C323.295 1189.79 326.649 1187.46 328.767 1185.27C330.87 1183.09 331.725 1181.1 331.833 1179.59C330.866 1164.96 326.545 1148.74 316.76 1136.17C306.986 1123.63 291.716 1114.67 268.711 1114.67C238.229 1114.67 221.114 1126.3 212.037 1140.72ZM210.959 1139.99C220.314 1125.13 237.873 1113.34 268.711 1113.34C292.082 1113.34 307.729 1122.45 317.762 1135.33C327.774 1148.19 332.149 1164.73 333.121 1179.54L333.124 1179.58L333.121 1179.63C333 1181.57 331.94 1183.88 329.676 1186.22C327.406 1188.57 323.894 1190.99 318.778 1193.17C308.547 1197.54 291.815 1201 265.491 1201C239.182 1201 223.21 1198.32 213.926 1194.94C209.285 1193.25 206.271 1191.37 204.476 1189.51C202.725 1187.7 202.087 1185.86 202.358 1184.26C200.54 1172.43 201.662 1154.75 210.959 1139.99Z" fill="black"/>
<path d="M426.52 1117.72C364.594 1117.72 356.484 1160.53 360.17 1181.94C359.086 1186.83 370.188 1196.62 423.268 1196.62C476.348 1196.62 490.485 1183.98 490.919 1177.66C488.967 1150.74 473.356 1117.72 426.52 1117.72Z" fill="#EFEDE8"/>
<path fill-rule="evenodd" clip-rule="evenodd" d="M369.832 1140.72C360.727 1155.18 359.636 1172.57 361.443 1184.16L361.462 1184.29L361.437 1184.41C361.228 1185.45 361.575 1186.91 363.179 1188.56C364.786 1190.22 367.604 1192.02 372.147 1193.68C381.231 1196.99 397.034 1199.66 423.286 1199.66C449.521 1199.66 466.068 1196.21 476.083 1191.93C481.09 1189.79 484.444 1187.46 486.562 1185.27C488.666 1183.09 489.52 1181.1 489.628 1179.59C488.661 1164.96 484.34 1148.74 474.555 1136.17C464.781 1123.63 449.511 1114.67 426.506 1114.67C396.024 1114.67 378.909 1126.3 369.832 1140.72ZM368.754 1139.99C378.109 1125.13 395.669 1113.34 426.506 1113.34C449.877 1113.34 465.524 1122.45 475.557 1135.33C485.569 1148.19 489.944 1164.73 490.916 1179.54L490.919 1179.58L490.916 1179.63C490.795 1181.57 489.735 1183.88 487.471 1186.22C485.201 1188.57 481.69 1190.99 476.573 1193.17C466.342 1197.54 449.61 1201 423.286 1201C396.977 1201 381.005 1198.32 371.721 1194.94C367.08 1193.25 364.066 1191.37 362.271 1189.51C360.52 1187.7 359.882 1185.86 360.153 1184.26C358.335 1172.43 359.457 1154.75 368.754 1139.99Z" fill="black"/>
<path d="M315.59 1158.59C269.428 1181.25 229.147 1165.93 214.777 1155.44C216.545 1145.79 228.44 1126.48 261.867 1126.48C295.295 1126.48 311.611 1147.89 315.59 1158.59Z" fill="#F5F4EF"/>
<path d="M473.387 1158.59C429.232 1181.25 390.702 1165.93 376.957 1155.44C378.648 1145.79 390.025 1126.48 422 1126.48C453.974 1126.48 469.581 1147.89 473.387 1158.59Z" fill="#F5F4EF"/>
<path d="M407.919 1095.8L447.088 1031.42C443.388 1027.08 428.548 1021.01 398.779 1031.42C369.011 1041.82 357.216 1070 355.04 1082.8L407.919 1095.8Z" fill="url(#paint1_linear_2268_527)"/>
<path d="M245.46 782.662L249.325 767.062L447.087 770.182L445.155 785.781C445.155 785.781 382.67 792.021 343.375 793.269C304.08 794.517 245.46 782.662 245.46 782.662Z" fill="#403C37"/>
<g filter="url(#filter4_i_2268_527)">
<path d="M255.832 784.993C238.828 782.949 235.865 789.249 236.509 792.655C233.664 798.401 229.423 806.702 221.05 828.411C212.677 850.121 207.524 859.699 200.439 890.986C193.353 922.273 183.048 963.776 210.1 999.533L210.238 999.715C237.19 1035.34 248.266 1049.98 344.075 1051.89C440.047 1053.81 462.591 1019.97 476.118 1002.09C489.644 984.209 499.306 963.776 492.864 913.972C486.423 864.168 456.15 804.786 450.997 796.486C445.844 788.185 445.2 787.547 430.386 788.824L429.669 788.886C414.201 790.22 371.167 793.932 333.125 793.932C294.479 793.932 277.088 787.547 255.832 784.993Z" fill="#F5F4EF"/>
</g>
<g filter="url(#filter5_i_2268_527)">
<path fill-rule="evenodd" clip-rule="evenodd" d="M241.424 787.943C238.838 789.539 238.365 791.693 238.642 793.135L238.681 793.342L238.586 793.532C238.447 793.808 238.306 794.09 238.16 794.379C235.295 800.067 231.035 808.526 222.994 829.066C221.341 833.286 219.814 837.043 218.373 840.589C212.429 855.215 207.95 866.237 202.199 891.255C202.03 891.991 201.859 892.733 201.687 893.481C194.563 924.385 185.365 964.284 211.845 998.766L211.984 998.947C225.609 1016.69 235.124 1029.06 253.254 1037.3C271.419 1045.55 298.29 1049.67 346.678 1050.62C395.078 1051.57 424.887 1043.64 444.279 1033.3C462.545 1023.56 471.623 1011.67 478.327 1002.88C478.737 1002.35 479.138 1001.82 479.532 1001.31C486.332 992.453 492.136 982.999 495.443 969.607C498.753 956.203 499.572 938.81 496.325 914.074C493.082 889.369 483.833 862.261 474.732 840.277C465.63 818.291 456.699 801.487 454.122 797.398C451.486 793.214 450.13 791.208 447.687 790.269C446.454 789.794 444.9 789.578 442.687 789.568C440.474 789.558 437.655 789.754 433.911 790.072L433.182 790.134C417.555 791.462 374.061 795.158 335.603 795.158C308.437 795.158 291.582 792.078 276.663 789.351C270.12 788.155 263.949 787.027 257.444 786.257C248.915 785.247 244.052 786.32 241.424 787.943ZM240.729 786.868C243.729 785.016 248.952 783.971 257.601 784.995C264.224 785.779 270.452 786.918 277.027 788.121C291.903 790.841 308.558 793.887 335.603 793.887C374 793.887 417.446 790.196 433.074 788.867L433.798 788.806C437.538 788.488 440.412 788.287 442.693 788.297C444.973 788.307 446.713 788.528 448.164 789.086C451.09 790.212 452.662 792.655 455.23 796.732C457.859 800.904 466.822 817.78 475.938 839.801C485.056 861.824 494.352 889.049 497.616 913.912C500.875 938.743 500.067 956.302 496.708 969.905C493.346 983.52 487.438 993.131 480.573 1002.07C480.178 1002.58 479.775 1003.11 479.362 1003.65C472.645 1012.46 463.422 1024.55 444.903 1034.42C425.254 1044.89 395.202 1052.85 346.651 1051.89C298.253 1050.94 271.138 1046.82 252.705 1038.45C234.258 1030.07 224.567 1017.45 210.989 999.77L210.943 999.709L210.804 999.528C183.958 964.57 193.282 924.139 200.386 893.334C200.569 892.542 200.75 891.756 200.929 890.976C206.703 865.858 211.217 854.75 217.169 840.107C218.609 836.565 220.132 832.816 221.778 828.612C229.84 808.02 234.116 799.528 236.993 793.815C237.106 793.591 237.217 793.371 237.326 793.154C237.042 791.228 237.797 788.678 240.729 786.868Z" fill="black"/>
</g>
<path d="M5.56336 512.094C7.68945 484.224 24.1666 474.676 32.1394 473.385C28.4187 517.772 35.4614 591.232 39.4479 622.415C16.8582 621.769 5.56336 599.189 5.56336 581.125C5.56336 563.061 2.90575 546.932 5.56336 512.094Z" fill="#F5F4EF"/>
<path fill-rule="evenodd" clip-rule="evenodd" d="M32.4011 473.385L32.3346 474.202C28.7644 518.092 35.5248 590.792 39.3562 621.675L39.4479 622.415L38.7037 622.393C27.6031 622.066 19.2885 616.176 13.7708 608.138C8.26238 600.113 5.51683 589.92 5.51683 580.86C5.51683 575.4 5.27645 570.1 5.01698 564.379C4.43066 551.452 3.74683 536.376 5.51858 512.442C7.58164 484.573 23.6127 474.851 31.5932 473.52L32.4011 473.385ZM30.9947 474.941C23.3699 476.678 8.74452 486.164 6.79222 512.536C5.02604 536.395 5.70467 551.336 6.29054 564.235C6.55145 569.979 6.79397 575.318 6.79397 580.86C6.79397 589.69 9.47627 599.625 14.8235 607.415C20.0359 615.008 27.7567 620.538 37.9964 621.084C34.1742 589.986 27.5934 518.7 30.9947 474.941Z" fill="black"/>
<path fill-rule="evenodd" clip-rule="evenodd" d="M34.9741 473.385C31.2523 508.008 24.212 594.541 39.4494 622.411C33.1005 622.626 15.8199 613.763 11.8644 597.251C9.23728 586.283 6.77423 514.029 11.2076 500.481C15.7952 486.462 32.7848 474.246 34.9741 473.385ZM32.8816 479.192C30.0355 478.762 26.9704 499.836 25.6569 543.06C23.6777 608.189 36.1406 620.016 33.5384 609.508C27.6273 585.638 27.6273 528.867 32.8816 479.192Z" fill="#D6D5CF"/>
<path d="M21.843 500.696C22.6063 502.042 17.3374 526.267 10.4682 533.669C5.8887 541.744 11.9207 502.042 12.684 500.696C13.4473 499.35 21.0797 499.35 21.843 500.696Z" fill="#FFFEF9"/>
<path d="M397.17 42.3104L379.849 187.632L390.263 191.033L406.391 42.3103L397.17 42.3104Z" fill="#D9D9D9"/>
<path fill-rule="evenodd" clip-rule="evenodd" d="M407.109 41.6643L390.818 191.891L379.146 188.079L396.598 41.6643L407.109 41.6643ZM397.742 42.9532L380.551 187.182L389.708 190.173L405.673 42.9532L397.742 42.9532Z" fill="black"/>
<path d="M425.751 38.4858C421.552 51.3424 407.726 58.3605 394.869 54.1612C382.013 49.9619 374.994 36.1354 379.194 23.2789C383.393 10.4223 397.219 3.40419 410.076 7.60346C422.933 11.8027 429.951 25.6292 425.751 38.4858Z" fill="#D9D9D9"/>
<path fill-rule="evenodd" clip-rule="evenodd" d="M395.269 52.936C407.449 56.9143 420.548 50.2655 424.526 38.0856C428.504 25.9057 421.856 12.8069 409.676 8.82866C397.496 4.8504 384.397 11.4992 380.419 23.6791C376.441 35.859 383.089 48.9578 395.269 52.936ZM394.869 54.1612C407.726 58.3605 421.552 51.3424 425.751 38.4858C429.951 25.6292 422.933 11.8027 410.076 7.60346C397.219 3.40419 383.393 10.4223 379.194 23.2789C374.994 36.1354 382.013 49.9619 394.869 54.1612Z" fill="black"/>
<path d="M319.975 78.8975L335.37 179.711H346.274L328.955 78.8975H319.975Z" fill="#D9D9D9"/>
<path fill-rule="evenodd" clip-rule="evenodd" d="M319.975 74.5151H329.687L346.274 179.712H334.719L319.975 74.5151ZM321.384 75.8139L335.764 178.413H344.839L328.661 75.8139H321.384Z" fill="black"/>
<path d="M0 551.338C0 584.79 5.84428 588.157 8.76642 591.733V512.835C5.84428 515.781 0 517.885 0 551.338Z" fill="#A2A2A2"/>
<path fill-rule="evenodd" clip-rule="evenodd" d="M8.76642 512.835V596.116L7.79558 594.74C7.58244 594.438 7.34721 594.133 7.0955 593.807C5.87371 592.223 4.26349 590.135 2.9051 585.423C1.27894 579.782 0 570.373 0 553.397C0 536.426 1.27806 527.328 2.90931 522.077C3.72877 519.439 4.63932 517.766 5.52428 516.553C5.96457 515.95 6.39252 515.469 6.78523 515.051C6.91184 514.916 7.03178 514.79 7.14633 514.67C7.39588 514.409 7.61981 514.174 7.83109 513.927L8.76642 512.835ZM3.93945 522.513C2.37461 527.55 1.0958 536.468 1.0958 553.397C1.0958 570.322 2.37373 579.569 3.94367 585.015C5.14514 589.183 6.50895 591.119 7.67062 592.638V515.84C7.62168 515.892 7.57289 515.943 7.5244 515.995C7.14805 516.396 6.75701 516.837 6.35832 517.383C5.56533 518.469 4.71804 520.007 3.93945 522.513Z" fill="black"/>
<path d="M703.482 600.629C701.396 623.185 692.066 637.112 688.735 640.471L696.153 560.257C698.871 563.529 705.568 578.074 703.482 600.629Z" fill="#A2A2A2"/>
<path fill-rule="evenodd" clip-rule="evenodd" d="M695.655 558.65L687.928 642.202L689.193 640.926C692.639 637.451 702.026 623.38 704.124 600.69C705.175 589.336 704.015 579.987 702.244 573.054C700.479 566.143 698.094 561.586 696.649 559.847L695.655 558.65ZM700.995 573.373C702.731 580.169 703.877 589.37 702.841 600.572C700.999 620.493 693.472 633.595 689.561 638.544L696.632 562.085C697.924 564.234 699.636 568.052 700.995 573.373Z" fill="black"/>
<path fill-rule="evenodd" clip-rule="evenodd" d="M201.677 1170.59C200.754 1146.47 212.332 1108.95 266.489 1108.95C311.763 1108.95 326.854 1144.32 328.74 1173.13C328.71 1173.62 328.61 1174.15 328.431 1174.7C325.531 1146.64 309.858 1114.19 266.489 1114.19C216.119 1114.19 202.581 1146.65 201.677 1170.59Z" fill="#6C6B69"/>
<path fill-rule="evenodd" clip-rule="evenodd" d="M359.474 1170.59C358.519 1146.47 370.497 1108.95 426.52 1108.95C473.356 1108.95 488.967 1144.32 490.919 1173.13C490.887 1173.62 490.784 1174.15 490.599 1174.7C487.599 1146.64 471.385 1114.19 426.52 1114.19C374.414 1114.19 360.409 1146.65 359.474 1170.59Z" fill="#6C6B69"/>
<path d="M696.736 560.958C697.246 533.046 686.727 525.229 669.327 520.718C668.837 565.2 651.557 637.637 644.838 668.297C680.927 668.297 688.724 647.589 690.386 629.621C692.048 611.653 696.098 595.848 696.736 560.958Z" fill="#F5F4EF"/>
<path fill-rule="evenodd" clip-rule="evenodd" d="M668.69 519.887L668.681 520.711C668.244 560.467 654.36 622.636 646.631 657.245C645.729 661.285 644.91 664.95 644.207 668.159L644.035 668.942L644.836 668.942C663.009 668.942 674.177 663.723 681 656.128C687.804 648.554 690.19 638.72 691.026 629.681C691.533 624.198 692.267 618.898 693.059 613.176C694.849 600.249 696.936 585.171 697.379 560.97C697.635 546.945 695.125 537.838 690.252 531.664C685.379 525.489 678.23 522.361 669.487 520.094L668.69 519.887ZM689.241 532.462C693.85 538.302 696.344 547.059 696.09 560.947C695.649 585.072 693.579 600.013 691.793 612.913C690.997 618.657 690.257 623.997 689.743 629.562C688.917 638.492 686.573 647.996 680.041 655.267C673.626 662.408 663.076 667.498 645.638 667.649C646.3 664.639 647.058 661.247 647.887 657.535C655.557 623.193 669.34 561.488 669.959 521.552C678.239 523.776 684.774 526.802 689.241 532.462Z" fill="black"/>
<path d="M346.274 59.1731C346.274 72.4874 335.481 83.2807 322.167 83.2807C308.852 83.2807 298.059 72.4874 298.059 59.1731C298.059 45.8588 308.852 35.0654 322.167 35.0654C335.481 35.0654 346.274 45.8588 346.274 59.1731Z" fill="#D9D9D9"/>
<path fill-rule="evenodd" clip-rule="evenodd" d="M322.167 82.0119C334.78 82.0119 345.005 71.7866 345.005 59.1731C345.005 46.5595 334.78 36.3343 322.167 36.3343C309.553 36.3343 299.328 46.5595 299.328 59.1731C299.328 71.7866 309.553 82.0119 322.167 82.0119ZM322.167 83.2807C335.481 83.2807 346.274 72.4874 346.274 59.1731C346.274 45.8588 335.481 35.0654 322.167 35.0654C308.852 35.0654 298.059 45.8588 298.059 59.1731C298.059 72.4874 308.852 83.2807 322.167 83.2807Z" fill="black"/>
<path fill-rule="evenodd" clip-rule="evenodd" d="M360.869 179.711C58.5531 179.711 24.4338 435.345 31.4802 551.894C38.2542 663.936 63.0655 698.761 108.187 721.891L108.755 722.182C157.67 747.258 221.41 779.933 329.284 783.705C458.204 788.212 520.085 775.334 567.786 750.865C650.939 708.21 660.716 636.247 669.632 520.988C684.077 334.249 540.067 183.572 360.869 179.711ZM334.441 756.016C264.282 751.56 122.111 723.563 115.923 622.081C110.19 528.069 194.564 392.202 346.044 392.202C472.385 392.202 561.984 474.624 580.678 600.832C601.088 738.63 445.957 763.099 334.441 756.016Z" fill="#F5F4EF"/>
<path fill-rule="evenodd" clip-rule="evenodd" d="M81.2644 322.758C36.0054 400.916 29.2518 493.621 32.764 551.707C36.1425 607.581 44.0163 644.117 56.6233 669.55C69.2125 694.947 86.5443 709.317 108.968 720.81L109.535 721.101C158.326 746.11 221.836 778.663 329.35 782.422C457.969 786.918 519.595 774.065 567.055 749.722C608.4 728.516 631.479 700.05 645.349 662.546C659.238 624.994 663.899 578.379 668.349 520.856C682.736 334.893 539.316 184.845 360.841 180.997C210.213 180.998 126.492 244.655 81.2644 322.758ZM80.1507 322.115C125.617 243.599 209.773 179.711 360.848 179.711H360.862C540.06 183.572 684.077 334.236 669.632 520.955C665.184 578.446 660.518 625.243 646.556 662.991C632.578 700.786 609.284 729.507 567.643 750.866C519.894 775.357 458.006 788.206 329.305 783.706C221.504 779.938 157.789 747.279 108.948 722.244L108.381 721.953C85.7737 710.366 68.2094 695.82 55.4702 670.12C42.7487 644.456 34.8617 607.715 31.4798 551.784C27.9597 493.569 34.7153 400.577 80.1507 322.115ZM171.899 471.49C211.24 425.744 270.256 391.751 346.053 391.751C409.242 391.751 463.276 412.362 503.851 448.781C544.424 485.198 571.505 537.387 580.852 600.486C585.963 634.988 580.089 662.455 566.608 684.119C553.133 705.774 532.095 721.569 506.98 732.809C456.77 755.28 390.119 759.612 334.433 756.076C299.383 753.85 246.322 745.745 201.23 725.503C156.145 705.264 118.862 672.809 115.752 621.823C112.88 574.728 132.573 517.22 171.899 471.49ZM172.875 472.328C133.736 517.84 114.188 575.028 117.037 621.745C120.103 672.025 156.85 704.172 201.757 724.331C246.655 744.485 299.546 752.573 334.515 754.793C390.12 758.325 456.524 753.982 506.454 731.636C531.41 720.467 552.213 704.817 565.515 683.441C578.812 662.074 584.652 634.924 579.579 600.674C570.27 537.832 543.313 485.928 502.991 449.737C462.671 413.547 408.951 393.036 346.053 393.036C270.675 393.036 212.001 426.831 172.875 472.328Z" fill="black"/>
<path d="M114.238 623.674C120.455 724.848 263.28 752.761 333.763 757.204C445.791 764.265 601.636 739.87 581.132 602.489C562.353 476.662 472.341 394.49 345.419 394.49C193.241 394.49 108.479 529.946 114.238 623.674Z" fill="#FFE59F"/>
<path fill-rule="evenodd" clip-rule="evenodd" d="M171.582 471.293C132.292 517.15 112.668 574.772 115.528 621.843C118.606 672.504 155.495 704.894 200.575 725.206C245.646 745.513 298.741 753.662 333.844 755.899C389.663 759.457 456.324 755.082 506.446 732.566C531.498 721.313 552.382 705.544 565.735 684.006C579.083 662.477 584.946 635.121 579.853 600.612C570.508 537.294 543.447 484.997 502.97 448.531C462.495 412.068 408.568 391.401 345.427 391.401C269.758 391.401 210.858 425.452 171.582 471.293ZM170.602 470.449C210.094 424.357 269.338 390.106 345.427 390.106C408.86 390.106 463.101 410.873 503.833 447.568C544.563 484.261 571.748 536.846 581.131 600.422C586.261 635.187 580.365 662.861 566.832 684.689C553.305 706.508 532.186 722.423 506.974 733.748C456.571 756.39 389.663 760.755 333.762 757.191C298.577 754.949 245.312 746.782 200.045 726.387C154.788 705.995 117.36 673.294 114.239 621.921C111.356 574.469 131.125 516.526 170.602 470.449Z" fill="black"/>
<path d="M315.232 587.167C311.981 623.793 281.6 653.099 244.89 653.099C208.18 653.099 179.711 623.937 179.711 587.167C179.711 550.397 206.865 561.932 244.89 529.942C286.415 495.008 318.482 550.541 315.232 587.167Z" fill="#3B3B3B"/>
<path d="M394.941 596.06C398.196 632.615 423.809 661.865 460.57 661.865C497.331 661.865 521.603 632.759 521.603 596.06C521.603 556.208 490.38 573.67 460.57 545.102C413.112 499.622 391.686 559.506 394.941 596.06Z" fill="#3B3B3B"/>
<path fill-rule="evenodd" clip-rule="evenodd" d="M499.378 508.377C498.72 510.658 496.2 511.966 493.749 511.298C488.421 509.846 480.145 506.612 472.127 501.536C464.131 496.473 455.999 489.327 451.568 479.912C450.536 477.72 451.579 475.198 453.897 474.28C456.215 473.362 458.93 474.396 459.962 476.588C463.409 483.913 469.977 489.893 477.155 494.438C484.311 498.969 491.685 501.825 496.133 503.037C498.583 503.705 500.036 506.095 499.378 508.377Z" fill="#020203"/>
<path fill-rule="evenodd" clip-rule="evenodd" d="M237.395 478.807C230.126 483.151 222.082 486.479 216.431 487.412C213.955 487.82 212.268 490.131 212.663 492.573C213.059 495.015 215.387 496.663 217.864 496.255C225.089 495.062 234.259 491.128 242.056 486.468C246 484.11 249.736 481.483 252.815 478.785C255.821 476.151 258.514 473.18 259.975 470.079C261.036 467.827 260.053 465.167 257.781 464.137C255.508 463.106 252.806 464.096 251.745 466.348C251.064 467.794 249.457 469.784 246.814 472.099C244.244 474.351 240.984 476.662 237.395 478.807Z" fill="#020203"/>
<path d="M378.833 689.231C385.751 694.362 390.982 694.617 393.208 695.372C395.518 698.25 384.428 700.902 378.823 697.205C373.218 693.509 370.728 693.665 353.265 696.11C335.801 698.554 336.383 697.976 323.9 704.204C313.914 709.187 312.059 704.588 313.189 703.576C315.599 701.105 321.851 698.9 325.516 696.025C329.74 692.711 340.384 684.779 348.649 683.622C358.02 682.31 371.696 683.937 378.833 689.231Z" fill="#212121"/>
<path d="M252.894 595.702C218.823 593.257 195.016 583.271 187.372 578.584C183.441 580.622 185.407 588.977 184.096 602.427C192.614 620.157 201.132 647.668 250.274 644C289.587 641.065 307.278 610.579 311.209 595.702C305.967 596.721 286.966 598.148 252.894 595.702Z" fill="#676767"/>
<path d="M459.536 606.93C427.182 611.254 405.613 602.425 398.873 597.469C398.873 607.605 412.775 665.718 464.592 661.664C506.045 658.42 518.936 616.615 517.04 596.118C513.46 597.92 491.89 602.605 459.536 606.93Z" fill="#676767"/>
<path d="M409.879 549.949C405.715 555.159 403.728 567.75 403.255 573.395C406.094 576.651 405.621 569.487 407.513 561.672C409.406 553.856 415.084 543.436 409.879 549.949Z" fill="#D9D9D9"/>
<path d="M670.543 543.534C667.975 603.677 655.777 641.358 648.715 661.866H670.543C691.73 653.918 694.298 563.351 691.73 556.094C682.485 545.517 673.753 543.313 670.543 543.534Z" fill="#D7D7D7"/>
<path d="M670.631 546.508C678.082 546.508 687.928 553.282 691.92 556.669C694.049 553.321 690.146 544.515 689.259 540.53C686.066 532.88 676.397 530.569 670.631 530.369V546.508Z" fill="white"/>
<path fill-rule="evenodd" clip-rule="evenodd" d="M333.212 765.917C260.095 761.26 111.931 732.002 105.482 625.952C99.5074 527.707 187.438 385.723 345.304 385.723C476.972 385.723 570.348 471.855 589.83 603.745C611.1 747.748 449.429 773.318 333.212 765.917ZM333.937 756.953C264.292 752.516 123.165 724.642 117.022 623.608C111.331 530.009 195.086 394.742 345.454 394.742C470.869 394.742 559.81 476.8 578.367 602.452C598.627 739.643 444.634 764.004 333.937 756.953Z" fill="#F5F4EF"/>
<path fill-rule="evenodd" clip-rule="evenodd" d="M164.482 468.939C205.82 421.198 267.831 385.723 347.476 385.723C413.874 385.723 470.649 407.234 513.284 445.239C555.916 483.243 584.372 537.708 594.194 603.559C599.564 639.565 593.393 668.226 579.229 690.83C565.072 713.426 542.969 729.908 516.58 741.637C463.821 765.089 393.785 769.61 335.266 765.919C298.435 763.596 242.678 755.137 195.295 734.012C147.921 712.891 108.752 679.024 105.485 625.824C102.467 576.677 123.159 516.663 164.482 468.939ZM165.462 469.776C124.326 517.283 103.78 576.978 106.774 625.746C109.998 678.239 148.626 711.798 195.823 732.841C243.011 753.879 298.598 762.32 335.348 764.638C393.785 768.324 463.575 763.792 516.053 740.465C542.282 728.806 564.15 712.469 578.133 690.152C592.11 667.844 598.249 639.5 592.916 603.747C583.133 538.153 554.801 483.974 512.421 446.195C470.043 408.418 413.582 387.007 347.476 387.007C268.251 387.007 206.583 422.285 165.462 469.776ZM173.301 474.001C212.68 428.513 271.755 394.711 347.627 394.711C410.878 394.711 464.965 415.206 505.581 451.42C546.194 487.631 573.302 539.527 582.658 602.27C587.774 636.579 581.895 663.892 568.4 685.434C554.911 706.967 533.852 722.673 508.712 733.849C458.453 756.194 391.736 760.502 335.995 756.985C300.911 754.772 247.798 746.713 202.661 726.585C157.533 706.461 120.211 674.188 117.098 623.488C114.223 576.657 133.936 519.473 173.301 474.001ZM174.28 474.839C135.103 520.094 115.536 576.958 118.388 623.41C121.457 673.404 158.238 705.368 203.19 725.413C248.132 745.454 301.074 753.496 336.077 755.704C391.737 759.215 458.206 754.897 508.185 732.677C533.165 721.571 553.988 706.01 567.303 684.755C580.612 663.51 586.458 636.514 581.38 602.458C572.062 539.972 545.079 488.362 504.718 452.376C464.359 416.391 410.587 395.995 347.627 395.995C272.175 395.995 213.444 429.6 174.28 474.839Z" fill="black"/>
<path d="M192.86 940.399C192.86 878.523 225.703 811.074 241.076 788.978C233.299 809.774 204.949 876.712 200.638 915.054C197.189 945.728 202.604 986.107 206.836 994.989C200.638 987.191 192.86 964.445 192.86 940.399Z" fill="url(#paint2_linear_2268_527)"/>
<path d="M495.201 933.095C492.079 866.053 469.594 819.249 455.853 797.745C462.804 817.984 484.397 871.112 488.25 908.428C491.333 938.281 486.493 977.579 482.71 986.223C488.25 978.633 496.29 956.471 495.201 933.095Z" fill="url(#paint3_linear_2268_527)"/>
<path d="M280.664 1145.29C279.801 1149.2 283.18 1154.84 284.977 1157.17C288.429 1157.17 289.291 1152.98 289.291 1150.88C286.775 1147.39 281.526 1141.38 280.664 1145.29Z" fill="white"/>
<path d="M447.513 1131.71C448.268 1134.61 451.642 1137.8 453.235 1139.03C454.942 1138.29 454.102 1135.19 453.469 1133.73C451.169 1131.85 446.758 1128.8 447.513 1131.71Z" fill="white"/>
<path d="M235.808 1145.86C238.711 1148.34 233.792 1157.23 230.969 1161.37C230.152 1162.61 221.896 1157.03 220.081 1155.79C218.266 1154.54 218.871 1148.96 224.315 1146.48C229.759 1144 232.179 1142.75 235.808 1145.86Z" fill="white"/>
<path d="M407.679 1156.42C411.544 1157.55 405.536 1162.63 404.491 1167.77C404.207 1169.3 393.827 1167.49 391.54 1167.08C389.253 1166.67 387.531 1161.09 391.822 1156.42C396.113 1151.74 402.848 1155 407.679 1156.42Z" fill="white"/>
<path d="M207.073 1124.46C197.795 1090.73 224.241 1043.45 238.072 1027.87C233.048 1040.05 254.306 1076.56 247.627 1102.92C242.283 1124 214.524 1126.55 207.073 1124.46Z" fill="#D9D9D9" fill-opacity="0.34"/>
<path d="M234.641 1060.74C233.202 1070.54 230.942 1090.39 233.408 1091.37C236.491 1092.59 238.341 1071.76 234.641 1060.74Z" fill="#FBF9F7"/>
<path d="M455.491 1056.35C457.246 1046.79 452.201 1040.82 449.46 1039.02C449.277 1038.62 448.582 1038.54 447.266 1041.41C445.95 1044.28 452.201 1052.57 455.491 1056.35Z" fill="white"/>
<path d="M122.275 381.979C133.074 335.444 171.771 300.798 189.769 289.292C196.197 297.602 204.554 296.323 214.839 302.076C223.067 306.679 232.837 325.301 236.694 334.037C222.81 348.867 195.34 404.99 183.341 431.198L133.845 473.387C125.489 462.307 111.476 428.514 122.275 381.979Z" fill="#FFFFFD"/>
<path d="M472.622 254.567C464.341 241.566 472.191 240.916 477.151 242.216C480.386 240.049 494.619 239.486 525.675 254.567C564.494 273.418 599.431 318.27 613.665 350.121C625.052 375.602 611.508 393.24 603.313 398.873C591.408 387.433 562.553 372.872 549.613 367.022L504.324 318.27C498.501 293.568 482.974 270.817 472.622 254.567Z" fill="#FEFEFE" fill-opacity="0.8"/>
<path d="M252.327 852.33C247.832 860.137 245.876 885.946 245.46 897.874C247.457 905.161 264.604 913.055 272.928 916.092C273.969 909.368 277.548 891.367 283.541 873.15C289.534 854.932 274.385 838.666 266.061 832.811C263.356 836.064 256.822 844.522 252.327 852.33Z" fill="#FEFFFA"/>
<path fill-rule="evenodd" clip-rule="evenodd" d="M402.421 852.599L390.075 852.494C390.075 852.494 389.224 852.487 388.917 853.217L381.913 873.532L375.261 853.101C374.965 852.368 374.11 852.36 374.11 852.36L350.375 852.158C350.126 852.158 349.886 852.253 349.708 852.423C349.53 852.592 349.427 852.823 349.422 853.066L349.363 859.984C349.41 854.497 343.436 852.099 339.925 852.07C332.065 852.003 326.762 857.001 325.058 864.657C325.012 859.568 324.594 857.741 323.203 855.863C322.563 854.942 321.637 854.167 320.627 853.521C318.542 852.308 316.664 851.872 312.625 851.837L307.88 851.797C307.88 851.797 307.023 851.79 306.715 852.518L302.309 862.904L302.396 852.666C302.395 852.424 302.298 852.192 302.124 852.019C301.95 851.847 301.714 851.747 301.466 851.743L290.486 851.649C290.486 851.649 289.639 851.642 289.323 852.37L284.745 863.169C284.745 863.169 284.287 864.249 285.31 864.257L289.531 864.293L289.355 884.943C289.351 885.455 289.761 885.867 290.289 885.871L301.171 885.964C301.295 885.964 301.418 885.941 301.532 885.896C301.647 885.851 301.752 885.784 301.84 885.699C301.928 885.614 301.998 885.513 302.046 885.402C302.094 885.291 302.12 885.172 302.12 885.051L302.296 864.402L306.539 864.438C308.973 864.459 309.486 864.528 310.43 864.966C310.999 865.182 311.509 865.61 311.786 866.102C312.352 867.159 312.484 868.424 312.452 872.151L312.342 885.138C312.338 885.651 312.757 886.062 313.28 886.067L323.709 886.155C323.709 886.155 324.888 886.165 325.363 885.032L327.722 879.487C330.76 883.708 335.797 886.256 342.085 886.31L343.459 886.321C343.459 886.321 344.645 886.331 345.124 885.202L349.233 875.523L349.148 885.451C349.146 885.695 349.244 885.93 349.42 886.104C349.595 886.278 349.835 886.377 350.086 886.38L360.732 886.47C360.732 886.47 361.907 886.48 362.388 885.347C362.388 885.347 366.733 875.086 366.751 875.008L366.758 875.008C366.929 874.152 365.818 874.143 365.818 874.143L362.018 874.11L362.168 856.438L373.879 885.446C374.335 886.584 375.512 886.594 375.512 886.594L388.091 886.701C388.091 886.701 389.274 886.711 389.751 885.581L403.279 853.717C403.746 852.612 402.419 852.601 402.419 852.601L402.421 852.599ZM349.242 874.004L342.09 873.943C340.721 873.931 339.412 873.39 338.452 872.439C337.492 871.488 336.959 870.205 336.97 868.872C336.981 867.539 337.536 866.265 338.512 865.33C339.489 864.396 340.806 863.877 342.176 863.889L344.176 863.906C345.544 863.921 346.849 864.464 347.807 865.415C348.765 866.366 349.297 867.648 349.286 868.98L349.242 874.004Z" fill="#C30000" fill-opacity="0.6"/>
<path d="M201.695 561.58C195.367 563.162 190.929 566.853 191.148 568.831C195.762 568.172 199.19 567.381 204.99 569.49C239.265 553.671 249.152 541.806 249.152 534.556C232.014 550.375 209.604 559.603 201.695 561.58Z" fill="#D9D9D9"/>
<path d="M360.247 905.878C366.38 912.541 374.799 919.581 394.113 920.38L375.218 942.326C360.135 933.198 346.566 923.808 344.813 912.521C342.853 899.906 350.647 895.449 360.247 905.878Z" fill="#F5F4EF" stroke="#83827E"/>
<path d="M374.997 927.736C391.532 913.07 439.623 927.08 450.801 933.992C461.98 940.904 502.862 980.209 503.671 995.29C504.48 1010.37 429.227 953.162 402.117 986.637C397.112 992.818 394.763 998.589 380.996 994.868C369.983 991.892 376.001 994.25 370.376 991.771L365.275 989.559C359.524 987.618 347.685 981.37 346.333 971.901C344.644 960.065 354.329 946.069 374.997 927.736Z" fill="#F5F4EF" stroke="black"/>
<path d="M381.854 929.199C381.176 929.41 380.365 929.761 379.442 930.262C376.775 932.272 372.014 937.434 364.616 948.766C353.796 965.342 351.528 978.876 352.091 982.78C348.318 980.084 347.204 975.161 356.699 956.988C364.921 941.248 374.064 933.185 379.442 930.262C380.676 929.332 381.462 929.077 381.854 929.199Z" fill="#83827E"/>
<path d="M365.68 986.484C360.998 983.817 378.803 954.56 388.487 941.481C378.891 950.723 361.03 980.876 363.119 986.244C365.207 991.611 371.636 993.011 381.644 996.537C389.65 999.358 395.731 994.612 397.771 991.887C385.275 1000.26 371.533 989.819 365.68 986.484Z" fill="#83827E"/>
<path d="M453.612 969.936L443.208 947.672C440.028 947.291 430.863 947.579 419.637 951.781C408.412 955.983 399.786 967.983 396.877 973.458C411.955 966.234 442.453 965.891 453.612 969.936Z" fill="white"/>
<path d="M331.305 904.68C324.642 910.813 315.669 917.132 296.356 916.332L313.372 939.765C329.158 931.915 344.078 930.262 344.786 913.18C345.195 903.301 341.735 895.08 331.305 904.68Z" fill="#F5F4EF" stroke="#83827E"/>
<path d="M314.798 925.243C299.533 909.26 250.448 919.245 238.736 925.209C227.024 931.173 183.032 966.964 180.979 981.927C178.927 996.889 258.651 946.098 282.901 981.7C287.378 988.273 289.242 994.219 303.269 991.649C314.49 989.594 308.298 991.446 314.109 989.441L319.375 987.658C325.267 986.2 337.583 980.952 339.712 971.627C342.375 959.971 333.879 945.223 314.798 925.243Z" fill="#F5F4EF" stroke="black"/>
<path d="M307.844 926.134C308.502 926.401 309.282 926.817 310.16 927.393C312.652 929.616 316.969 935.155 323.405 947.06C332.818 964.473 333.959 978.149 333.074 981.993C337.058 979.618 338.574 974.804 330.615 955.908C323.723 939.542 315.277 930.751 310.16 927.393C309.006 926.364 308.244 926.045 307.844 926.134Z" fill="#83827E"/>
<path d="M319.226 984.561C324.113 982.289 308.788 951.66 300.218 937.826C309.016 947.829 324.323 979.356 321.798 984.532C319.273 989.709 312.751 990.572 302.486 993.259C294.273 995.408 288.606 990.176 286.798 987.292C298.559 996.669 313.117 987.4 319.226 984.561Z" fill="#83827E"/>
<path d="M232.963 960.798L245.173 939.471C248.373 939.354 257.483 940.399 268.323 945.515C279.162 950.631 286.766 963.303 289.213 969C274.783 960.554 244.418 957.69 232.963 960.798Z" fill="white"/>
<g filter="url(#filter6_d_2268_527)">
<path d="M431.707 927.675L435.644 922.932C435.644 922.932 483.524 966.764 489.322 989.148C496.326 995.084 479.881 998.006 478.509 992.284C475.95 981.617 467.443 973.829 451.282 952.129C439.496 936.304 451.661 946.51 431.707 927.675Z" fill="#191613" fill-opacity="0.7" shape-rendering="crispEdges"/>
</g>
<g filter="url(#filter7_d_2268_527)">
<path d="M258.287 920.493L254.757 915.441C254.757 915.441 203.416 955.163 195.787 976.991C188.317 982.328 204.463 986.6 206.304 981.011C209.736 970.592 218.858 963.534 236.758 943.245C249.812 928.448 236.844 937.614 258.287 920.493Z" fill="#191613" fill-opacity="0.7" shape-rendering="crispEdges"/>
</g>
<path d="M552.02 960.125C588.742 924.876 563.47 839.486 561.621 822.545C542.114 831.633 542.286 827.482 515.884 843.741C499.637 853.746 479.675 868.544 461.659 885.647C447.627 898.967 434.265 916.149 435.127 921.877C435.989 927.606 458.051 944.877 467.687 960.837C475.396 973.606 487.835 987.669 493.09 993.105C497.432 996.798 515.298 995.373 552.02 960.125Z" fill="#F5F4EF" stroke="black"/>
<path d="M135.703 942.883C102.022 904.719 134.267 821.711 137.51 804.981C156.2 815.651 156.372 811.5 181.338 829.886C196.702 841.2 215.373 857.598 231.913 876.133C244.795 890.567 256.691 908.795 255.359 914.432C254.026 920.07 230.612 935.458 219.689 950.567C210.95 962.654 197.391 975.641 191.704 980.623C187.072 983.945 169.385 981.048 135.703 942.883Z" fill="#F5F4EF" stroke="black"/>
<path d="M564.408 913.347C555.328 943.59 531.129 964.453 520.164 971.104C514.132 970.618 504.508 965.233 500.45 962.602C521.543 951.186 546.285 920.819 556.019 907.063L564.408 913.347Z" fill="#FEFEFD"/>
<path d="M127.225 895.241C133.773 926.132 156.165 948.924 166.542 956.459C172.594 956.474 182.63 951.903 186.892 949.616C166.815 936.495 144.669 904.187 136.105 889.672L127.225 895.241Z" fill="#FEFEFD"/>
<path d="M528.093 835.67C512.216 841.032 501.784 849.486 496.987 854.56L486.639 864.959C495.107 860.701 498.468 852.915 519.89 842.587C540.882 832.467 553.996 831.464 563.215 831.846L561.649 821.886C543.595 827.735 536.79 832.733 528.093 835.67Z" fill="#5E5C5A" fill-opacity="0.9"/>
<path d="M169.839 820.833C185.218 827.49 194.916 836.778 199.277 842.231L208.73 853.45C200.643 848.506 197.936 840.469 177.442 828.405C157.359 816.584 144.373 814.5 135.153 814.118L137.538 804.322C155.047 811.644 161.415 817.187 169.839 820.833Z" fill="#5E5C5A" fill-opacity="0.9"/>
<path d="M177.605 824.454C170.023 819.112 140.615 808.447 138.251 803.033C139.657 800.327 152.241 764.795 166.325 762.316C180.408 759.837 222.104 753.353 238.042 798.59C229.512 813.409 219.714 834.405 211.934 855.562C209.397 848.704 184.477 829.295 177.605 824.454Z" fill="#F5F4EF" stroke="black"/>
<path d="M487.063 806.923C489.697 813.946 489.572 846.375 489.266 859.658L486.649 852.237C486.891 846.397 487.28 819.341 487.063 806.923Z" fill="#ABA6A2"/>
<path d="M213.105 795.578C209.9 802.359 207.342 834.687 206.549 847.95L209.771 840.771C210.013 834.931 211.862 807.936 213.105 795.578Z" fill="#ABA6A2"/>
<defs>
<filter id="filter0_d_2268_527" x="346.657" y="1030.05" width="148.263" height="152.646" filterUnits="userSpaceOnUse" color-interpolation-filters="sRGB">
<feFlood flood-opacity="0" result="BackgroundImageFix"/>
<feColorMatrix in="SourceAlpha" type="matrix" values="0 0 0 0 0 0 0 0 0 0 0 0 0 0 0 0 0 0 127 0" result="hardAlpha"/>
<feOffset dy="4"/>
<feGaussianBlur stdDeviation="2"/>
<feComposite in2="hardAlpha" operator="out"/>
<feColorMatrix type="matrix" values="0 0 0 0 0 0 0 0 0 0 0 0 0 0 0 0 0 0 0.25 0"/>
<feBlend mode="normal" in2="BackgroundImageFix" result="effect1_dropShadow_2268_527"/>
<feBlend mode="normal" in="SourceGraphic" in2="effect1_dropShadow_2268_527" result="shape"/>
</filter>
<filter id="filter1_d_2268_527" x="346.657" y="1025.67" width="148.263" height="157.029" filterUnits="userSpaceOnUse" color-interpolation-filters="sRGB">
<feFlood flood-opacity="0" result="BackgroundImageFix"/>
<feColorMatrix in="SourceAlpha" type="matrix" values="0 0 0 0 0 0 0 0 0 0 0 0 0 0 0 0 0 0 127 0" result="hardAlpha"/>
<feOffset dy="4"/>
<feGaussianBlur stdDeviation="2"/>
<feComposite in2="hardAlpha" operator="out"/>
<feColorMatrix type="matrix" values="0 0 0 0 0 0 0 0 0 0 0 0 0 0 0 0 0 0 0.25 0"/>
<feBlend mode="normal" in2="BackgroundImageFix" result="effect1_dropShadow_2268_527"/>
<feBlend mode="normal" in="SourceGraphic" in2="effect1_dropShadow_2268_527" result="shape"/>
</filter>
<filter id="filter2_d_2268_527" x="197.627" y="1030.05" width="143.88" height="152.646" filterUnits="userSpaceOnUse" color-interpolation-filters="sRGB">
<feFlood flood-opacity="0" result="BackgroundImageFix"/>
<feColorMatrix in="SourceAlpha" type="matrix" values="0 0 0 0 0 0 0 0 0 0 0 0 0 0 0 0 0 0 127 0" result="hardAlpha"/>
<feOffset dy="4"/>
<feGaussianBlur stdDeviation="2"/>
<feComposite in2="hardAlpha" operator="out"/>
<feColorMatrix type="matrix" values="0 0 0 0 0 0 0 0 0 0 0 0 0 0 0 0 0 0 0.25 0"/>
<feBlend mode="normal" in2="BackgroundImageFix" result="effect1_dropShadow_2268_527"/>
<feBlend mode="normal" in="SourceGraphic" in2="effect1_dropShadow_2268_527" result="shape"/>
</filter>
<filter id="filter3_d_2268_527" x="197.627" y="1025.67" width="143.88" height="157.029" filterUnits="userSpaceOnUse" color-interpolation-filters="sRGB">
<feFlood flood-opacity="0" result="BackgroundImageFix"/>
<feColorMatrix in="SourceAlpha" type="matrix" values="0 0 0 0 0 0 0 0 0 0 0 0 0 0 0 0 0 0 127 0" result="hardAlpha"/>
<feOffset dy="4"/>
<feGaussianBlur stdDeviation="2"/>
<feComposite in2="hardAlpha" operator="out"/>
<feColorMatrix type="matrix" values="0 0 0 0 0 0 0 0 0 0 0 0 0 0 0 0 0 0 0.25 0"/>
<feBlend mode="normal" in2="BackgroundImageFix" result="effect1_dropShadow_2268_527"/>
<feBlend mode="normal" in="SourceGraphic" in2="effect1_dropShadow_2268_527" result="shape"/>
</filter>
<filter id="filter4_i_2268_527" x="192.467" y="781.594" width="302.441" height="270.376" filterUnits="userSpaceOnUse" color-interpolation-filters="sRGB">
<feFlood flood-opacity="0" result="BackgroundImageFix"/>
<feBlend mode="normal" in="SourceGraphic" in2="BackgroundImageFix" result="shape"/>
<feColorMatrix in="SourceAlpha" type="matrix" values="0 0 0 0 0 0 0 0 0 0 0 0 0 0 0 0 0 0 127 0" result="hardAlpha"/>
<feOffset dy="-3"/>
<feGaussianBlur stdDeviation="2"/>
<feComposite in2="hardAlpha" operator="arithmetic" k2="-1" k3="1"/>
<feColorMatrix type="matrix" values="0 0 0 0 0 0 0 0 0 0 0 0 0 0 0 0 0 0 0.25 0"/>
<feBlend mode="normal" in2="shape" result="effect1_innerShadow_2268_527"/>
</filter>
<filter id="filter5_i_2268_527" x="192.86" y="781.594" width="306.825" height="270.376" filterUnits="userSpaceOnUse" color-interpolation-filters="sRGB">
<feFlood flood-opacity="0" result="BackgroundImageFix"/>
<feBlend mode="normal" in="SourceGraphic" in2="BackgroundImageFix" result="shape"/>
<feColorMatrix in="SourceAlpha" type="matrix" values="0 0 0 0 0 0 0 0 0 0 0 0 0 0 0 0 0 0 127 0" result="hardAlpha"/>
<feOffset dy="-3"/>
<feGaussianBlur stdDeviation="2"/>
<feComposite in2="hardAlpha" operator="arithmetic" k2="-1" k3="1"/>
<feColorMatrix type="matrix" values="0 0 0 0 0 0 0 0 0 0 0 0 0 0 0 0 0 0 0.25 0"/>
<feBlend mode="normal" in2="shape" result="effect1_innerShadow_2268_527"/>
</filter>
<filter id="filter6_d_2268_527" x="428.708" y="921.932" width="63.3438" height="76.439" filterUnits="userSpaceOnUse" color-interpolation-filters="sRGB">
<feFlood flood-opacity="0" result="BackgroundImageFix"/>
<feColorMatrix in="SourceAlpha" type="matrix" values="0 0 0 0 0 0 0 0 0 0 0 0 0 0 0 0 0 0 127 0" result="hardAlpha"/>
<feOffset dx="-1" dy="1"/>
<feGaussianBlur stdDeviation="1"/>
<feComposite in2="hardAlpha" operator="out"/>
<feColorMatrix type="matrix" values="0 0 0 0 0 0 0 0 0 0 0 0 0 0 0 0 0 0 0.25 0"/>
<feBlend mode="normal" in2="BackgroundImageFix" result="effect1_dropShadow_2268_527"/>
<feBlend mode="normal" in="SourceGraphic" in2="effect1_dropShadow_2268_527" result="shape"/>
</filter>
<filter id="filter7_d_2268_527" x="190.826" y="914.441" width="68.4618" height="72.1975" filterUnits="userSpaceOnUse" color-interpolation-filters="sRGB">
<feFlood flood-opacity="0" result="BackgroundImageFix"/>
<feColorMatrix in="SourceAlpha" type="matrix" values="0 0 0 0 0 0 0 0 0 0 0 0 0 0 0 0 0 0 127 0" result="hardAlpha"/>
<feOffset dx="-1" dy="1"/>
<feGaussianBlur stdDeviation="1"/>
<feComposite in2="hardAlpha" operator="out"/>
<feColorMatrix type="matrix" values="0 0 0 0 0 0 0 0 0 0 0 0 0 0 0 0 0 0 0.25 0"/>
<feBlend mode="normal" in2="BackgroundImageFix" result="effect1_dropShadow_2268_527"/>
<feBlend mode="normal" in="SourceGraphic" in2="effect1_dropShadow_2268_527" result="shape"/>
</filter>
<linearGradient id="paint0_linear_2268_527" x1="268.487" y1="1086.63" x2="293.258" y2="1048.02" gradientUnits="userSpaceOnUse">
<stop stop-color="#E8E7E2" stop-opacity="0"/>
<stop offset="1" stop-color="#171412" stop-opacity="0.6"/>
</linearGradient>
<linearGradient id="paint1_linear_2268_527" x1="388.987" y1="1092.66" x2="406.487" y2="1011.99" gradientUnits="userSpaceOnUse">
<stop stop-color="#9E9C98" stop-opacity="0"/>
<stop offset="1" stop-color="#383736"/>
</linearGradient>
<linearGradient id="paint2_linear_2268_527" x1="204.74" y1="957.946" x2="210.18" y2="736.967" gradientUnits="userSpaceOnUse">
<stop stop-color="#D9D9D9" stop-opacity="0.2"/>
<stop offset="1" stop-color="#737373"/>
</linearGradient>
<linearGradient id="paint3_linear_2268_527" x1="484.584" y1="950.172" x2="478.819" y2="735.134" gradientUnits="userSpaceOnUse">
<stop stop-color="#D9D9D9" stop-opacity="0.4"/>
<stop offset="1"/>
</linearGradient>
</defs>
</svg>
