<svg width="247" height="45" viewBox="0 0 247 45" fill="none" xmlns="http://www.w3.org/2000/svg">
<path d="M0 44.2426V3.09257H9.74785L20.3186 23.352C21.0781 24.7405 21.7744 26.2342 22.4074 27.8331C23.0826 29.3899 23.7366 30.9888 24.3696 32.6297H24.6228C24.4118 30.3997 24.1586 27.9593 23.8632 25.3086C23.5678 22.6578 23.4202 20.1122 23.4202 17.6718V3.09257H32.3451V44.2426H22.5973L12.0266 23.9832C11.3092 22.5947 10.5918 21.101 9.87444 19.5021C9.19927 17.9032 8.54519 16.3043 7.91221 14.7055H7.65902C7.91221 16.9776 8.1865 19.439 8.48189 22.0898C8.77728 24.6985 8.92498 27.223 8.92498 29.6634V44.2426H0Z" fill="#9A185F"/>
<path d="M43.3614 44.2426V3.09257H52.6662V19.9439H52.9194L65.1991 3.09257H75.4533L62.9837 19.5021L77.732 44.2426H67.5411L57.4768 26.8864L52.6662 33.1978V44.2426H43.3614Z" fill="#9A185F"/>
<path d="M94.8684 45C92.1255 45 89.4248 44.5161 86.7663 43.5484C84.1078 42.5386 81.7236 41.0238 79.6137 39.0042L84.5509 32.9453C86.0278 34.2076 87.6947 35.1963 89.5514 35.9116C91.4503 36.6269 93.3071 36.9846 95.1216 36.9846C97.0627 36.9846 98.4975 36.6269 99.4259 35.9116C100.396 35.1963 100.882 34.2286 100.882 33.0084C100.882 32.1248 100.629 31.4306 100.122 30.9257C99.6579 30.3787 98.9828 29.8948 98.0966 29.4741C97.2104 29.0533 96.1555 28.5905 94.9317 28.0856L89.5514 25.8766C88.1589 25.2454 86.8085 24.446 85.5004 23.4783C84.2344 22.4684 83.2005 21.2482 82.3988 19.8177C81.6392 18.345 81.2594 16.5989 81.2594 14.5792C81.2594 12.3072 81.8713 10.2665 83.095 8.45722C84.361 6.60589 86.0911 5.13324 88.2855 4.03927C90.522 2.90323 93.075 2.3352 95.9445 2.3352C98.4342 2.3352 100.84 2.777 103.16 3.66059C105.481 4.54418 107.507 5.82749 109.237 7.51052L104.3 13.5063C102.949 12.4965 101.557 11.7181 100.122 11.1711C98.7296 10.6241 97.337 10.3506 95.9445 10.3506C94.3409 10.3506 93.0539 10.6872 92.0833 11.3604C91.155 11.9916 90.6908 12.8962 90.6908 14.0743C90.6908 14.8738 90.9651 15.568 91.5136 16.1571C92.0622 16.7041 92.8218 17.1879 93.7924 17.6087C94.7629 17.9874 95.8179 18.4292 96.9572 18.9341L102.274 21.0799C103.962 21.7532 105.397 22.5947 106.578 23.6045C107.802 24.6143 108.752 25.8345 109.427 27.2651C110.102 28.6536 110.44 30.3156 110.44 32.2511C110.44 34.5231 109.828 36.6269 108.604 38.5624C107.38 40.4979 105.608 42.0547 103.287 43.2328C100.966 44.4109 98.1599 45 94.8684 45Z" fill="#9A185F"/>
<path d="M117.671 31.5568V24.993H133.242V31.5568H117.671Z" fill="#9A185F"/>
<path d="M142.106 44.2426V3.09257H156.221C159.091 3.09257 161.665 3.40814 163.944 4.03927C166.264 4.62833 168.079 5.68022 169.387 7.19495C170.737 8.6676 171.413 10.7083 171.413 13.317C171.413 15.3787 170.948 17.23 170.02 18.871C169.092 20.4698 167.762 21.5849 166.032 22.216V22.4684C168.353 22.9734 170.168 23.9832 171.476 25.4979C172.784 26.9705 173.438 29.0323 173.438 31.683C173.438 34.5863 172.721 36.9635 171.286 38.8149C169.851 40.6662 167.91 42.0337 165.463 42.9172C163.057 43.8008 160.378 44.2426 157.424 44.2426H142.106ZM151.411 19.5652H155.778C158.057 19.5652 159.703 19.1234 160.715 18.2398C161.77 17.3562 162.298 16.1781 162.298 14.7055C162.298 13.1066 161.77 11.9705 160.715 11.2973C159.66 10.6241 158.036 10.2875 155.841 10.2875H151.411V19.5652ZM151.411 37.0477H156.664C159.196 37.0477 161.095 36.6059 162.361 35.7223C163.669 34.7966 164.323 33.3871 164.323 31.4937C164.323 29.7265 163.669 28.4432 162.361 27.6438C161.095 26.8443 159.196 26.4446 156.664 26.4446H151.411V37.0477Z" fill="#9A185F"/>
<path d="M194.419 45C191.761 45 189.271 44.3689 186.95 43.1066C184.629 41.8022 182.73 39.9299 181.253 37.4895C179.819 35.007 179.101 32.0407 179.101 28.5905C179.101 25.1403 179.819 22.1949 181.253 19.7546C182.73 17.2721 184.629 15.3997 186.95 14.1374C189.271 12.8331 191.761 12.1809 194.419 12.1809C197.036 12.1809 199.504 12.8331 201.825 14.1374C204.146 15.3997 206.024 17.2721 207.459 19.7546C208.936 22.1949 209.674 25.1403 209.674 28.5905C209.674 32.0407 208.936 35.007 207.459 37.4895C206.024 39.9299 204.146 41.8022 201.825 43.1066C199.504 44.3689 197.036 45 194.419 45ZM194.419 37.4895C195.685 37.4895 196.74 37.1318 197.584 36.4165C198.47 35.7013 199.125 34.6704 199.547 33.324C199.968 31.9776 200.179 30.3997 200.179 28.5905C200.179 26.7812 199.968 25.2034 199.547 23.8569C199.125 22.5105 198.47 21.4797 197.584 20.7644C196.74 20.0491 195.685 19.6914 194.419 19.6914C193.111 19.6914 192.035 20.0491 191.191 20.7644C190.347 21.4797 189.714 22.5105 189.292 23.8569C188.87 25.2034 188.659 26.7812 188.659 28.5905C188.659 30.3997 188.87 31.9776 189.292 33.324C189.714 34.6704 190.347 35.7013 191.191 36.4165C192.035 37.1318 193.111 37.4895 194.419 37.4895Z" fill="#9A185F"/>
<path d="M233.771 45C232.378 45 230.986 44.6634 229.593 43.9902C228.201 43.2749 226.871 42.244 225.605 40.8976H225.352L224.593 44.2426H217.313V0H226.618V10.8555L226.365 15.6522C227.547 14.5582 228.855 13.7167 230.289 13.1276C231.724 12.4965 233.18 12.1809 234.657 12.1809C237.189 12.1809 239.383 12.8331 241.24 14.1374C243.097 15.4418 244.51 17.2931 245.481 19.6914C246.494 22.0477 247 24.8247 247 28.0224C247 31.5989 246.367 34.6704 245.101 37.237C243.835 39.7616 242.189 41.6971 240.164 43.0435C238.181 44.3478 236.049 45 233.771 45ZM231.619 37.4264C232.674 37.4264 233.644 37.1108 234.53 36.4797C235.459 35.8485 236.176 34.8597 236.682 33.5133C237.189 32.1248 237.442 30.3576 237.442 28.2118C237.442 26.3184 237.231 24.7616 236.809 23.5414C236.429 22.2791 235.839 21.3324 235.037 20.7013C234.235 20.0701 233.222 19.7546 231.998 19.7546C231.07 19.7546 230.163 19.986 229.277 20.4488C228.433 20.8696 227.546 21.5849 226.618 22.5947V35.4067C227.42 36.122 228.264 36.648 229.15 36.9846C230.036 37.2791 230.859 37.4264 231.619 37.4264Z" fill="#9A185F"/>
</svg>
