<svg width="557" height="374" viewBox="0 0 557 374" fill="none" xmlns="http://www.w3.org/2000/svg">
<path d="M84.7 362.397C59.3856 364.604 49.487 359.313 47.702 356.392C70.9069 353.416 183.199 347.302 213.706 355.093C244.213 362.883 134.232 368.707 123.483 371.973C110.664 375.869 87.7832 374.895 84.7 362.397Z" fill="#F3DDE5"/>
<path d="M58.0004 334.607C55.6143 324.106 58.875 313.923 62.2949 309.787C71.3616 315.276 83.053 319.333 96.6531 318.617C97.8461 322.435 99.5163 334.607 97.8461 348.21C89.9723 352.506 85.6776 343.676 78.5196 339.38C61.2557 329.019 57.4823 331.743 58.0004 334.607Z" fill="#F5F4EF"/>
<path d="M62.3788 309.648C71.4231 315.123 83.0827 319.169 96.6445 318.455L96.7703 318.448L96.808 318.569C98.0092 322.414 99.6796 334.609 98.0073 348.23L97.9968 348.312L97.9239 348.352C95.927 349.442 94.1448 349.704 92.4824 349.406C90.8251 349.109 89.3024 348.257 87.8171 347.147C86.3334 346.037 84.8708 344.657 83.3439 343.297C81.8129 341.933 80.2118 340.584 78.4361 339.519C69.8069 334.34 64.575 332.449 61.5782 332.196C60.0802 332.07 59.1714 332.355 58.6687 332.808C58.1718 333.256 58.0373 333.899 58.16 334.578L57.8421 334.643C56.6432 329.366 56.863 324.171 57.8117 319.776C58.7597 315.384 60.4386 311.778 62.1699 309.684L62.259 309.575L62.3788 309.648ZM62.3322 309.999C60.6741 312.057 59.0533 315.562 58.129 319.845C57.2604 323.868 57.0097 328.567 57.9125 333.379C58.016 333.079 58.1907 332.802 58.4516 332.567C59.0502 332.027 60.0669 331.742 61.6054 331.872C64.6818 332.132 69.9685 334.059 78.6031 339.241C80.4064 340.323 82.0262 341.689 83.5597 343.055C85.0972 344.424 86.5428 345.789 88.0117 346.887C89.479 347.984 90.9538 348.802 92.5398 349.087C94.101 349.367 95.785 349.131 97.6948 348.106C99.3287 334.694 97.7141 322.699 96.5345 318.785C83.0108 319.468 71.3759 315.447 62.3322 309.999Z" fill="black"/>
<path d="M47.7394 356.324C46.0691 344.392 56.0108 333.334 60.8624 332.459C72.0765 334.368 81.6204 342.244 87.3467 347.494C91.9278 351.694 96.2539 349.562 97.1288 348.21C97.3197 350.119 97.2879 350.676 97.1288 352.267C88.7778 362.291 53.7043 364.677 47.7394 356.324Z" fill="#EFEDE8"/>
<path d="M60.8895 332.299C72.1544 334.217 81.729 342.123 87.4564 347.375C89.7153 349.446 91.897 349.945 93.6114 349.773C94.471 349.687 95.2162 349.431 95.7982 349.117C96.3832 348.8 96.7931 348.43 96.9925 348.122L97.2441 347.733L97.2904 348.194C97.4824 350.115 97.4503 350.683 97.2904 352.283L97.2853 352.333L97.2533 352.371C95.1363 354.912 91.3433 356.953 86.7782 358.459C82.2078 359.966 76.8409 360.945 71.5516 361.349C66.2627 361.752 61.0437 361.581 56.769 360.783C54.6316 360.384 52.7256 359.828 51.1636 359.107C49.6028 358.385 48.3751 357.494 47.6073 356.419L47.5841 356.386L47.5787 356.347C46.7365 350.33 48.8223 344.543 51.7198 340.156C53.1692 337.961 54.8246 336.112 56.4254 334.755C58.0222 333.402 59.5796 332.525 60.8337 332.299L60.8616 332.294L60.8895 332.299ZM60.8632 332.624C59.6957 332.844 58.2023 333.675 56.6352 335.003C55.0597 336.338 53.4242 338.164 51.9905 340.334C49.1283 344.668 47.0814 350.36 47.8947 356.262C48.6199 357.261 49.7842 358.112 51.2996 358.812C52.83 359.519 54.7082 360.069 56.8282 360.464C61.0683 361.255 66.258 361.427 71.5269 361.025C76.7954 360.623 82.1358 359.648 86.6768 358.15C91.2 356.658 94.9074 354.654 96.9722 352.2C97.1145 350.772 97.1486 350.191 97.0042 348.623C96.748 348.893 96.3901 349.166 95.9526 349.402C95.3342 349.736 94.5476 350.005 93.6437 350.096C91.8311 350.278 89.5593 349.743 87.2371 347.614C81.5167 342.369 72.0144 334.533 60.8632 332.624Z" fill="black"/>
<path d="M55.1314 338.863C51.2801 340.023 49.2573 345.629 48.6766 348.422C57.317 358.481 75.5217 353.776 73.9136 349.538C70.9842 341.818 66.1296 339.245 55.1314 338.863Z" fill="#F5F4EF"/>
<path d="M58.6548 338.534C59.8209 338.875 58.0082 340.411 57.693 341.962C57.6074 342.423 54.4755 341.876 53.7855 341.752C53.0954 341.628 52.5759 339.946 53.8706 338.534C55.1652 337.123 57.1973 338.108 58.6548 338.534Z" fill="white"/>
<path d="M60.3859 313.128C61.1015 311.458 61.5787 310.027 63.2489 309.311C64.9191 308.595 94.2669 308.833 95.9371 314.799C97.6072 320.765 99.2774 334.846 98.8002 341.528C94.7441 337.948 86.8703 331.982 82.8141 327.686C78.758 323.39 62.7719 313.128 60.3859 313.128Z" fill="black" fill-opacity="0.3"/>
<path d="M22.4492 297.377C21.113 290.695 27.6188 280.592 31.0387 276.376C34.1405 278.285 41.4416 281.96 45.8318 281.387C44.6865 287.306 47.7406 293.718 49.4107 296.184C48.0587 298.173 44.8297 301.673 42.73 299.764C45.0205 303.964 41.1393 306.446 38.9124 307.162C37.7194 308.594 34.9994 311.076 33.6632 309.548C31.5159 311.458 24.1193 305.73 22.4492 297.377Z" fill="#F5F4EF"/>
<path d="M31.1237 276.237C32.6677 277.188 35.2599 278.579 38.0114 279.661C40.7701 280.746 43.6596 281.507 45.8109 281.227L46.0337 281.197L45.9912 281.418C45.4255 284.342 45.896 287.396 46.7205 290.032C47.5448 292.667 48.7186 294.872 49.545 296.093L49.6068 296.184L49.545 296.275C48.8631 297.278 47.7051 298.667 46.4451 299.567C45.8153 300.017 45.148 300.354 44.493 300.45C44.0289 300.518 43.5735 300.464 43.1483 300.25C43.5188 301.103 43.6403 301.889 43.5746 302.606C43.4947 303.477 43.1398 304.232 42.6434 304.869C41.6673 306.122 40.1349 306.93 39.0069 307.301C38.4017 308.021 37.4264 308.992 36.426 309.603C35.9182 309.914 35.3906 310.139 34.8933 310.183C34.4348 310.223 34.0031 310.106 33.6487 309.767C33.0405 310.204 32.1516 310.157 31.181 309.778C30.1336 309.369 28.9378 308.556 27.7648 307.428C25.4177 305.171 23.1324 301.622 22.29 297.409C21.6108 294.012 22.925 289.774 24.8144 285.881C26.7077 281.98 29.1963 278.389 30.9126 276.273L31.0026 276.163L31.1237 276.237ZM31.0764 276.588C29.3765 278.702 26.9544 282.214 25.1063 286.023C23.2219 289.905 21.9513 294.06 22.6082 297.345C23.436 301.485 25.6842 304.977 27.9898 307.194C29.143 308.303 30.3034 309.087 31.2989 309.476C32.3043 309.868 33.0896 309.841 33.5555 309.427L33.6776 309.318L33.7853 309.442C34.0807 309.779 34.448 309.896 34.8651 309.859C35.2909 309.822 35.7685 309.625 36.2568 309.326C37.2321 308.73 38.1975 307.767 38.7879 307.058L38.818 307.022L38.8626 307.007C39.9576 306.655 41.4518 305.87 42.3873 304.67C42.8531 304.072 43.1781 303.374 43.2513 302.576C43.3244 301.779 43.1474 300.868 42.5876 299.841L42.8393 299.644C43.325 300.085 43.8706 300.213 44.4461 300.129C45.0294 300.043 45.6476 299.738 46.2565 299.303C47.4373 298.46 48.5379 297.159 49.2145 296.182C48.3753 294.92 47.2241 292.73 46.4105 290.129C45.5968 287.527 45.117 284.501 45.6331 281.573C43.4226 281.789 40.5681 281.015 37.8928 279.963C35.1922 278.901 32.6463 277.544 31.0764 276.588Z" fill="black"/>
<path d="M35.0949 304.775C34.1405 304.584 32.1521 303.104 31.2773 302.388C35.8584 303.534 37.4808 301.275 37.7194 300.002C37.799 300.161 37.7194 299.286 36.765 294.513C35.8107 289.74 38.5943 283.137 40.1054 280.433L46.0704 281.149L47.7406 292.365C47.5815 292.206 46.9293 291.745 45.5932 291.172C43.923 290.456 43.923 293.32 43.923 295.945C43.923 298.57 44.6388 301.911 42.73 299.525C45.5932 304.775 39.6282 306.923 38.4352 305.968C37.958 310.025 32.4703 310.98 29.1299 308.355C37.2422 311.219 36.2879 305.014 35.0949 304.775Z" fill="#959595"/>
<path d="M41.6977 290.478C41.5816 291.329 41.6623 293.089 41.9421 294.979C42.2217 296.867 42.6958 298.855 43.3521 300.168C43.3922 300.248 43.3597 300.346 43.2796 300.386C43.1994 300.426 43.1019 300.394 43.0618 300.314C42.3821 298.954 41.9021 296.924 41.621 295.026C41.3402 293.129 41.2535 291.333 41.376 290.434L41.6977 290.478Z" fill="black"/>
<path d="M37.8816 299.286C37.8816 299.753 37.988 301.237 38.1906 302.846C38.3936 304.459 38.6902 306.169 39.0631 307.102L38.7617 307.222C38.3711 306.245 38.0711 304.495 37.8686 302.886C37.6655 301.274 37.557 299.774 37.557 299.286H37.8816Z" fill="black"/>
<path d="M28.8128 280.699C28.4169 283.035 28.0119 287.355 28.2062 291.636C28.3034 293.776 28.5503 295.902 29.0204 297.763C29.4854 299.604 30.1657 301.171 31.123 302.239C35.766 303.147 37.5335 300.607 37.5565 299.546C37.2343 298.484 36.6974 295.888 37.0827 293.768L37.2424 293.797L37.4018 293.826C37.0269 295.889 37.5596 298.453 37.8747 299.477L37.8817 299.5V299.525C37.8817 300.859 35.8379 303.514 31.007 302.548L30.9547 302.537L30.9189 302.498C29.8909 301.372 29.1824 299.73 28.7057 297.843C28.2284 295.954 27.98 293.804 27.8823 291.651C27.6869 287.344 28.0933 283.001 28.4927 280.644L28.8128 280.699Z" fill="black"/>
<path d="M27.9368 293.797C27.5391 295.786 27.3164 300.384 29.6069 302.866C28.4139 299.286 28.414 299.048 27.9368 293.797Z" fill="white"/>
<path d="M34.1404 287.592C33.5041 288.229 32.4702 290.217 33.4246 293.081C34.6176 296.661 33.186 290.217 34.1404 287.592Z" fill="white"/>
<path d="M31.0378 275.66C24.8343 260.625 36.0488 237.953 46.7864 235.327L55.8532 240.578L49.6488 278.762C46.547 282.342 35.5712 278.762 31.0378 275.66Z" fill="#F5F4EF"/>
<path d="M55.9345 240.437L56.0311 240.493L56.0134 240.604L49.809 278.788L49.8014 278.834L49.7713 278.869C48.9554 279.81 47.6369 280.265 46.0822 280.386C44.5242 280.507 42.7024 280.295 40.8445 279.875C37.1296 279.036 33.2325 277.358 30.9462 275.794L30.9062 275.766L30.8879 275.722C27.7634 268.149 29.03 258.674 32.4101 250.776C34.1013 246.824 36.325 243.258 38.8031 240.514C41.2792 237.771 44.02 235.837 46.7477 235.17L46.8111 235.154L55.9345 240.437ZM46.7623 235.501C44.1416 236.161 41.4771 238.036 39.0439 240.731C36.5933 243.446 34.3876 246.98 32.7084 250.904C29.3544 258.741 28.114 268.097 31.1696 275.553C33.4222 277.083 37.2557 278.732 40.9158 279.558C42.756 279.974 44.5432 280.18 46.0571 280.062C47.5543 279.946 48.7584 279.515 49.4962 278.689L55.6749 240.662L46.7623 235.501Z" fill="black"/>
<path d="M46.5467 234.134C44.2561 239.861 50.3642 247.021 53.7046 249.885L66.5889 227.69C61.4193 227.292 50.1733 228.024 46.5467 234.134Z" fill="#F5F4EF"/>
<path d="M55.9529 228.313C59.883 227.412 64.0038 227.328 66.6013 227.528L66.859 227.548L53.747 250.135L53.599 250.008C51.9184 248.567 49.543 246.048 47.8735 243.164C46.2071 240.287 45.2225 237.008 46.3959 234.073L46.4007 234.062L46.407 234.051C48.2554 230.937 52.0298 229.213 55.9529 228.313ZM66.3174 227.834C63.7353 227.661 59.7892 227.766 56.0254 228.63C52.1312 229.523 48.4733 231.216 46.6926 234.205C45.5827 236.996 46.5068 240.156 48.1546 243.002C49.7533 245.762 52.0138 248.191 53.663 249.632L66.3174 227.834Z" fill="black"/>
<path d="M50.8422 298.331C38.2443 282.294 53.7054 242.487 64.6811 226.736C82.3374 224.19 117.566 234.88 126.728 240.99C138.181 248.627 147.475 279.001 146.043 290.934C144.612 302.866 128.148 315.603 108.345 317.424C87.5866 319.333 66.2152 317.901 50.8422 298.331Z" fill="#F5F4EF"/>
<path d="M64.6579 226.575C73.5198 225.298 86.7679 227.341 98.9305 230.46C105.015 232.02 110.835 233.851 115.708 235.675C120.578 237.498 124.512 239.317 126.818 240.855C129.711 242.783 132.454 246.138 134.918 250.254C137.385 254.373 139.58 259.269 141.37 264.296C143.161 269.324 144.549 274.486 145.4 279.141C146.25 283.792 146.565 287.946 146.204 290.953C145.481 296.982 140.968 303.185 134.179 308.102C127.385 313.022 118.29 316.672 108.359 317.586C87.5889 319.496 66.1412 318.07 50.7145 298.432C47.5351 294.384 46.1353 288.849 45.9842 282.598C45.8331 276.344 46.9311 269.356 48.7647 262.385C52.4315 248.443 59.048 234.536 64.5479 226.643L64.5881 226.586L64.6579 226.575ZM98.8497 230.774C86.7252 227.666 73.5678 225.64 64.7736 226.887C59.3057 234.755 52.7276 248.593 49.0785 262.468C47.2496 269.421 46.1583 276.377 46.3085 282.59C46.4586 288.804 47.8504 294.26 50.97 298.231C66.2891 317.733 87.5844 319.171 108.33 317.263C118.203 316.355 127.242 312.725 133.988 307.839C140.74 302.949 145.174 296.818 145.882 290.914C146.237 287.955 145.928 283.837 145.08 279.199C144.233 274.563 142.85 269.418 141.065 264.405C139.279 259.393 137.093 254.517 134.64 250.421C132.186 246.321 129.473 243.015 126.638 241.125C124.364 239.608 120.459 237.8 115.594 235.979C110.733 234.16 104.924 232.332 98.8497 230.774Z" fill="black"/>
<path d="M145.227 251.702C141.649 245.067 125.755 244.723 120.562 255.273C119.426 252.351 118.834 252.312 117.64 246.346C115.97 237.993 120.622 235.974 124.634 234.665C139.223 231.413 148.473 247.644 145.227 251.702Z" fill="#F5F4EF"/>
<path d="M124.599 234.506C131.966 232.865 137.981 236.145 141.74 240.334C143.618 242.428 144.939 244.756 145.585 246.823C145.909 247.856 146.065 248.829 146.035 249.678C146.005 250.526 145.788 251.261 145.354 251.803L145.201 251.995L145.085 251.779C144.213 250.164 142.586 248.92 140.536 248.129C138.486 247.338 136.026 247.005 133.513 247.205C128.484 247.605 123.272 250.134 120.708 255.345L120.545 255.676L120.411 255.332C120.129 254.606 119.88 254.06 119.647 253.553C119.413 253.046 119.193 252.576 118.972 252.01C118.528 250.877 118.079 249.365 117.481 246.378C116.64 242.169 117.385 239.52 118.883 237.759C120.371 236.008 122.578 235.165 124.584 234.511L124.591 234.508L124.599 234.506ZM141.498 240.551C137.797 236.425 131.896 233.216 124.676 234.822C122.672 235.476 120.551 236.297 119.13 237.969C117.716 239.632 116.971 242.17 117.8 246.314C118.395 249.293 118.839 250.784 119.274 251.892C119.491 252.447 119.707 252.908 119.942 253.417C120.139 253.845 120.348 254.306 120.581 254.88C123.262 249.759 128.48 247.28 133.487 246.881C136.043 246.678 138.553 247.015 140.652 247.826C142.657 248.599 144.299 249.809 145.243 251.401C145.529 250.95 145.686 250.362 145.71 249.666C145.739 248.863 145.591 247.928 145.276 246.92C144.645 244.903 143.35 242.615 141.498 240.551Z" fill="black"/>
<path fill-rule="evenodd" clip-rule="evenodd" d="M99.7685 252.193L94.9596 251.218C94.9596 251.218 94.71 251.181 94.578 251.469L91.1547 258.502L90.6895 250.72C90.6447 250.407 90.394 250.371 90.394 250.371L82.6446 249.123C82.5714 249.113 82.4956 249.142 82.4335 249.205C82.3714 249.268 82.3279 249.358 82.3124 249.458L81.6993 251.042C82.0075 249.465 80.063 248.484 78.87 248.525C76.8183 248.597 75.8152 249.926 75.1662 251.859C75.1418 251.14 75.1169 250.424 74.9668 249.743C74.8319 249.34 74.5949 248.846 74.3351 248.541C73.7923 247.961 72.8767 247.796 72.1558 247.662C71.4349 247.527 70.9635 247.703 70.9635 247.703C70.9635 247.703 70.5762 247.817 70.4437 248.103L69.3857 250.385L69.7365 247.691C69.7503 247.592 69.7349 247.493 69.6938 247.415C69.6526 247.338 69.5888 247.288 69.5162 247.276L67.1234 247.12C67.1234 247.12 66.8748 247.084 66.7402 247.371L65.1267 251.489C65.1267 251.489 64.9301 251.914 65.2303 251.958L65.8587 251.94L64.2248 259.875C64.1941 260.085 64.2909 260.27 64.4458 260.292L67.3765 260.56C67.4128 260.565 67.4502 260.56 67.4866 260.546C67.5229 260.532 67.5575 260.509 67.5882 260.478C67.619 260.446 67.6454 260.408 67.666 260.364C67.6865 260.32 67.7008 260.272 67.7079 260.223L68.7448 252.553L69.6987 252.52C70.0879 252.506 70.6525 252.487 70.6905 252.976C70.6774 253.202 70.7287 253.918 70.7106 254.156C70.5468 256.311 70.0873 258.824 69.7508 260.876C69.72 261.086 69.8195 261.272 69.9729 261.294L72.8839 261.722C72.8839 261.722 73.2297 261.773 73.4344 261.326L73.9883 259.158C74.6384 261.01 74.9816 262.125 76.8261 262.395C77.2289 262.454 78.6483 262.715 79.3304 261.736L79.7658 260.527L79.8908 262.288C79.8723 262.414 79.9074 262.765 80.3258 262.896L83.9192 263.248C83.9192 263.248 84.264 263.299 84.4703 262.853C84.4703 262.853 86.1223 259.065 86.1318 259.034L86.134 259.034C86.2333 258.69 85.9075 258.642 85.9075 258.642L84.6987 258.206L85.9125 252.672L87.3535 263.538C87.422 264.023 87.7673 264.073 87.7673 264.073L92.3312 264.87C92.3312 264.87 92.6781 264.92 92.8831 264.476L99.9565 252.685C100.157 252.25 99.7679 252.193 99.7679 252.193L99.7685 252.193ZM80.8587 257.627L78.7126 257.702C78.3109 257.643 77.8584 257.254 77.7339 257.019C77.5064 256.591 77.4622 256.073 77.4456 255.596C77.4311 255.181 77.5058 254.542 77.8727 254.149C78.333 253.655 78.8099 253.639 79.0484 253.63L79.5253 253.614C80.0022 253.597 80.3933 253.641 80.4874 253.819C80.7142 254.247 80.7674 255.003 80.784 255.48L80.8587 257.627Z" fill="#C30000" fill-opacity="0.5"/>
<path d="M97.6079 347.017C94.029 334.607 98.7215 322.754 102.141 318.617C112.64 319.381 124.49 314.958 129.103 312.412C135.307 317.901 140.794 330.311 138.647 356.801C132.682 362.529 128.149 349.642 113.117 344.869C98.0851 340.096 98.3237 342.721 97.6079 347.017Z" fill="#F5F4EF"/>
<path d="M129.21 312.291C135.472 317.831 140.957 330.307 138.809 356.815L138.804 356.876L138.759 356.919C137.999 357.648 137.252 358.091 136.494 358.286C135.735 358.482 134.979 358.425 134.206 358.179C132.672 357.691 131.053 356.445 129.179 354.898C125.416 351.791 120.548 347.399 113.068 345.023C109.313 343.831 106.517 343.103 104.426 342.747C102.33 342.39 100.959 342.41 100.042 342.697C99.1411 342.979 98.6677 343.521 98.3699 344.258C98.0654 345.013 97.9491 345.956 97.768 347.043L97.452 347.062C95.6535 340.825 95.9339 334.731 97.092 329.678C98.2494 324.628 100.286 320.606 102.016 318.513L102.07 318.449L102.153 318.455C107.378 318.835 112.945 317.925 117.786 316.599C122.628 315.273 126.731 313.536 129.025 312.27L129.125 312.215L129.21 312.291ZM129.08 312.609C126.742 313.884 122.664 315.6 117.872 316.912C113.036 318.236 107.464 319.152 102.215 318.784C100.535 320.847 98.5456 324.789 97.4083 329.751C96.3044 334.567 96.0063 340.332 97.5664 346.256C97.6929 345.473 97.8225 344.747 98.0688 344.137C98.3973 343.323 98.9379 342.702 99.9454 342.387C100.937 342.077 102.37 342.068 104.48 342.427C106.594 342.787 109.406 343.52 113.166 344.714C120.717 347.112 125.632 351.549 129.385 354.648C131.269 356.203 132.841 357.404 134.305 357.87C135.03 358.101 135.724 358.149 136.413 357.972C137.09 357.797 137.775 357.402 138.49 356.726C140.613 330.417 135.186 318.081 129.08 312.609Z" fill="black"/>
<path d="M88.7797 365.87C88.7797 349.833 98.4827 344.073 103.334 343.198C113.833 344.153 124.569 350.835 130.296 356.086C134.877 360.286 137.772 358.631 138.647 357.279C138.838 359.188 138.567 362.847 138.408 364.438C130.057 374.462 91.6428 377.087 88.7797 365.87Z" fill="#EFEDE8"/>
<path d="M103.349 343.037C113.896 343.996 124.665 350.702 130.406 355.966C132.677 358.049 134.506 358.657 135.854 358.602C137.202 358.547 138.099 357.827 138.511 357.191L138.762 356.802L138.808 357.263C139.001 359.191 138.728 362.865 138.57 364.454L138.565 364.504L138.533 364.542C136.414 367.085 132.41 369.141 127.581 370.623C122.746 372.108 117.058 373.027 111.543 373.282C106.03 373.536 100.68 373.125 96.5234 371.944C92.3789 370.767 89.3613 368.805 88.6225 365.91L88.6174 365.891V365.87C88.6174 349.752 98.3793 343.927 103.305 343.039L103.327 343.035L103.349 343.037ZM103.342 343.362C98.5594 344.236 88.9504 349.933 88.9419 365.849C89.6432 368.553 92.4973 370.463 96.6121 371.632C100.724 372.8 106.036 373.21 111.528 372.957C117.019 372.704 122.68 371.789 127.486 370.313C132.273 368.843 136.186 366.824 138.251 364.372C138.4 362.869 138.636 359.663 138.518 357.715C137.988 358.317 137.095 358.876 135.868 358.927C134.404 358.987 132.495 358.323 130.186 356.205C124.479 350.972 113.785 344.32 103.342 343.362Z" fill="black"/>
<path d="M97.8458 347.017C93.5511 348.21 91.1651 354.415 90.4493 357.517C99.7546 368.973 120.036 364.2 118.365 359.427C115.323 350.732 110.014 347.733 97.8458 347.017Z" fill="#F5F4EF"/>
<path d="M102.929 348.778C104.773 349.318 101.906 351.746 101.408 354.199C101.272 354.928 96.3189 354.064 95.2276 353.868C94.1363 353.672 93.3146 351.01 95.3622 348.778C97.4098 346.546 100.624 348.104 102.929 348.778Z" fill="white"/>
<path d="M56.7514 243.362C55.3509 245.494 52.9864 253.131 51.9791 256.683C51.7591 258.957 52.2427 262.197 53.4661 263.488C54.1752 261.523 54.2726 254.826 56.7514 249.646C59.2301 244.467 61.6935 240.285 60.6909 238.149C59.9612 238.999 58.1518 241.231 56.7514 243.362Z" fill="#FEFFFA"/>
<path d="M39.8664 241.532C29.559 251.651 29.6862 265.954 31.0383 271.841C32.1835 256.567 36.4465 247.658 38.4349 245.112C38.6735 245.032 39.2938 244.205 39.8664 241.532Z" fill="white"/>
<path d="M60.5217 233.037C58.4131 229.791 58.8991 228.492 59.3867 228.005C63.1179 226.869 63.4876 228.884 64.6806 226.978C69.214 225.065 115.524 227.318 133.636 232.232C134.829 234.141 132.411 234.207 136.303 236.445C142.793 240.178 144.092 244.074 144.092 244.074C141.658 244.885 138.412 245.21 118.604 247.032C59.9086 239.395 64.5778 228.741 60.5217 233.037Z" fill="black" fill-opacity="0.3"/>
<path d="M114.786 318.617C105.433 320.717 100.709 324.106 97.607 328.163C99.0386 324.106 100.47 321.004 102.618 317.901C114.786 317.424 122.66 314.56 128.625 311.696L130.534 314.083C129.182 314.48 124.139 316.517 114.786 318.617Z" fill="black" fill-opacity="0.3"/>
<path d="M24.357 288.308C21.6847 293.081 22.9254 298.411 23.8798 300.479L24.8341 301.911C24.3569 299.286 23.5934 292.89 24.357 288.308Z" fill="white"/>
<path d="M129.58 317.424C123.853 317.424 118.366 319.333 110.969 322.197C140.078 310.926 134.59 351.71 135.306 356.086C136.579 353.46 137.788 326.397 129.58 317.424Z" fill="white"/>
<path d="M134.829 360.143C133.954 363.165 133.158 368.304 136.976 364.677C135.258 364.868 134.829 361.734 134.829 360.143Z" fill="white"/>
<path d="M59.1926 323.39C59.0018 317.853 60.5447 315.833 61.34 315.515C60.3856 317.997 60.4652 321.481 60.6242 322.913C60.8628 322.833 60.9105 322.817 59.1926 323.39Z" fill="white"/>
<path d="M99.0385 328.163C97.5115 330.836 97.766 333.731 98.0841 334.845C98.5613 334.368 99.7066 333.175 100.47 332.22C100.088 329.738 100.947 327.686 101.424 326.97C101.584 326.81 101.329 326.826 99.0385 328.163Z" fill="white"/>
<path d="M109.528 279.295C111.15 268.258 120.887 254.136 122.672 253.163C131.921 243.261 144.416 249.105 145.877 253.975C147.337 258.844 147.175 275.4 141.495 282.704C135.816 290.008 121.86 304.777 108.229 298.934C112.286 294.227 111.15 283.028 109.528 279.295Z" fill="#F5F4EF"/>
<path d="M122.57 253.034C127.232 248.055 132.718 247.03 137.225 247.87C139.479 248.29 141.488 249.177 143.029 250.269C144.566 251.358 145.652 252.663 146.032 253.928C146.771 256.393 147.093 261.774 146.525 267.442C145.956 273.11 144.492 279.114 141.623 282.804C138.779 286.462 133.857 291.996 127.933 295.885C122.011 299.773 115.054 302.036 108.165 299.083L107.962 298.996L108.107 298.828C110.095 296.521 110.826 292.595 110.846 288.749C110.866 284.907 110.178 281.198 109.379 279.359L109.36 279.317L109.367 279.271C110.183 273.723 113.034 267.412 115.898 262.375C117.331 259.854 118.769 257.648 119.962 256.009C120.558 255.19 121.094 254.511 121.539 254.005C121.761 253.752 121.962 253.542 122.137 253.377C122.299 253.225 122.445 253.107 122.57 253.034ZM137.165 248.189C132.753 247.366 127.374 248.367 122.79 253.274L122.772 253.293L122.749 253.306C122.656 253.356 122.526 253.457 122.359 253.614C122.194 253.769 122.001 253.972 121.783 254.22C121.347 254.715 120.817 255.386 120.224 256.2C119.039 257.828 117.607 260.024 116.18 262.535C113.331 267.547 110.511 273.796 109.695 279.274C110.51 281.182 111.191 284.912 111.171 288.75C111.151 292.523 110.454 296.452 108.495 298.869C115.172 301.631 121.931 299.437 127.755 295.613C133.636 291.752 138.532 286.25 141.367 282.604C144.178 278.99 145.635 273.064 146.202 267.41C146.769 261.757 146.443 256.426 145.721 254.021C145.37 252.852 144.347 251.6 142.842 250.534C141.34 249.47 139.374 248.601 137.165 248.189Z" fill="black"/>
<path d="M236.1 10.5117L69.6089 316.626C69.6089 316.626 69.9327 318.574 72.6913 320.035C75.4499 321.495 78.0462 321.171 78.0462 321.171L244.464 14.8723C245.836 14.8723 247.995 14.1296 249.406 11.9721C251.602 8.61549 250.703 4.34405 248.27 2.23423C245.836 0.124659 240.805 -0.713935 237.398 2.23407C234.472 4.76563 235.097 9.02556 236.1 10.5117Z" fill="#D9D9D9"/>
<path d="M243.216 0.0132978C245.267 0.121435 247.204 0.880933 248.482 1.98902C251.036 4.20313 251.964 8.65471 249.678 12.1499C248.265 14.3098 246.13 15.125 244.659 15.1918L78.3313 321.326L78.2519 321.473L78.0865 321.493L78.0858 321.493L78.0852 321.493C78.0846 321.493 78.0837 321.494 78.0828 321.494C78.081 321.494 78.0783 321.494 78.0752 321.494C78.0691 321.495 78.0605 321.496 78.0495 321.497C78.0274 321.499 77.9956 321.502 77.9549 321.506C77.8733 321.512 77.7552 321.52 77.606 321.524C77.3076 321.531 76.8829 321.526 76.3704 321.474C75.3462 321.369 73.9646 321.076 72.5396 320.322C71.1097 319.564 70.2973 318.673 69.8418 317.957C69.6148 317.6 69.4779 317.289 69.3971 317.063C69.3567 316.95 69.3302 316.858 69.3135 316.793C69.3053 316.76 69.2993 316.734 69.2954 316.715C69.2934 316.705 69.2919 316.698 69.2908 316.692C69.2903 316.689 69.2901 316.686 69.2897 316.684C69.2896 316.683 69.2894 316.682 69.2892 316.682C69.2892 316.681 69.2889 316.681 69.2888 316.68C69.2888 316.68 69.2888 316.68 69.6089 316.626L69.2887 316.68L69.2704 316.569L69.3239 316.471L235.724 10.5231C235.229 9.67873 234.871 8.26068 234.952 6.74741C235.039 5.11541 235.64 3.32579 237.186 1.98873C238.964 0.450194 241.161 -0.09512 243.216 0.0132978ZM248.057 2.47969C246.902 1.47822 245.108 0.763444 243.182 0.661882C241.262 0.560611 239.239 1.07016 237.61 2.47963C236.23 3.67409 235.68 5.2801 235.6 6.78243C235.518 8.29668 235.916 9.65887 236.369 10.3302L236.479 10.4937L69.9534 316.671C69.9657 316.716 69.9833 316.774 70.0083 316.844C70.0745 317.029 70.1908 317.296 70.3895 317.609C70.7856 318.231 71.5146 319.044 72.8433 319.748C74.1769 320.454 75.4729 320.729 76.4364 320.828C76.9176 320.877 77.3143 320.882 77.5889 320.874C77.6921 320.872 77.7779 320.867 77.8444 320.862L244.271 14.5477L244.463 14.5476C245.737 14.5476 247.789 13.8515 249.135 11.7945C251.239 8.57657 250.371 4.48529 248.057 2.47969Z" fill="black"/>
<path d="M236.1 10.6737L69.6088 316.626C69.7386 317.535 70.0956 317.87 70.2578 317.924C124.889 217.671 234.802 16.0623 237.398 11.6475C236.749 11.5177 236.262 10.9442 236.1 10.6737Z" fill="#F8F8F8"/>
<path d="M452.819 47.5855C488.126 55.2696 505.892 87.7739 556.772 107.888L545.394 129.458L491.063 129.983L362.423 121.343L237.305 85.9886L232.339 37.425L243.717 15.8572C297.387 67.232 335.174 89.2336 369.924 82.6757C395.256 77.8953 403.971 36.9548 452.819 47.5855Z" fill="url(#paint0_linear_3250_17411)"/>
<path d="M422.775 47.7558C430.886 45.3291 440.618 44.7642 452.853 47.427C470.548 51.2778 483.844 61.3489 499.054 72.9465C514.268 84.5471 531.414 97.689 556.832 107.737L557 107.804L545.537 129.534L545.492 129.62L491.064 130.145L491.058 130.145L491.052 130.145L362.412 121.505L362.395 121.503L362.378 121.499L237.261 86.1449L237.155 86.1146L237.144 86.005L232.178 37.4414L232.173 37.3926L232.196 37.3492L243.674 15.5913L243.829 15.74C270.661 41.424 293.512 59.7563 313.992 70.8485C334.47 81.9393 352.566 85.7862 369.894 82.5162C376.186 81.3288 381.455 77.8949 386.589 73.5573C389.157 71.3885 391.687 68.9972 394.294 66.5508C396.9 64.1055 399.583 61.606 402.45 59.2265C408.185 54.4668 414.664 50.1823 422.775 47.7558ZM452.784 47.7443C440.596 45.0917 430.92 45.6577 422.868 48.0668C414.814 50.4762 408.373 54.7322 402.657 59.4763C399.798 61.8488 397.122 64.3421 394.516 66.7876C391.911 69.232 389.374 71.6298 386.799 73.8053C381.648 78.1563 376.328 81.6325 369.954 82.8353C352.531 86.1232 334.359 82.2482 313.838 71.134C293.359 60.0426 270.532 41.7359 243.76 16.1228L232.505 37.4571L237.455 85.8623L362.45 121.182L491.07 129.82L545.295 129.297L556.544 107.972C531.174 97.9144 514.039 84.78 498.857 73.2045C483.638 61.6004 470.397 51.5774 452.784 47.7443Z" fill="black"/>
<path d="M441.44 69.1528C476.748 76.8368 494.513 109.341 545.394 129.455L533.048 150.308L518.068 157.64L431.136 102.3L385.457 106.718L353.058 132.531L317.503 137.531L233.528 86.9155L220.423 58.9116L232.339 37.4245C286.008 88.7993 323.795 110.801 358.546 104.243C383.878 99.4625 392.593 58.5221 441.44 69.1528Z" fill="url(#paint1_linear_3250_17411)"/>
<path d="M411.396 69.3231C419.508 66.8963 429.24 66.3315 441.475 68.9942C459.169 72.8451 472.465 82.9162 487.676 94.5138C502.89 106.114 520.036 119.256 545.453 129.304L545.63 129.374L533.187 150.391L533.163 150.433L518.058 157.826L431.096 102.467L385.52 106.875L353.159 132.658L353.124 132.686L353.08 132.692L317.468 137.699L233.444 87.0545L233.401 87.0291L233.381 86.9844L220.276 58.9803L220.241 58.9054L232.299 37.1619L232.451 37.3073C259.282 62.9912 282.134 81.3236 302.614 92.4158C323.092 103.507 341.188 107.353 358.516 104.083C364.808 102.896 370.076 99.4621 375.211 95.1245C377.778 92.9557 380.308 90.5644 382.916 88.118C385.522 85.6728 388.204 83.1733 391.071 80.7938C396.806 76.0341 403.286 71.7495 411.396 69.3231ZM441.406 69.3115C429.217 66.6589 419.542 67.225 411.489 69.634C403.436 72.0434 396.995 76.2995 391.278 81.0436C388.42 83.416 385.744 85.9093 383.138 88.3549C380.532 90.7993 377.996 93.1971 375.42 95.3725C370.27 99.7235 364.949 103.2 358.576 104.403C341.153 107.69 322.98 103.815 302.459 92.7013C281.98 81.6094 259.151 63.3016 232.378 37.6869L220.605 58.9179L233.653 86.8019L317.537 137.362L352.991 132.377L385.393 106.561L385.441 106.556L431.176 102.133L431.223 102.163L518.078 157.454L532.933 150.184L545.157 129.535C519.792 119.478 502.659 106.346 487.479 94.7717C472.26 83.1676 459.019 73.1447 441.406 69.3115Z" fill="#A44343"/>
<path d="M429.79 90.6925C467.386 97.9897 487.452 132.896 533.047 150.308L520.65 171.425L469.378 194.683L399.169 138.714L317.668 166.621L208.068 96.9182L208.721 80.7171L220.474 58.6448C277.242 111.158 316.117 134.356 347.058 126.369C372.399 119.828 380.715 81.1673 429.79 90.6925Z" fill="url(#paint2_linear_3250_17411)"/>
<path d="M429.821 90.5331C448.661 94.1899 463.105 104.765 478.518 116.578C493.936 128.396 510.333 141.46 533.105 150.156L533.284 150.225L520.763 171.551L520.717 171.573L469.355 194.872L399.138 138.896L317.721 166.774L317.647 166.8L317.581 166.758L207.981 97.0551L207.902 97.0052L207.906 96.9116L208.559 80.7108L208.561 80.6736L208.578 80.6408L220.429 58.3828L220.584 58.5258C248.966 84.7799 272.865 103.697 293.53 115.052C314.195 126.408 331.604 130.191 347.018 126.212C353.317 124.586 358.565 120.962 363.669 116.573C366.22 114.378 368.732 111.995 371.321 109.576C373.908 107.159 376.571 104.707 379.421 102.38C385.122 97.726 391.573 93.5686 399.677 91.1732C407.782 88.7777 417.53 88.1476 429.821 90.5331ZM429.759 90.8518C417.512 88.4748 407.818 89.1054 399.769 91.4843C391.72 93.8633 385.307 97.994 379.626 102.632C376.786 104.951 374.129 107.397 371.542 109.814C368.956 112.23 366.438 114.618 363.88 116.819C358.763 121.22 353.47 124.882 347.099 126.527C331.572 130.535 314.073 126.712 293.373 115.337C272.711 103.982 248.838 85.0916 220.518 58.9063L208.882 80.7605L208.234 96.8312L317.689 166.442L399.117 138.561L399.201 138.532L469.402 194.494L520.535 171.298L532.81 150.39C510.08 141.675 493.692 128.618 478.32 116.836C462.903 105.019 448.515 94.4922 429.759 90.8518Z" fill="black"/>
<path d="M418.405 112.299C456.001 119.596 490.917 160.678 520.65 171.425L506.171 191.861L489.007 199.046L363.786 164.225L298.828 188.147L195.218 113.242L197.073 102.256L208.452 80.6812C265.221 133.195 304.732 155.963 335.673 147.976C358.975 141.961 369.33 102.774 418.405 112.299Z" fill="url(#paint3_linear_3250_17411)"/>
<path d="M418.436 112.14C437.274 115.796 455.429 127.913 472.572 140.437C481.149 146.703 489.47 153.07 497.509 158.544C505.547 164.019 513.291 168.593 520.705 171.272L520.906 171.345L506.304 191.955L506.277 191.993L506.234 192.011L489.07 199.195L489.018 199.217L363.793 164.395L298.885 188.3L298.804 188.33L195.041 113.315L196.917 102.203L196.929 102.18L208.407 80.4187L208.562 80.5622C236.943 106.816 261.002 125.625 281.825 136.873C302.649 148.122 320.218 151.798 335.633 147.819C341.42 146.325 346.413 142.769 351.423 138.402C353.927 136.219 356.431 133.838 359.04 131.414C361.648 128.991 364.359 126.527 367.273 124.183C373.101 119.496 379.743 115.29 388.006 112.854C396.27 110.417 406.145 109.754 418.436 112.14ZM418.374 112.458C406.128 110.081 396.306 110.745 388.097 113.165C379.888 115.585 373.284 119.766 367.476 124.436C364.572 126.772 361.867 129.23 359.261 131.652C356.656 134.072 354.146 136.459 351.636 138.647C346.617 143.022 341.577 146.62 335.714 148.133C320.187 152.141 302.53 148.427 281.671 137.159C260.849 125.912 236.817 107.129 208.497 80.9435L197.228 102.308L195.395 113.17L298.853 187.965L363.73 164.073L363.779 164.055L488.996 198.874L506.066 191.729L520.395 171.504C513.004 168.801 505.3 164.243 497.326 158.813C489.281 153.334 480.949 146.959 472.381 140.699C455.233 128.172 437.132 116.099 418.374 112.458Z" fill="black"/>
<path d="M183.417 126.999L197.072 102.252C248.273 150.662 293.343 179.335 323.919 170.049C352.772 161.286 357.743 125.482 407.025 133.87C444.094 140.179 476.438 181.11 506.171 191.857L495.031 209.344L486.777 219.088C484.439 210.701 464.546 189.922 403.685 173.903C327.61 153.879 357.19 193.937 291.752 198.947C239.401 202.955 197.716 152.652 183.417 126.999Z" fill="url(#paint4_linear_3250_17411)"/>
<path d="M407.053 133.71C425.63 136.872 443.012 148.706 459.446 161.07C467.669 167.255 475.652 173.572 483.441 179.017C491.23 184.461 498.813 189.025 506.226 191.705L506.416 191.774L495.168 209.431L495.162 209.441L495.155 209.449L486.703 219.427L486.621 219.132C486.046 217.07 484.383 214.221 481.247 210.853C478.114 207.487 473.517 203.611 467.089 199.494C454.234 191.26 434.063 182.066 403.644 174.06C384.633 169.056 372.24 167.811 363.322 168.825C354.414 169.839 348.962 173.108 343.83 177.164C338.7 181.22 333.862 186.091 326.228 190.247C318.586 194.407 308.142 197.855 291.764 199.109C265.532 201.117 241.983 189.518 223.212 174.222C204.442 158.926 190.433 139.92 183.275 127.078L183.231 127L183.275 126.921L197.031 101.99L197.183 102.134C222.78 126.335 246.837 145.596 268.309 157.645C289.788 169.698 308.649 174.517 323.872 169.894C331.056 167.712 336.757 163.846 342.042 159.396C344.686 157.17 347.222 154.799 349.79 152.42C352.356 150.042 354.952 147.655 357.709 145.402C363.224 140.895 369.386 136.918 377.261 134.596C385.136 132.274 394.712 131.61 407.053 133.71ZM459.251 161.329C442.813 148.963 425.489 137.177 406.998 134.03C394.697 131.937 385.172 132.602 377.352 134.908C369.533 137.214 363.409 141.163 357.914 145.654C355.166 147.9 352.577 150.28 350.01 152.658C347.445 155.036 344.902 157.412 342.251 159.644C336.949 164.109 331.209 168.005 323.966 170.204C308.613 174.867 289.651 169.993 268.15 157.928C246.687 145.884 222.661 126.655 197.113 102.514L183.603 126.998C190.757 139.808 204.721 158.735 223.417 173.971C242.152 189.237 265.621 200.785 291.739 198.785C308.081 197.534 318.478 194.096 326.072 189.962C333.674 185.824 338.465 180.992 343.629 176.91C348.791 172.829 354.299 169.525 363.285 168.503C372.262 167.481 384.701 168.738 403.727 173.746C434.169 181.759 454.374 190.964 467.264 199.221C473.71 203.35 478.329 207.242 481.485 210.632C484.498 213.868 486.184 216.654 486.846 218.755L494.9 209.247L505.925 191.94C498.533 189.237 490.985 184.686 483.255 179.283C475.46 173.834 467.465 167.508 459.251 161.329Z" fill="black"/>
<path d="M297.492 215C255.876 221.758 199.462 172.653 173.136 145.772L185.054 124.273C211.38 151.153 267.059 199.773 308.674 193.014C336.671 188.468 344.819 149.321 388.038 154.73C437.471 160.917 471.773 212.288 495.031 209.348L481.721 229.466C458.463 232.406 427.086 183.069 377.653 176.888C332.001 171.18 325.489 210.454 297.492 215Z" fill="url(#paint5_linear_3250_17411)"/>
<path d="M388.058 154.569C412.822 157.668 433.786 172.083 451.448 185.332C460.284 191.96 468.288 198.292 475.539 202.786C482.793 207.283 489.256 209.914 495.011 209.186L495.362 209.142L481.856 229.556L481.815 229.618L481.742 229.627C475.869 230.37 469.505 227.81 462.515 223.498C455.522 219.185 447.864 213.093 439.405 206.727C422.475 193.988 402.302 180.134 377.632 177.049C366.244 175.626 357.305 177.007 349.865 179.947C342.423 182.887 336.47 187.389 331.06 192.22C328.354 194.636 325.786 197.131 323.233 199.556C320.682 201.979 318.146 204.331 315.51 206.451C310.237 210.693 304.555 214.018 297.518 215.161C276.645 218.55 252.092 207.931 229.491 193.136C206.882 178.336 186.188 159.33 173.02 145.886L172.935 145.8L185.017 124.004L185.17 124.16C198.329 137.595 218.821 156.461 241.219 171.122C263.627 185.789 287.905 196.223 308.648 192.854C315.61 191.724 321.344 188.442 326.708 184.226C332.081 180.004 337.056 174.87 342.54 170.017C348.015 165.173 353.976 160.631 361.28 157.641C368.586 154.649 377.227 153.214 388.058 154.569ZM451.253 185.591C433.59 172.342 412.687 157.979 388.018 154.891C377.24 153.542 368.655 154.972 361.403 157.941C354.149 160.911 348.219 165.426 342.755 170.261C337.3 175.087 332.288 180.254 326.909 184.481C321.521 188.715 315.737 192.032 308.7 193.175C287.828 196.564 263.459 186.067 241.042 171.394C218.702 156.772 198.264 137.976 185.09 124.542L173.336 145.745C186.499 159.175 207.135 178.114 229.669 192.865C252.261 207.654 276.723 218.209 297.466 214.84C304.427 213.71 310.058 210.42 315.307 206.198C317.932 204.087 320.459 201.743 323.01 199.321C325.559 196.9 328.133 194.398 330.844 191.978C336.267 187.135 342.253 182.605 349.746 179.645C357.241 176.684 366.235 175.297 377.673 176.727C402.436 179.823 422.669 193.728 439.6 206.468C448.071 212.842 455.709 218.919 462.685 223.222C469.634 227.509 475.891 230.011 481.627 229.313L494.704 209.548C488.92 210.144 482.488 207.475 475.368 203.062C468.101 198.558 460.078 192.211 451.253 185.591Z" fill="black"/>
<path d="M240.643 13.2706C240.643 13.2706 73.3404 320.196 73.9894 320.521C74.6385 320.846 78.0462 321.17 78.0462 321.17C130.514 224.543 237.203 27.9433 244.213 14.5691C242.395 14.5691 241.076 13.7034 240.643 13.2706Z" fill="#ABAAAA"/>
<path d="M137.784 14.0963C136.779 18.0666 132.747 20.4705 128.777 19.4655C124.808 18.4605 122.405 14.4272 123.409 10.4569C124.414 6.48659 128.447 4.08271 132.416 5.0877C136.385 6.09269 138.789 10.126 137.784 14.0963Z" fill="#D9D9D9"/>
<path d="M137.921 14.2884C138.93 10.3027 136.517 6.25389 132.532 5.24503C128.548 4.23616 124.5 6.64931 123.491 10.635C122.482 14.6206 124.895 18.6694 128.88 19.6783C132.864 20.6872 136.912 18.274 137.921 14.2884ZM138.333 14.3928C137.267 18.6062 132.988 21.1572 128.775 20.0907C124.563 19.0242 122.012 14.744 123.079 10.5306C124.145 6.31718 128.424 3.76613 132.637 4.83265C136.849 5.89916 139.4 10.1794 138.333 14.3928Z" fill="black"/>
<path d="M129.486 18.6267L128.459 19.2318C135.653 22.1974 140.838 13.4975 136.578 7.87642C138.989 14.7597 132.465 19.8134 129.486 18.6267Z" fill="#7C7C7C"/>
<path d="M128.46 19.1189L123.483 50.1149L125.593 51.5756C126.509 46.4841 127.829 32.1543 130.298 18.9515C129.325 18.627 128.947 18.7968 128.46 19.1189Z" fill="#D9D9D9"/>
<path d="M132.194 5.34526C130.55 5.15029 126.801 5.52949 124.962 8.606C123.123 11.6825 129.017 7.71406 132.194 5.34526Z" fill="white"/>
<path d="M129.811 18.9514L124.943 50.9262L125.82 51.5002C126.666 46.4087 128.929 32.9251 131.209 19.7222C130.294 18.444 130.261 18.6293 129.811 18.9514Z" fill="#868685"/>
<path d="M129.632 18.4603C130.223 18.5106 130.842 18.8243 131.363 19.5511L131.466 19.6946L131.436 19.8665C129.167 33.0148 126.916 46.4432 126.074 51.5134L125.966 52.1613L123.115 50.2451L128.134 18.9231L128.276 18.8212C128.569 18.6123 129.062 18.412 129.632 18.4603ZM131.015 19.7929C130.103 18.5196 128.977 18.8426 128.529 19.1633L123.579 50.0492L125.652 51.4423C126.389 47.0053 128.205 36.169 130.168 24.7202L131.015 19.7929Z" fill="black"/>
<path d="M165.341 14.9855C164.316 19.0369 160.201 21.4898 156.151 20.4643C152.1 19.4388 149.648 15.3232 150.673 11.2719C151.698 7.22053 155.813 4.7676 159.863 5.79309C163.914 6.81859 166.366 10.9342 165.341 14.9855Z" fill="#D9D9D9"/>
<path d="M165.222 14.9563C166.231 10.9707 163.818 6.92183 159.833 5.91296C155.848 4.9041 151.8 7.31725 150.792 11.3029C149.783 15.2885 152.196 19.3374 156.181 20.3463C160.165 21.3551 164.213 18.942 165.222 14.9563ZM165.634 15.0607C164.568 19.2741 160.289 21.8251 156.076 20.7586C151.864 19.6921 149.313 15.4119 150.38 11.1985C151.446 6.98512 155.725 4.43407 159.938 5.50058C164.15 6.5671 166.7 10.8473 165.634 15.0607Z" fill="black"/>
<path d="M155.777 19.4702L155.774 20.3548C162.939 22.6115 168.318 14.4558 164.023 8.72033C166.443 15.7518 160.294 20.8352 155.777 19.4702Z" fill="#7C7C7C"/>
<path d="M153.694 18.5062L135.178 54.8595L137.18 56.4612C139.4 51.779 150.059 31.9012 155.898 19.7826C155.38 18.3053 154.213 18.3161 153.694 18.5062Z" fill="#868685"/>
<path d="M154.945 18.1208C155.497 18.3281 156.002 18.7978 156.298 19.641L156.356 19.8075L156.28 19.9659C153.357 26.0318 149.23 34.0365 145.558 41.1053C141.882 48.1822 138.669 54.3102 137.563 56.6422L137.333 57.127L134.642 54.9741L153.315 18.3126L153.391 18.1641L153.548 18.1066C153.886 17.9828 154.413 17.9211 154.945 18.1208ZM155.897 19.7818C155.379 18.3045 154.212 18.3153 153.694 18.5054L135.177 54.8587L137.179 56.4602C139.33 51.9241 149.4 33.1278 155.336 20.9398L155.897 19.7818Z" fill="black"/>
<path d="M153.665 18.6268L135.907 53.2882C135.507 53.9942 134.68 54.9839 135.907 55.4709C137.054 55.9258 149.039 29.8495 154.801 18.4645L153.665 18.6268Z" fill="#F1F1F1"/>
<path d="M159.42 6.30596C157.776 6.11099 154.027 6.49019 152.188 9.5667C150.349 12.6432 156.243 8.67475 159.42 6.30596Z" fill="white"/>
<path d="M125.036 49.74C160.512 60.3671 179.964 79.6092 189.158 101.874C198.348 124.127 197.276 149.37 191.772 171.986C186.272 194.585 180.075 209.34 171.267 218.941C162.449 228.551 151.038 232.972 135.177 234.961C120.102 236.851 96.9943 235.228 73.8568 229.1C50.7207 222.973 27.5226 212.333 12.2923 196.163C3.43104 186.755 -0.307931 171.27 0.632314 153.781C1.57297 136.284 7.19768 116.743 17.1121 99.1813C36.9424 64.0557 73.9642 36.8096 125.027 49.7377L125.036 49.74ZM98.2959 122.478C64.0371 90.241 24.6355 88.7565 10.3712 130.164C-3.71337 171.05 13.9818 192.628 23.7776 200.804C40.549 214.803 78.5916 223.981 100.082 216.678C135.547 204.625 122.177 144.95 98.2959 122.478Z" fill="#F5F4EF"/>
<path d="M125.191 49.1553L125.199 49.1579C160.735 59.8054 180.267 79.1237 189.497 101.524C198.714 123.892 197.62 149.241 192.102 171.913C186.596 194.534 180.38 209.384 171.503 219.072C162.598 228.79 151.087 233.242 135.19 235.244C120.067 237.148 96.9307 235.525 73.7826 229.394C50.6387 223.264 27.3854 212.603 12.1025 196.354C3.14148 186.826 -0.591431 171.2 0.35719 153.653C1.30704 136.083 6.95273 116.472 16.8925 98.849C36.7766 63.5951 73.936 36.1785 125.173 49.1508L125.069 49.5626C74.0708 36.6508 37.0821 63.9168 17.2618 99.0576C7.35244 116.627 1.72698 136.174 0.78085 153.675C-0.164865 171.169 3.56391 186.656 12.4113 196.062C27.6176 212.23 50.7845 222.864 73.8912 228.984C96.9993 235.104 120.08 236.719 135.138 234.822C150.981 232.827 162.38 228.401 171.191 218.785C179.993 209.179 186.188 194.418 191.69 171.812C197.196 149.189 198.276 123.941 189.105 101.686C179.93 79.4199 160.508 60.1809 125.078 49.5649L125.069 49.5626L125.173 49.1508L125.191 49.1553ZM10.5172 130.049C24.7804 88.6277 64.1352 90.0977 98.3418 122.329C122.186 144.796 135.518 204.479 100.091 216.548C78.6224 223.862 40.6278 214.695 23.8814 200.7C14.1001 192.526 -3.56623 170.949 10.5172 130.049ZM98.0511 122.638C80.9933 106.566 62.7098 98.2203 46.9712 98.9938C31.2795 99.765 18.0044 109.608 10.918 130.188C3.90325 150.559 4.80651 166.082 8.65202 177.511C12.4995 188.946 19.3053 196.323 24.1532 200.374C32.4553 207.312 46.0686 213.082 60.3063 216.2C74.5469 219.319 89.3248 219.767 99.9544 216.146C117.385 210.208 122.899 192.546 121.021 173.38C119.144 154.225 109.885 133.789 98.0511 122.638Z" fill="black"/>
<path d="M6.44022 127.907C-8.73274 171.965 8.47415 194.176 20.7481 204.429C38.798 219.508 79.0594 226.716 101.786 217.723C133.86 205.03 118.884 142.381 98.1375 121.543C62.4013 85.6494 21.8068 83.2866 6.44022 127.907Z" fill="#CCCCCC"/>
<path d="M20.6174 204.325C3.56962 189.999 4.27398 179.774 6.07293 165.743C7.7637 187.242 23.0321 204.347 40.7312 210.514C61.4595 217.738 105.705 229.818 119.049 197.858C110.942 234.217 41.927 222.231 20.6174 204.325Z" fill="url(#paint6_linear_3250_17411)"/>
<path d="M10.531 129.988C-3.55694 170.882 14.1439 192.466 23.9428 200.644C40.7193 214.646 78.7732 223.827 100.27 216.522C135.745 204.467 122.369 144.779 98.4812 122.302C64.2117 90.0572 24.7987 88.5714 10.531 129.988Z" fill="#FFE59F"/>
<path d="M10.531 129.988C24.7987 88.5714 64.2117 90.0572 98.4812 122.302C122.369 144.779 135.745 204.467 100.27 216.522L99.7632 216.69C78.3499 223.628 41.1794 214.679 24.3399 200.971L23.9428 200.644C14.2205 192.53 -3.28079 171.218 10.2065 130.943L10.531 129.988ZM98.1903 122.611C81.1011 106.532 62.7874 98.1792 47.026 98.9464C31.3116 99.7114 18.0213 109.549 10.9327 130.126C3.9157 150.495 4.82605 166.018 8.68173 177.449C12.5394 188.885 19.3581 196.265 24.2147 200.318C32.5318 207.259 46.1673 213.034 60.4272 216.158C74.6899 219.283 89.4897 219.737 100.133 216.12C117.587 210.189 123.103 192.529 121.214 173.362C119.327 154.206 110.046 133.767 98.1903 122.611Z" fill="black"/>
<path d="M31.9466 151.078C28.8441 163.337 20.9121 171.685 14.9229 170.169C8.93375 168.652 4.65151 156.556 7.75394 144.297C10.8564 132.037 18.993 123.741 24.9822 125.258C30.9714 126.774 35.049 138.819 31.9466 151.078Z" fill="#212121"/>
<path d="M30.7505 150.868C27.6438 163.144 21.0303 171.402 15.0271 169.882C9.02384 168.362 4.62483 156.659 7.73153 144.383C10.8382 132.107 17.9628 124.416 23.9661 125.936C29.9693 127.456 33.8572 138.592 30.7505 150.868Z" fill="#3B3B3B"/>
<path d="M93.969 167.039C92.8577 182.002 82.1033 193.4 69.9484 192.497C57.7935 191.594 48.8408 178.731 49.9521 163.768C51.0634 148.805 61.8177 137.407 73.9726 138.31C86.1276 139.213 95.0802 152.075 93.969 167.039Z" fill="#212121"/>
<path d="M91.9041 167.188C90.7928 182.151 82.2067 192.992 70.0517 192.089C57.8968 191.186 48.84 178.735 49.9513 163.772C51.0625 148.809 60.5608 138.199 72.7157 139.102C84.8706 140.005 93.0154 152.225 91.9041 167.188Z" fill="#3B3B3B"/>
<path d="M23.2828 126.806C18.3951 126.226 13.3892 132.724 11.9767 135.506L16.2107 133.993C17.1949 131.833 19.416 129.111 22.0434 128.244L23.2828 126.806Z" fill="#D9D9D9"/>
<path d="M72.6511 140.182C65.2454 138.307 56.8866 145.388 53.8819 152.071L62.7276 154.311C64.9569 148.962 71.5085 143.832 75.9868 143.435L72.6511 140.182Z" fill="#D9D9D9"/>
<path d="M70.08 175.428C58.8543 174.478 52.3192 168.799 50.421 166.614C49.6586 170.053 52.3397 188.441 68.196 190.67C82.4062 192.668 89.7695 179.865 90.6726 172.769C89.3306 173.113 81.3057 176.379 70.08 175.428Z" fill="#676767"/>
<path d="M15.4744 156.796C8.27438 154.973 8.23517 150.803 7.21771 148.231C5.80086 156.097 8.77446 168.408 15.1922 170.033C18.892 170.97 26.5155 165.065 29.1686 155.446C27.8266 155.79 19.5938 157.839 15.4744 156.796Z" fill="#676767"/>
<path fill-rule="evenodd" clip-rule="evenodd" d="M78.9956 124.696C79.1281 123.96 79.8738 123.468 80.6611 123.599C82.3731 123.882 85.0633 124.628 87.7323 125.96C90.394 127.289 93.1652 129.266 94.8522 132.074C95.2451 132.727 95.0002 133.551 94.3051 133.914C93.6101 134.277 92.7282 134.04 92.3353 133.387C91.0228 131.202 88.7783 129.54 86.3889 128.347C84.0067 127.158 81.6103 126.501 80.1813 126.265C79.394 126.135 78.8631 125.432 78.9956 124.696Z" fill="#020203"/>
<path d="M27.9374 111.874C29.721 111.466 31.211 112.083 32.435 112.267C32.9714 112.347 33.8255 111.962 34.0859 110.933C34.3463 109.904 32.8257 109.463 32.2892 109.382C30.7241 109.147 29.1585 108.981 27.2453 109.419C25.2796 109.746 23.8768 111.051 23.2248 111.466C22.8336 111.716 22.1457 113.136 22.8578 113.782C23.5699 114.428 24.3906 113.951 24.6077 113.787C24.9199 113.551 25.9431 112.142 27.9374 111.874Z" fill="#020203"/>
<path d="M27.9869 189.521C27.0584 187.768 25.6436 186.096 25.7378 185.724C26.012 184.641 27.1891 186.368 28.1103 187.614C29.0315 188.86 30.9374 189.735 34.932 190.621C38.9267 191.507 38.6767 194.853 43.1581 193.58C45.6458 192.872 45.4261 192.402 45.7334 192.918C45.8844 194.051 43.1529 195.33 42.4811 196.254C41.6911 197.342 39.8495 198.993 36.7108 198.297C33.5721 197.6 29.1474 191.713 27.9869 189.521Z" fill="#212121"/>
<path d="M44.2005 94.6275C60.6812 94.3091 79.8591 103.927 98.4672 121.201C110.847 132.693 119.822 153.628 121.684 173.271C123.546 192.901 118.308 211.366 102.102 217.761C90.6684 222.273 74.8463 222.707 59.6315 220.133C44.4166 217.559 29.7654 211.969 20.6789 204.391C13.6942 198.565 6.27326 190.411 2.50724 178.181C-1.25883 165.951 -1.3615 149.671 6.24063 127.609C10.0938 116.427 15.453 108.26 21.9196 102.848C28.3885 97.4341 35.9546 94.7869 44.2005 94.6275ZM98.178 121.512C79.604 104.27 60.5292 94.7365 44.2091 95.0518C36.0546 95.2094 28.5831 97.8252 22.1924 103.173C15.7995 108.524 10.4772 116.618 6.64215 127.747C-0.93843 149.747 -0.820087 165.932 2.91329 178.056C6.64675 190.18 14.0037 198.27 20.9513 204.065C29.9587 211.577 44.5283 217.147 59.7024 219.715C74.8765 222.282 90.612 221.839 101.946 217.366C117.875 211.081 123.118 192.89 121.262 173.311C119.406 153.744 110.463 132.916 98.178 121.512Z" fill="black"/>
<path d="M99.6296 47.68C60.4021 46.3565 36.4026 70.98 22.0631 93.9208C25.2914 92.9814 34.418 78.8223 45.6925 77.5044C58.2497 63.3355 75.6423 54.2703 84.8919 53.1718C84.3816 52.0178 92.6861 55.0573 99.6296 47.68Z" fill="white"/>
<path d="M107.309 56.8052C98.8839 54.7449 79.2523 54.1987 68.1274 68.497C57.0026 82.7952 89.6132 66.6601 107.309 56.8052Z" fill="white"/>
<path d="M168.917 212.799C122.082 237.366 58.9216 223.757 32.1382 211.997C81.2458 240.168 154.352 245.278 173.348 216.04C183.279 202.738 175.942 209.113 168.917 212.799Z" fill="#D9D9D9"/>
<path d="M156.329 185.046C160.845 167.2 173.584 162.253 179.28 161.58C184.095 161.515 195.478 164.797 188.608 191.946C183.716 211.275 166.71 214.697 159.612 210.858C157.038 208.675 152.208 201.33 156.329 185.046Z" fill="#D9D9D9"/>
<path d="M188.526 191.766C191.949 178.242 190.785 170.716 188.222 166.587C185.669 162.476 181.694 161.677 179.317 161.702C173.66 162.359 160.964 167.229 156.486 184.924C152.397 201.082 157.231 208.333 159.747 210.468C166.764 214.222 183.68 210.917 188.526 191.766ZM188.938 191.87C184.028 211.273 166.803 214.748 159.526 210.829L159.506 210.819L159.489 210.804C156.82 208.554 151.948 201.122 156.074 184.82C160.605 166.913 173.484 161.95 179.277 161.28L179.288 161.279L179.299 161.279C181.763 161.25 185.92 162.076 188.583 166.364C191.238 170.641 192.371 178.308 188.938 191.87Z" fill="black"/>
<path d="M168.986 185.745C165.551 197.58 167.865 203.21 172.672 205.072C176.478 206.546 182.994 204.259 186.242 191.427C189.489 178.595 183.162 174.05 180.681 173.422C177.168 172.533 171.527 176.989 168.986 185.745Z" fill="#3C3C3C"/>
<path d="M186.118 191.394C187.741 184.981 186.957 180.667 185.485 177.888C184.009 175.103 181.834 173.842 180.644 173.541C178.978 173.119 176.743 173.953 174.579 176.04C172.424 178.117 170.38 181.403 169.11 185.775C167.387 191.709 167.119 196.058 167.866 199.145C168.61 202.217 170.362 204.045 172.72 204.958C174.564 205.67 177.088 205.488 179.567 203.53C182.05 201.569 184.492 197.819 186.118 191.394ZM186.536 191.499C184.896 197.977 182.418 201.825 179.836 203.864C177.25 205.907 174.565 206.128 172.566 205.355C170.07 204.39 168.224 202.447 167.448 199.243C166.675 196.053 166.964 191.62 168.697 185.655C169.983 181.224 172.062 177.869 174.278 175.733C176.484 173.605 178.867 172.651 180.749 173.127C182.063 173.46 184.336 174.804 185.865 177.691C187.398 180.584 188.178 185.01 186.536 191.499Z" fill="black"/>
<path d="M185.643 191.328C188.831 178.73 182.743 174.489 178.357 173.815C176.775 174.066 171.281 177.769 168.921 187.095C166.561 196.42 168.004 201.007 169.733 202.751C173.486 204.209 182.454 203.927 185.643 191.328Z" fill="#A2A2A2"/>
<path d="M185.524 191.297C187.119 184.995 186.376 180.822 184.725 178.148C183.081 175.488 180.514 174.275 178.354 173.933C177.996 173.999 177.394 174.258 176.644 174.767C175.878 175.287 174.974 176.056 174.043 177.111C172.183 179.22 170.219 182.465 169.04 187.123C166.685 196.429 168.138 200.946 169.79 202.644C171.645 203.349 174.772 203.63 177.83 202.2C180.901 200.763 183.933 197.584 185.524 191.297ZM185.936 191.401C184.32 197.787 181.218 201.083 178.01 202.584C174.812 204.08 171.538 203.778 169.594 203.024L169.552 203.008L169.52 202.976C167.689 201.136 166.25 196.417 168.628 187.019C169.823 182.296 171.819 178.99 173.725 176.83C174.677 175.751 175.607 174.957 176.405 174.416C177.196 173.879 177.873 173.578 178.319 173.508L178.352 173.503L178.384 173.508C180.648 173.857 183.356 175.124 185.087 177.926C186.818 180.728 187.549 185.029 185.936 191.401Z" fill="black"/>
<path d="M88.6757 267.734C90.3627 267.581 93.5262 266.938 95.2495 269.395L93.9514 272.116C93.9514 272.116 94.2759 273.088 96.8723 274.549C99.4686 276.009 100.875 278.104 101.252 278.808C101.469 278.645 102.695 276.366 103.603 274.549C104.772 274.549 106.903 276.713 107.823 277.795C111.393 280.716 110.016 297.312 106.85 299.22C105.59 299.809 94.6591 306.398 86.7775 303.326C78.8959 300.254 76.9081 292.33 76.8994 288.752C76.0095 287.12 72.2603 287.08 76.3434 278.608C75.2025 276.846 76.1087 274.718 77.8039 273.252C79.4997 271.786 80.3857 271.549 82.1852 272.116C82.8358 271.044 87.1841 267.869 88.6757 267.734Z" fill="#F5F4EF"/>
<path d="M108.996 295.521C108.735 296.463 108.432 297.291 108.091 297.946C107.774 298.557 107.416 299.034 107.015 299.307L106.934 299.359L106.927 299.363L106.919 299.367C106.308 299.652 103.235 301.459 99.35 302.799C95.4656 304.139 90.7151 305.035 86.7184 303.477C78.7813 300.384 76.7627 292.429 76.7378 288.796C76.5296 288.437 76.1705 288.159 75.7555 287.791C75.3377 287.421 74.8905 286.979 74.6069 286.308C74.0431 284.974 74.152 282.808 76.159 278.618C75.0266 276.77 76.0039 274.594 77.6978 273.129C78.5495 272.393 79.2185 271.946 79.9148 271.765C80.5861 271.59 81.2615 271.667 82.1179 271.925C82.3215 271.643 82.697 271.273 83.1581 270.875C83.6854 270.42 84.3411 269.915 85.0222 269.44C85.7032 268.966 86.4126 268.519 87.0475 268.181C87.6754 267.848 88.2524 267.609 88.6609 267.572C89.4889 267.497 90.7278 267.295 91.9657 267.424C93.2124 267.555 94.4851 268.023 95.3823 269.302L95.4366 269.38L94.1307 272.117C94.1423 272.14 94.1583 272.169 94.1805 272.205C94.2451 272.308 94.3597 272.467 94.5556 272.672C94.9476 273.084 95.664 273.683 96.9516 274.407C99.3576 275.761 100.755 277.652 101.273 278.517C101.321 278.445 101.379 278.354 101.444 278.246C101.602 277.984 101.803 277.629 102.026 277.221C102.472 276.406 103.005 275.383 103.458 274.476L103.503 274.386L103.603 274.386C103.939 274.386 104.322 274.539 104.708 274.763C105.098 274.99 105.511 275.301 105.911 275.642C106.708 276.321 107.472 277.133 107.937 277.679C108.407 278.068 108.786 278.671 109.086 279.415C109.39 280.167 109.619 281.075 109.782 282.081C110.108 284.092 110.171 286.513 110.024 288.897C109.877 291.282 109.518 293.638 108.996 295.521ZM107.803 297.796C108.13 297.168 108.426 296.363 108.683 295.435C109.198 293.578 109.554 291.245 109.7 288.877C109.847 286.509 109.783 284.114 109.462 282.132C109.301 281.142 109.077 280.259 108.785 279.537C108.492 278.813 108.137 278.262 107.72 277.92L107.708 277.911L107.699 277.9C107.243 277.364 106.487 276.559 105.701 275.889C105.308 275.555 104.912 275.257 104.545 275.044C104.22 274.855 103.933 274.742 103.7 274.716C103.256 275.603 102.743 276.586 102.311 277.377C102.086 277.786 101.883 278.146 101.722 278.413C101.642 278.547 101.57 278.659 101.512 278.745C101.483 278.787 101.455 278.825 101.43 278.855C101.408 278.883 101.38 278.915 101.35 278.938L101.199 279.051L101.109 278.885C100.742 278.201 99.3553 276.132 96.7926 274.69C95.484 273.954 94.7401 273.336 94.3208 272.896C94.1111 272.676 93.9824 272.501 93.905 272.376C93.8663 272.314 93.8404 272.265 93.8237 272.23C93.8154 272.212 93.8095 272.198 93.8053 272.188C93.8032 272.182 93.8015 272.178 93.8002 272.175C93.7996 272.173 93.7988 272.172 93.7984 272.17C93.7982 272.17 93.7982 272.169 93.7981 272.169L93.7977 272.168L93.9514 272.116L93.7975 272.167L93.7766 272.105L95.0617 269.412C94.2391 268.292 93.0938 267.869 91.9322 267.747C90.7358 267.622 89.5493 267.817 88.6903 267.895C88.353 267.926 87.8269 268.135 87.1997 268.468C86.5796 268.798 85.8816 269.237 85.2078 269.707C84.5342 270.176 83.8875 270.675 83.37 271.121C82.8468 271.572 82.4719 271.957 82.3241 272.2L82.2579 272.309L82.1365 272.271C81.2491 271.992 80.6122 271.918 79.9967 272.079C79.3761 272.241 78.7541 272.645 77.91 273.375C76.2372 274.821 75.4058 276.862 76.4795 278.519L76.5292 278.596L76.4897 278.678C74.4511 282.908 74.3973 284.978 74.9061 286.182C75.1607 286.784 75.5626 287.187 75.9704 287.548C76.3682 287.901 76.8018 288.234 77.0418 288.674L77.0617 288.71L77.0616 288.751C77.0702 292.295 79.0427 300.137 86.8363 303.175C90.7212 304.689 95.3773 303.826 99.244 302.492C103.089 301.166 106.1 299.395 106.771 299.078C107.127 298.861 107.476 298.426 107.803 297.796Z" fill="black"/>
<path d="M81.4386 287.783C78.9803 285.67 75.5854 283.038 76.5075 278.769C79.5345 284.263 80.6257 286.18 81.4386 287.783Z" fill="#A8A6A6"/>
<path d="M83.1611 277.308C82.1887 274.711 82.1862 275.035 82.0239 272.114C79.9156 272.762 83.6479 281.041 85.9188 283.8C84.9461 281.041 83.7218 278.805 83.1611 277.308Z" fill="#A8A6A6"/>
<path d="M92.7353 270.003C97.3521 275.116 97.0329 279.407 99.1831 281.409C97.8948 281.115 93.9146 280.519 91.7463 277.4C87.0559 270.652 88.1916 264.972 92.7353 270.003Z" fill="#EDEDED"/>
<path d="M81.4645 295.641L81.3292 295.73L76.7684 288.842L77.0391 288.663L81.5999 295.551L81.4645 295.641Z" fill="black"/>
<path d="M85.7681 283.866C84.7452 281.513 83.569 279.021 82.7712 276.883C82.372 275.814 82.0641 274.824 81.9172 273.978C81.7712 273.137 81.7783 272.409 82.0419 271.881L82.3321 272.026C82.1166 272.457 82.0938 273.099 82.2368 273.922C82.3787 274.74 82.6786 275.707 83.0751 276.77C83.8689 278.897 85.0367 281.369 86.0659 283.737L85.7681 283.866Z" fill="black"/>
<path d="M81.2133 288.021C81.0859 288.105 81.0783 288.11 81.0778 288.11L81.0776 288.11C81.0775 288.11 81.0772 288.109 81.0769 288.109C81.0765 288.108 81.0759 288.107 81.075 288.106C81.0732 288.103 81.0703 288.099 81.0667 288.093C81.0596 288.082 81.049 288.066 81.0351 288.045C81.0074 288.002 80.9664 287.939 80.9141 287.857C80.8094 287.694 80.6589 287.457 80.4747 287.161C80.1062 286.568 79.603 285.74 79.0642 284.794C77.9886 282.906 76.7637 280.539 76.1906 278.654L76.3457 278.607L76.501 278.56C77.0627 280.407 78.2716 282.748 79.3461 284.634C79.8823 285.575 80.3832 286.4 80.75 286.989C80.9335 287.284 81.0835 287.52 81.1874 287.682C81.2394 287.763 81.28 287.826 81.3074 287.868C81.3211 287.889 81.3315 287.905 81.3385 287.916C81.342 287.921 81.3446 287.925 81.3463 287.928C81.3472 287.929 81.3478 287.93 81.3483 287.931L81.3489 287.932C81.349 287.932 81.3489 287.932 81.2133 288.021Z" fill="black"/>
<path d="M102.041 282.185C96.2609 281.97 93.6642 274.522 93.0884 270.825C94.644 273.744 96.4925 274.415 97.4168 274.751C98.5721 275.171 102.019 280.085 102.041 282.185Z" fill="#A8A6A6"/>
<path d="M101.879 282.199C101.585 278.573 99.3616 276.412 96.4552 274.398C94.4881 273.034 93.6012 271.497 93.3305 270.489L93.4874 270.447L93.6441 270.405C93.8924 271.329 94.7277 272.806 96.6401 274.131C99.5674 276.16 101.896 278.396 102.203 282.173L101.879 282.199Z" fill="black"/>
<path d="M98.0061 276.049C98.3315 275.237 101.901 279.132 101.901 282.216C101.018 280.326 101.183 279.295 98.0061 276.049Z" fill="#757575"/>
<path d="M102.185 282.32C102.185 282.32 100.593 284.285 98.4901 284.044C96.3873 283.803 95.1114 283.739 93.4429 281.285C92.0465 279.231 89.1836 273.533 89.5982 272.316C97.3953 285.161 99.823 282.344 102.185 282.32Z" fill="white"/>
<path d="M98.9562 302.407C98.9562 302.407 92.1308 304.49 88.8408 303.601C85.5508 302.712 84.4596 301.816 82.8366 300.68C82.1655 300.21 79.0144 297.593 79.2667 295.973C87.1696 303.261 87.8672 303.318 98.9562 302.407Z" fill="#EDEDED"/>
<path d="M248.27 10.6737C246.582 13.6601 242.591 13.4329 240.806 12.946C241.779 14.8937 245.998 15.5429 249.244 12.2968C251.84 9.69981 250.325 5.37158 249.244 3.53208C249.622 4.66824 249.958 7.68719 248.27 10.6737Z" fill="#ABAAAA"/>
<path d="M236.749 3.20735C237.398 1.90888 239.962 -0.395902 245.025 0.772721C250.088 1.94134 231.718 11.3229 236.749 3.20735Z" fill="#F3F3F3"/>
<defs>
<linearGradient id="paint0_linear_3250_17411" x1="229.907" y1="49.9599" x2="555.747" y2="113.174" gradientUnits="userSpaceOnUse">
<stop stop-color="#EB4D2E"/>
<stop offset="0.456731" stop-color="#EA1103"/>
<stop offset="0.629808" stop-color="#ED7256"/>
<stop offset="1" stop-color="#EA1A0A"/>
</linearGradient>
<linearGradient id="paint1_linear_3250_17411" x1="217.89" y1="71.9685" x2="544.262" y2="135.286" gradientUnits="userSpaceOnUse">
<stop stop-color="#FF9206"/>
<stop offset="0.394231" stop-color="#D97C04"/>
<stop offset="0.613421" stop-color="#FBAC47"/>
<stop offset="1" stop-color="#F98C01"/>
</linearGradient>
<linearGradient id="paint2_linear_3250_17411" x1="205.746" y1="96.0524" x2="531.319" y2="159.215" gradientUnits="userSpaceOnUse">
<stop stop-color="#FFFF00"/>
<stop offset="0.384615" stop-color="#D3D301"/>
<stop offset="0.645074" stop-color="#FCFC3F"/>
<stop offset="1" stop-color="#EBEB01"/>
</linearGradient>
<linearGradient id="paint3_linear_3250_17411" x1="193.967" y1="118.266" x2="518.739" y2="181.273" gradientUnits="userSpaceOnUse">
<stop stop-color="#30871E"/>
<stop offset="0.394231" stop-color="#246416"/>
<stop offset="0.643985" stop-color="#42B52A"/>
<stop offset="1" stop-color="#2F861D"/>
</linearGradient>
<linearGradient id="paint4_linear_3250_17411" x1="181.808" y1="135.296" x2="504.98" y2="197.993" gradientUnits="userSpaceOnUse">
<stop stop-color="#244FFF"/>
<stop offset="0.355769" stop-color="#1B39B4"/>
<stop offset="0.649876" stop-color="#3F64F6"/>
<stop offset="1" stop-color="#0836F3"/>
</linearGradient>
<linearGradient id="paint5_linear_3250_17411" x1="171.688" y1="153.236" x2="493.794" y2="215.726" gradientUnits="userSpaceOnUse">
<stop stop-color="#B519A9"/>
<stop offset="0.370192" stop-color="#72106A"/>
<stop offset="0.64064" stop-color="#CE1FC2"/>
<stop offset="1" stop-color="#AC19A1"/>
</linearGradient>
<linearGradient id="paint6_linear_3250_17411" x1="28.0323" y1="204.446" x2="5.56039" y2="180.598" gradientUnits="userSpaceOnUse">
<stop stop-color="#F5F4EF"/>
<stop offset="1" stop-color="#CCCCCC"/>
</linearGradient>
</defs>
</svg>