<svg width="331" height="331" viewBox="0 0 331 331" fill="none" xmlns="http://www.w3.org/2000/svg">
<path d="M331 165.5C331 256.903 256.903 331 165.5 331C74.0969 331 0 256.903 0 165.5C0 74.0969 74.0969 0 165.5 0C256.903 0 331 74.0969 331 165.5Z" fill="#F2F3F5"/>
<path fill-rule="evenodd" clip-rule="evenodd" d="M86.0343 150.769C86.0343 150.769 65.958 67.8436 54.2952 51.5159C54.2952 51.5159 88.1861 30.4885 123.346 30.4885C158.507 30.4885 184.673 44.0092 184.673 44.0092V150.769H86.0343Z" fill="#630701"/>
<path fill-rule="evenodd" clip-rule="evenodd" d="M46 292.028C46 286.214 119.161 274.835 162.369 274.835C205.578 274.835 284 283.58 284 291.32C284 299.059 226.165 310 162.369 310C98.5739 310 46 301.898 46 292.028Z" fill="#DDC7A2"/>
<path fill-rule="evenodd" clip-rule="evenodd" d="M107.278 262.261L96.067 288.832H93.8453L102.42 257.94L107.278 262.261Z" fill="#852500"/>
<path fill-rule="evenodd" clip-rule="evenodd" d="M95.8411 261.612L92.5596 288.832H95.0934L104.013 262.131L95.8411 261.612Z" fill="#9B3601"/>
<path fill-rule="evenodd" clip-rule="evenodd" d="M194.577 256.447L207.041 285.987H209.505L199.978 251.644L194.577 256.447Z" fill="#852500"/>
<path fill-rule="evenodd" clip-rule="evenodd" d="M207.288 255.722L210.936 285.987H208.117L198.202 256.296L207.288 255.722Z" fill="#9B3601"/>
<path fill-rule="evenodd" clip-rule="evenodd" d="M116.052 262.261L113.475 282.374H116.746L128.984 254.533H117.913L116.052 262.261Z" fill="#852500"/>
<path fill-rule="evenodd" clip-rule="evenodd" d="M188.815 262.261L191.392 282.374H188.121L175.883 254.533H186.954L188.815 262.261Z" fill="#852500"/>
<path fill-rule="evenodd" clip-rule="evenodd" d="M209.634 244.787V196.215H126.913L124.401 248.194L209.634 244.787Z" fill="#630701"/>
<path d="M209.634 244.787H120.312V256.177H209.634V244.787Z" fill="#430000"/>
<path fill-rule="evenodd" clip-rule="evenodd" d="M126.558 244.781C126.558 244.781 123.357 204.96 144.531 203.316L130.765 191.099L116.746 193.327L118.613 247.129L126.558 244.781Z" fill="#430000"/>
<path fill-rule="evenodd" clip-rule="evenodd" d="M80.1598 180.623C80.1598 180.623 82.8066 250.655 85.7653 260.698C85.7653 260.698 119.592 264.397 123.621 260.698L122.077 176.496L80.1598 180.623Z" fill="#630701"/>
<path fill-rule="evenodd" clip-rule="evenodd" d="M81.919 219.411C81.919 219.411 79.4713 182.391 80.3481 181.499C81.225 180.607 124.67 180.282 124.67 180.282V185.041C124.67 185.041 95.4108 184.82 81.919 219.411Z" fill="#510201"/>
<path fill-rule="evenodd" clip-rule="evenodd" d="M92.9469 150.769L72.6178 152.829C72.6178 152.829 69.6375 153.825 69.6375 158.779C69.6375 158.779 69.6375 175.344 71.2137 178.162C72.7899 180.98 78.745 180.628 78.745 180.628H120.544V146.956L92.9469 150.769Z" fill="#630701"/>
<path fill-rule="evenodd" clip-rule="evenodd" d="M72.6178 152.829C72.6178 152.829 67.7063 155.296 73.6614 155.404C79.6165 155.512 100.65 155.642 119.463 165.333V146.945L72.6178 152.829Z" fill="#7C0809"/>
<path fill-rule="evenodd" clip-rule="evenodd" d="M210.618 147.989C210.618 147.989 220.032 146.578 220.382 153.511C220.732 160.444 222.249 175.712 219.796 176.475C217.343 177.237 207.751 155.507 210.618 147.989Z" fill="#430000"/>
<path fill-rule="evenodd" clip-rule="evenodd" d="M216.412 180.623V191.104L203.894 182.91L216.412 180.623Z" fill="#430000"/>
<path d="M204.383 259.167C204.383 259.167 207.789 279.227 207.434 282.753C207.078 286.279 205.33 287.864 205.857 290.238C206.385 292.612 204.018 293.943 217.778 294.565C231.539 295.187 218.714 285.311 218.714 285.311L215.142 283.37L215.578 258.291L204.383 259.167Z" fill="#F9E3D2"/>
<path d="M173.763 271.888C173.763 271.888 176.13 284.576 175.775 288.113C175.42 291.65 173.672 293.223 174.199 295.603C174.726 297.983 172.359 299.302 186.12 299.93C199.881 300.557 187.056 290.682 187.056 290.682L183.489 288.74L183.925 271.12L173.763 271.888Z" fill="#F9E3D2"/>
<path fill-rule="evenodd" clip-rule="evenodd" d="M138.189 86.4643L150.524 91.5644L150.572 98.5951V105.145H138.189V86.4643Z" fill="#F9E3D2"/>
<path d="M155.365 91.6347C163.757 91.6347 173.543 84.4632 173.543 67.0377C173.543 59.4661 172.924 54.7501 171.117 49.5743C167.808 40.0882 160.944 33.4901 149.598 33.4901C140.663 33.4901 133.229 38.3575 129.694 45.8318C127.397 50.6993 127.473 56.7079 127.473 63.1816C127.473 69.6553 128.791 68.2979 129.054 70.6559C129.791 77.2053 131.744 82.6839 135.951 86.6861C140.841 91.3047 146.979 91.6347 155.365 91.6347Z" fill="#F9E3D2"/>
<path fill-rule="evenodd" clip-rule="evenodd" d="M163.865 61.743C163.865 60.2611 164.403 59.1524 165.199 58.9631C165.477 58.9225 165.76 58.9668 166.012 59.0903C166.265 59.2137 166.474 59.4106 166.614 59.6554C167.577 61.2508 168.013 64.6905 166.549 65.2043C164.801 65.7776 163.865 64.193 163.865 61.743Z" fill="#262626"/>
<path fill-rule="evenodd" clip-rule="evenodd" d="M150.744 65.6262C148.845 65.5504 148.512 62.5542 149.2 60.8831C149.335 60.5694 149.814 59.2335 151.169 59.2606C151.612 59.2874 152.039 59.4284 152.412 59.67C152.784 59.9116 153.088 60.2456 153.294 60.6397C153.988 62.419 153.832 65.7019 151.234 65.6262H150.744Z" fill="#262626"/>
<path d="M159.234 66.4482C159.371 66.5878 159.523 66.7129 159.686 66.8214C159.954 67.0037 160.256 67.131 160.573 67.196C160.891 67.261 161.218 67.2623 161.536 67.2L161.671 67.1675C162.591 67.0215 163.215 67.1351 163.441 67.4487C164.339 68.6926 164.054 70.0123 162.515 71.0939C161.708 71.6672 160.595 71.8673 160.003 71.5699C159.933 71.5351 159.856 71.5161 159.778 71.5143C159.7 71.5125 159.622 71.5278 159.55 71.5592C159.479 71.5906 159.415 71.6373 159.363 71.6962C159.311 71.755 159.272 71.8245 159.25 71.8998C159.188 72.0527 159.183 72.223 159.236 72.3792C159.29 72.5354 159.398 72.6668 159.54 72.7489C160.514 73.2356 162.015 72.9706 163.118 72.208C165.205 70.737 165.684 68.5358 164.328 66.6537C163.79 65.8803 162.795 65.7019 161.515 65.9074L161.348 65.9398C160.976 66.0147 160.589 65.9389 160.272 65.7289C160.178 65.6628 160.09 65.5886 160.008 65.5072C159.955 65.4522 159.89 65.4094 159.819 65.3814C159.748 65.3535 159.672 65.3412 159.595 65.3453C159.519 65.3494 159.444 65.3698 159.376 65.4052C159.308 65.4406 159.249 65.4901 159.201 65.5504C159.102 65.6804 159.051 65.8412 159.056 66.0052C159.062 66.1691 159.125 66.3259 159.234 66.4482Z" fill="#262626"/>
<path d="M159.752 79.3923C159.83 79.408 159.904 79.4391 159.97 79.4839C160.035 79.5288 160.092 79.5864 160.135 79.6533C160.178 79.7203 160.208 79.7954 160.222 79.874C160.236 79.9527 160.235 80.0334 160.218 80.1114C160.096 80.697 159.335 80.9767 157.472 81.2643C157.224 81.3026 156.975 81.3237 156.725 81.3274C156.246 81.339 155.768 81.3158 155.293 81.2582C155.023 81.229 154.819 81.1991 154.695 81.1789C154.537 81.1507 154.396 81.0606 154.304 80.9283C154.212 80.796 154.177 80.6325 154.205 80.4736C154.233 80.3148 154.322 80.1736 154.454 80.0813C154.585 79.9889 154.748 79.9528 154.906 79.981L155.445 80.0502C155.865 80.0989 156.287 80.1191 156.71 80.1106C156.91 80.1089 157.109 80.092 157.306 80.0601C157.889 79.9876 158.464 79.8611 159.023 79.6824L159.152 79.6321C159.219 79.5391 159.311 79.4672 159.417 79.4247C159.523 79.3822 159.639 79.371 159.752 79.3923Z" fill="#262626"/>
<path d="M191.736 201.558C191.736 201.558 196.529 199.557 196.997 202.142C197.465 204.728 200.677 262.872 201.408 264.284C201.408 264.284 212.888 269.449 221.533 262.991L218.73 197.681C218.73 197.681 219.806 191.104 215.223 188.167C210.64 185.231 205.997 182.91 205.997 182.91L184.732 193.451L191.736 201.558Z" fill="#103157"/>
<path d="M215.546 265.733C215.546 265.733 224.599 196.637 208.741 189.763C208.741 189.763 205.567 186.475 198.864 185.436C192.161 184.398 206.637 183.44 206.637 183.44C206.637 183.44 217.047 186.848 218.236 190.839C219.424 194.83 221.533 263.197 221.533 263.197L215.546 265.733Z" fill="#174974"/>
<path fill-rule="evenodd" clip-rule="evenodd" d="M141.605 114.014V101.624H152.03V117.275L141.605 114.014Z" fill="#1F78B9"/>
<path fill-rule="evenodd" clip-rule="evenodd" d="M118.559 148.914C118.559 148.914 104.454 153.933 88.8531 153.495C73.2526 153.057 88.8531 128.741 88.8531 128.741C88.8531 128.741 105.852 102.927 115.406 92.619C115.406 92.619 118.925 89.8012 119.489 94.9067C120.054 100.012 117.553 119.487 117.553 119.487C117.553 119.487 110.586 129.222 107.606 132.646L115.579 131.445L118.559 148.914Z" fill="#338AE3"/>
<path fill-rule="evenodd" clip-rule="evenodd" d="M119.387 98.2436C119.652 106.079 117.025 113.736 112.012 119.742C103.614 129.698 96.605 134.474 96.605 134.474C96.605 134.474 92.4843 138.422 95.6367 137.497C98.7891 136.572 102.91 135.069 102.91 135.069C102.91 135.069 97.1268 141.472 96.3414 143.69C95.556 145.907 95.8034 147.037 98.1812 145.545C100.559 144.052 107.38 135.685 107.38 135.685C109.669 137.369 111.513 139.59 112.751 142.155C113.989 144.721 114.583 147.552 114.481 150.401L122.077 147.205L114.546 121.413C114.546 121.413 122.276 110.401 119.387 98.2436Z" fill="#1F78B9"/>
<path fill-rule="evenodd" clip-rule="evenodd" d="M116.073 92.1863C116.073 92.1863 120.119 89.6228 122.615 92.2241C125.111 94.8255 123.121 113.955 121.216 119.222H116.09C116.09 119.222 123.508 98.3842 116.073 92.1863Z" fill="#C83D20"/>
<path fill-rule="evenodd" clip-rule="evenodd" d="M120.264 91.083L134.45 95.6043C134.45 95.6043 137.253 107.995 141.05 109.99C141.793 109.992 142.52 110.202 143.15 110.596C143.78 110.991 144.288 111.555 144.617 112.224C145.418 113.663 146.422 114.978 147.597 116.129C147.597 116.129 151.159 110.58 153.612 109.168C153.612 109.168 154.607 101.77 151.686 96.8374C151.686 96.8374 153.902 98.7141 163.892 98.7736C163.892 98.7736 167.577 110.672 166.641 121.386L121.507 118.33C121.507 118.33 126.467 97.719 120.264 91.083Z" fill="#B03114"/>
<path fill-rule="evenodd" clip-rule="evenodd" d="M163.886 98.7736C163.886 98.7736 164.295 98.011 166.345 98.7736C166.345 98.7736 170.546 115.691 169.992 121.856H166.227C166.227 121.856 166.049 103.533 163.886 98.7736Z" fill="#C83D20"/>
<path fill-rule="evenodd" clip-rule="evenodd" d="M166.345 98.7736C166.345 98.7736 171.186 100.785 178.847 116.491L169.992 120.153L166.345 98.7736Z" fill="#338AE3"/>
<path fill-rule="evenodd" clip-rule="evenodd" d="M138.183 91.083L134.45 95.6043L138.597 111.694C138.597 111.694 144.789 112.635 147.769 104.057C147.769 104.057 148.528 110.342 153.084 112.046C157.641 113.749 151.686 96.8374 151.686 96.8374L150.572 96.3669C150.572 96.3669 150.809 101.299 146.85 99.4226C137.306 94.8904 138.183 91.083 138.183 91.083Z" fill="#338AE3"/>
<path d="M129.608 195.35C129.608 195.35 143.627 207.134 168.776 210.493L164.311 268.978C164.311 268.978 172.72 276.382 187.266 271.801L191.29 207.486C191.29 207.486 193.576 199.736 191.564 197.269C189.552 194.803 176.05 185.025 176.05 185.025L129.608 195.35Z" fill="#0A2D46"/>
<path d="M156.78 195.22C156.78 195.22 143.52 194.868 143.52 198.919C143.52 202.97 150.997 207.378 175.183 205.084C175.183 205.084 172.806 237.859 166.108 270.103C166.108 270.103 174.307 274.154 183.419 272.391L188.455 210.568C188.455 210.568 190.649 195.225 181.601 195.231C172.553 195.236 156.78 195.22 156.78 195.22Z" fill="#133155"/>
<path d="M181.311 195.155C181.311 195.155 188.304 196.036 188.164 203.965C188.024 211.894 182.785 272.888 182.785 272.888L187.336 271.974C187.336 271.974 195.405 201.472 191.935 196.831C187.96 191.515 186.109 191.964 186.109 191.964L181.311 195.155Z" fill="#174974"/>
<path d="M174.409 297.453C174.409 297.453 161.579 299.465 169.906 300.433C178.234 301.401 202.242 302.72 209.688 301.579C217.133 300.438 219.941 299.816 215.826 295.765C211.71 291.715 198.132 286.333 190.849 285.982C190.849 285.982 184.286 286.425 187.083 292.061C191.639 301.428 174.409 297.453 174.409 297.453Z" fill="#9F2712"/>
<path d="M207.073 292.104C207.073 292.104 194.248 294.116 202.57 295.084C210.893 296.052 234.907 297.377 242.379 296.23C249.851 295.084 252.632 294.467 248.511 290.417C244.391 286.366 230.824 280.99 223.54 280.638C223.54 280.638 216.977 281.076 219.742 286.717C224.288 296.057 207.073 292.104 207.073 292.104Z" fill="#9F2712"/>
<path d="M234.745 283.516C234.745 283.516 246.505 288.513 248.942 291.796C251.379 295.079 230.452 289.946 220.64 284.132C220.64 284.132 220.102 280.081 226.95 281.314C233.798 282.548 234.745 283.516 234.745 283.516Z" fill="#AF3314"/>
<path d="M201.903 288.989C201.903 288.989 213.658 293.986 216.1 297.269C218.542 300.552 197.605 295.419 187.793 289.605C187.793 289.605 187.255 285.555 194.103 286.788C200.951 288.021 201.903 288.989 201.903 288.989Z" fill="#AF3314"/>
<path fill-rule="evenodd" clip-rule="evenodd" d="M112.168 134.836L116.896 146.518L126.854 144.247L127.343 135.691L123.847 133.024L112.168 134.836Z" fill="#E6CEAA"/>
<path fill-rule="evenodd" clip-rule="evenodd" d="M208.929 128.27L209.424 140.747L200.021 142.305L195.916 134.047L199.762 129.201L208.929 128.27Z" fill="#E6CEAA"/>
<path d="M127.737 69.5142V56.3794C118.53 55.4242 103.441 62.1508 97.6869 65.335L99.605 67.7231L106.702 70.1154H113.914L127.737 69.5142Z" fill="#23262A"/>
<path d="M205.869 57.4899C202.503 55.085 182.63 53.2814 173.414 52.6802L174.015 65.9069C186.035 64.7045 209.234 59.8947 205.869 57.4899Z" fill="#23262A"/>
<path d="M150.103 52.9614C123.178 54.4043 108.833 60.5767 102.021 63.182C99.2598 64.2383 97.0779 66.1379 99.0164 67.8951C95.5257 65.5937 97.2495 59.3955 124.86 50.7567C124.515 49.3469 124.869 47.2406 126.843 45.1456C126.341 43.0591 126.489 39.7698 128.466 36.4756C127.793 36.1743 127.091 35.3223 126.931 33.7225C126.367 33.5887 125.613 33.2226 124.86 32.5437C123.294 32.298 120.7 31.6872 118.671 30.7164C114.724 32.1114 106.228 34.6655 103.824 33.7225C107.35 27.3095 116.891 14.2431 126.843 13.2812C139.284 12.0788 135.077 15.0848 143.491 15.686C151.905 16.2873 166.522 33.7225 171.738 43.3419C186.163 46.9492 201.189 49.9553 205.396 56.5686C198.184 54.765 177.028 51.5184 150.103 52.9614Z" fill="#B03114"/>
<path d="M144.492 39.2235C141.324 41.134 139.738 44.5148 139.242 46.3267C139.184 46.5366 139.027 46.7068 138.819 46.7693L127.136 50.2753L124.985 50.7057C124.573 50.7882 124.205 50.4323 124.274 50.0173L124.708 47.4138C124.724 47.3188 124.762 47.229 124.82 47.152L126.346 45.1164C126.465 44.9586 126.498 44.7527 126.436 44.5655L125.985 43.2122C125.952 43.1129 125.945 43.0068 125.966 42.9042L126.52 40.1336C126.53 40.0812 126.547 40.0304 126.571 39.9826L128.145 36.835C128.26 36.6035 128.215 36.3239 128.032 36.141L125.402 33.5103C125.357 33.4646 125.304 33.4266 125.246 33.3977L124.212 32.8805C124.159 32.8537 124.101 32.8351 124.042 32.8252L120.653 32.2601C120.569 32.2461 120.489 32.2145 120.418 32.1673L118.993 31.2171C118.824 31.1044 118.61 31.0847 118.423 31.1647L117.206 31.6863C116.606 31.9438 115.983 31.2225 116.036 30.5709C116.067 30.1785 116.039 29.7472 115.928 29.2869C115.842 28.9328 116.033 28.5538 116.381 28.4482C119.253 27.5785 121.087 26.0064 121.94 24.9638C122.166 24.688 122.585 24.603 122.926 24.7081C124.112 25.0743 126.558 25.0109 130.263 22.9C130.535 22.7449 130.881 22.8177 131.085 23.0556C133.509 25.8824 138.689 27.0688 141.557 27.3748C141.89 27.4103 142.138 27.6998 142.126 28.0344C142.031 30.518 142.445 35.1188 144.692 38.2466C144.92 38.5642 144.827 39.0216 144.492 39.2235Z" fill="black" fill-opacity="0.3"/>
<path d="M132.427 77.0972C132.427 75.8857 130.006 62.5651 130.006 62.5651C128.758 62.8358 127.542 63.242 126.381 63.7765C125.7 64.1216 125.12 64.6374 124.695 65.2741C124.271 65.9108 124.018 66.6468 123.96 67.4109C123.96 68.6223 123.96 69.8338 125.17 72.2784C127.591 77.0972 131.222 77.0972 132.427 77.0972Z" fill="#F9E3D2"/>
<path d="M121.872 65.3057C121.872 60.4959 121.727 56.2874 122.328 56.8887L126.535 55.6862L131.944 54.4838C131.944 55.6862 133.747 58.3316 133.747 59.2935C133.747 60.496 132.545 62.2996 132.545 67.1093C132.545 71.919 134.348 73.7227 134.348 79.7348C134.348 85.747 128.483 88.753 124.877 98.3725C121.271 107.992 124.276 107.391 122.473 107.391C117.665 107.391 115.862 95.9676 114.66 88.753C113.458 81.5385 120.069 77.33 121.872 74.9251C123.675 72.5203 121.872 71.3178 121.872 65.3057Z" fill="#DFDFDF"/>
<path d="M172.168 58.1917C169.708 54.5792 163.458 54.9046 160.64 55.5189C159.591 59.8947 165.741 57.8039 168.289 58.6754C170.02 59.2676 175.301 59.7144 175.818 59.2935C176.062 59.095 173.153 59.6387 172.168 58.1917Z" fill="white"/>
<path d="M143.434 58.6666C145.894 55.0542 152.144 55.3796 154.961 55.9939C156.011 60.3697 149.861 58.2788 147.313 59.1503C145.581 59.7426 140.3 60.1893 139.783 59.7684C139.54 59.57 142.448 60.1136 143.434 58.6666Z" fill="white"/>
<path d="M131.944 61.0972C132.906 59.1733 132.345 55.4859 131.944 55.085C132.545 54.4838 134.95 54.4838 139.758 53.8826C131.944 72.8348 149.113 81.3759 155.985 82.1397C164.639 83.1016 171.01 80.336 173.414 64.1033C178.823 73.1215 174.616 74.9251 177.621 79.7348C180.626 84.5446 175.818 86.9494 180.025 93.5628C183.391 98.8535 182.63 107.792 181.828 111.599C181.628 109.996 180.266 105.707 176.419 101.379C180.266 106.669 180.426 114.004 180.025 117.01C179.625 116.609 175.818 109.074 173.414 103.783C174.616 117.01 182.429 124.826 183.631 129.034C182.429 129.636 177.02 127.231 172.813 123.022C173.294 126.389 181.027 133.243 184.833 136.249L175.818 147.672C168.406 149.075 151.778 150.798 144.566 146.47C135.551 141.059 136.753 134.445 137.955 126.028C133.146 131.439 128.338 133.243 128.338 130.838C128.338 128.433 135.551 117.611 131.944 114.004C125.934 111.599 125.333 104.986 125.333 99.5749C125.333 94.164 131.944 84.5446 133.146 81.5385C134.349 78.5324 130.742 70.7166 130.141 67.7105C129.54 64.7045 130.742 63.502 131.944 61.0972Z" fill="#F0F0F0"/>
<path fill-rule="evenodd" clip-rule="evenodd" d="M159.023 79.904C163.64 83.1411 168.932 85.2724 174.495 86.1344C174.495 86.1344 175.296 79.5201 176.173 78.9251C179.225 78.8495 182.221 79.7531 184.727 81.5049C184.727 81.5049 184.14 87.9949 178.121 89.758C178.121 89.758 171.961 89.4443 157.678 80.6342L159.023 79.904Z" fill="#962101"/>
<path fill-rule="evenodd" clip-rule="evenodd" d="M176.173 78.9251C176.173 78.9251 176.173 80.1853 180.068 81.1912C183.963 82.1972 184.727 81.5049 184.727 81.5049C184.727 81.5049 181.919 79.1469 176.173 78.9251Z" fill="#D9391B"/>
<path fill-rule="evenodd" clip-rule="evenodd" d="M177.136 79.2605C177.136 79.2605 177.136 80.234 180.149 81.0128C183.161 81.7916 183.748 81.2561 183.748 81.2561C183.748 81.2561 181.574 79.4335 177.136 79.2605Z" fill="#8C0B01"/>
<path fill-rule="evenodd" clip-rule="evenodd" d="M178.486 80.9154C180.368 81.6583 182.385 81.9919 184.404 81.8943C184.404 81.8943 183.446 86.8591 179.503 88.7142C175.56 90.5692 177.131 84.5552 178.486 80.9154Z" fill="#BF300A"/>
<path fill-rule="evenodd" clip-rule="evenodd" d="M180.714 81.6563C181.821 81.9341 182.961 82.0614 184.103 82.0349C184.103 82.0349 182.661 86.9673 180.041 88.2328C177.421 89.4984 179.374 84.3983 180.714 81.6563Z" fill="#DC3417"/>
<path d="M155.851 74.8717C150.847 74.1803 140.339 74.1239 138.34 79.4299C150.931 79.2788 161.463 78.9107 155.851 74.8717Z" fill="white"/>
<path d="M158.308 74.8717C163.312 74.1803 173.82 74.1239 175.818 79.4299C163.228 79.2788 152.696 78.9107 158.308 74.8717Z" fill="white"/>
<path d="M140.359 109.796C138.435 112.2 133.948 113.202 131.944 113.403C134.95 118.213 130.262 135.768 137.955 133.844C147.571 131.439 142.763 106.789 140.359 109.796Z" fill="black" fill-opacity="0.1"/>
<path d="M125.934 96.2213C124.732 100.777 124.732 112.2 131.944 113.403C137.955 111.599 134.349 112.802 138.556 110.998C131.344 112.441 127.136 101.748 125.934 96.2213Z" fill="black" fill-opacity="0.1"/>
<path d="M146.97 115.46C145.046 117.865 140.559 118.867 138.556 119.067C141.561 123.877 136.873 141.433 144.566 139.509C154.182 137.104 149.374 112.454 146.97 115.46Z" fill="black" fill-opacity="0.1"/>
<path d="M174.616 115.46C172.693 117.865 168.205 118.867 166.202 119.067C169.207 123.877 164.519 141.433 172.212 139.509C181.828 137.104 177.02 112.454 174.616 115.46Z" fill="black" fill-opacity="0.1"/>
<path fill-rule="evenodd" clip-rule="evenodd" d="M120.872 197.21C120.872 197.21 143.853 190.044 177.384 199.914C177.384 199.914 202.038 182.18 222.485 180.888C222.485 180.888 210.424 149.552 209.289 139.888C208.154 130.223 210.995 104.771 210.995 104.771L168.152 120.391L125.999 116.167L105.293 120.034C105.293 120.034 113.265 136.113 115.691 143.533C121.415 161.029 120.872 197.21 120.872 197.21Z" fill="#E6CEAA"/>
<path fill-rule="evenodd" clip-rule="evenodd" d="M177.384 199.909C177.384 199.909 202.038 182.175 222.485 180.882C222.485 180.882 210.425 149.547 209.289 139.882C208.154 130.217 210.995 104.766 210.995 104.766L168.152 120.385" fill="#FAE4C6"/>
<path fill-rule="evenodd" clip-rule="evenodd" d="M170.433 151.002L170.783 149.255L206.54 140.093V143.181L170.433 151.002Z" fill="#E6CEAA"/>
<path fill-rule="evenodd" clip-rule="evenodd" d="M106.288 120.331L114.233 127.027L126.214 116.513L126.913 116.924L124.401 119.45C124.401 119.45 151.503 121.445 158.34 123.03V126.145C158.34 126.145 135.66 121.678 120.624 123.679L116.977 127.027C116.977 127.027 127.962 124.733 139.297 125.945C150.631 127.156 164.704 128.903 164.704 128.903V131.959C164.704 131.959 143.267 128.611 132.809 128.611C122.351 128.611 110.963 131.651 110.963 131.651L106.288 120.331Z" fill="#C4AC8D"/>
<path fill-rule="evenodd" clip-rule="evenodd" d="M164.709 133.625V135.691L137.747 134.474V131.434L164.709 133.625Z" fill="#C4AC8D"/>
<path fill-rule="evenodd" clip-rule="evenodd" d="M164.709 137.697V139.303L137.747 138.503V135.691L164.709 137.697Z" fill="#C4AC8D"/>
<path fill-rule="evenodd" clip-rule="evenodd" d="M128.984 143.181V157.275L163.892 157.627L164.709 143.69L128.984 143.181Z" fill="#C4AC8D"/>
<path fill-rule="evenodd" clip-rule="evenodd" d="M123.642 159.39V162.381H164.387V160.888L123.642 159.39Z" fill="#C4AC8D"/>
<path fill-rule="evenodd" clip-rule="evenodd" d="M135.38 163.792L135.821 165.993H164.387V163.792H135.38Z" fill="#C4AC8D"/>
<path fill-rule="evenodd" clip-rule="evenodd" d="M124.675 167.318L125.568 169.693L164.387 169.076V167.318H124.675Z" fill="#C4AC8D"/>
<path fill-rule="evenodd" clip-rule="evenodd" d="M128.984 182.91L129.947 185.463H170.433V184.187L128.984 182.91Z" fill="#C4AC8D"/>
<path fill-rule="evenodd" clip-rule="evenodd" d="M180.332 191.364C180.332 191.364 193.038 181.937 208.639 178.416V181.234C208.639 181.234 190.499 186.772 180.332 194.008V191.364Z" fill="#E6CEAA"/>
<path fill-rule="evenodd" clip-rule="evenodd" d="M179.718 189.779L178.933 187.929C178.933 187.929 187.54 181.764 192.78 180.266V182.91C192.78 182.91 185.329 185.901 179.718 189.779Z" fill="#E6CEAA"/>
<path fill-rule="evenodd" clip-rule="evenodd" d="M195.319 178.946V181.499C199.054 179.396 203.162 178.049 207.412 177.535V174.625C207.412 174.625 203.028 174.803 195.319 178.946Z" fill="#E6CEAA"/>
<path fill-rule="evenodd" clip-rule="evenodd" d="M170.874 160.444L204.927 154.895V152.337L170.433 158.86L170.874 160.444Z" fill="#E6CEAA"/>
<path fill-rule="evenodd" clip-rule="evenodd" d="M170.783 155.512L170.433 156.832L203.033 151.283L202.683 148.903L170.783 155.512Z" fill="#E6CEAA"/>
<path fill-rule="evenodd" clip-rule="evenodd" d="M170.433 154.014V152.337L194.49 147.989V148.903L170.433 154.014Z" fill="#E6CEAA"/>
<path fill-rule="evenodd" clip-rule="evenodd" d="M169.997 121.591L208.638 108.027V112.873L169.997 124.236V121.591Z" fill="#E6CEAA"/>
<path fill-rule="evenodd" clip-rule="evenodd" d="M170.433 126.702V128.27L196.373 120.715V118.335L170.433 126.702Z" fill="#E6CEAA"/>
<path fill-rule="evenodd" clip-rule="evenodd" d="M170.433 129.85V131.434L187.26 126.881V124.236L170.433 129.85Z" fill="#E6CEAA"/>
<path fill-rule="evenodd" clip-rule="evenodd" d="M189.799 123.798L196.373 122.121V124.236L190.149 125.999L189.799 123.798Z" fill="#E6CEAA"/>
<path fill-rule="evenodd" clip-rule="evenodd" d="M170.433 132.635L196.373 125.999V128.73L170.433 134.474V132.635Z" fill="#E6CEAA"/>
<path fill-rule="evenodd" clip-rule="evenodd" d="M170.433 135.691V137.497L196.373 131.434V128.73L170.433 135.691Z" fill="#E6CEAA"/>
<path fill-rule="evenodd" clip-rule="evenodd" d="M111.517 133.733C111.517 133.733 106.998 136.837 117.945 136.14C117.945 136.14 126.198 134.49 124.401 133.008C123.244 132.029 111.517 133.733 111.517 133.733Z" fill="#E5BDA3"/>
<path fill-rule="evenodd" clip-rule="evenodd" d="M111.63 133.922C111.63 133.922 111.587 135.069 117.983 135.069C117.983 135.069 122.061 134.76 124.207 133.306C126.354 131.851 109.833 133.084 111.63 133.922Z" fill="#F9E3D2"/>
<path fill-rule="evenodd" clip-rule="evenodd" d="M112.932 138.211C112.932 138.211 108.311 142.478 120.619 139.887C120.619 139.887 129.71 136.642 127.451 135.263C125.95 134.349 112.932 138.211 112.932 138.211Z" fill="#E5BDA3"/>
<path fill-rule="evenodd" clip-rule="evenodd" d="M113.346 138.097C113.346 138.097 113.394 138.638 120.442 137.394C120.442 137.394 124.907 136.442 127.15 135.323C129.393 134.203 111.318 138.065 113.346 138.097Z" fill="#F9E3D2"/>
<path fill-rule="evenodd" clip-rule="evenodd" d="M112.555 142.619C112.555 142.619 107.934 146.886 120.242 144.29C120.242 144.29 129.334 141.045 127.074 139.671C125.579 138.752 112.555 142.619 112.555 142.619Z" fill="#E5BDA3"/>
<path fill-rule="evenodd" clip-rule="evenodd" d="M115.482 146.064C115.482 146.064 111.931 149.341 121.399 147.346C121.399 147.346 128.392 144.863 126.649 143.798C125.487 143.095 115.482 146.064 115.482 146.064Z" fill="#E5BDA3"/>
<path fill-rule="evenodd" clip-rule="evenodd" d="M115.159 141.883C115.159 141.883 115.197 142.327 120.764 141.342C120.764 141.342 124.288 140.591 126.058 139.72C127.828 138.849 113.54 141.845 115.159 141.883Z" fill="#F9E3D2"/>
<path fill-rule="evenodd" clip-rule="evenodd" d="M118.236 145.339C118.236 145.339 118.263 145.647 122.174 144.95C123.446 144.686 124.69 144.302 125.891 143.803C127.133 143.181 117.095 145.312 118.236 145.339Z" fill="#F9E3D2"/>
<path fill-rule="evenodd" clip-rule="evenodd" d="M210.962 128.411C210.962 128.411 215.761 131.067 204.798 131.434C204.798 131.434 196.427 130.591 198.052 128.941C199.133 127.854 210.962 128.411 210.962 128.411Z" fill="#E5BDA3"/>
<path fill-rule="evenodd" clip-rule="evenodd" d="M210.871 128.611C210.871 128.611 211.022 129.747 204.658 130.369C204.658 130.369 200.569 130.455 198.294 129.217C196.018 127.978 212.582 127.6 210.871 128.611Z" fill="#F9E3D2"/>
<path fill-rule="evenodd" clip-rule="evenodd" d="M210.806 132.624C210.806 132.624 216.315 135.653 203.749 136.107C203.749 136.107 194.146 135.166 196.007 133.273C197.239 132.024 210.806 132.624 210.806 132.624Z" fill="#E5BDA3"/>
<path fill-rule="evenodd" clip-rule="evenodd" d="M210.79 132.721C210.79 132.721 210.866 133.262 203.652 133.619C203.652 133.619 199.047 133.7 196.594 133.122C194.141 132.543 212.802 132.224 210.79 132.721Z" fill="#F9E3D2"/>
<path fill-rule="evenodd" clip-rule="evenodd" d="M209.924 136.551C209.924 136.551 214.577 139.379 203.684 139.298C203.684 139.298 195.41 138.124 197.094 136.556C198.202 135.518 209.924 136.551 209.924 136.551Z" fill="#E5BDA3"/>
<path fill-rule="evenodd" clip-rule="evenodd" d="M209.763 140.504C209.763 140.504 213.528 142.175 205.335 143.181C205.335 143.181 199.004 143.1 200.117 141.759C200.844 140.872 209.763 140.504 209.763 140.504Z" fill="#E5BDA3"/>
<path fill-rule="evenodd" clip-rule="evenodd" d="M209.225 140.601C209.225 140.601 209.284 140.904 205.341 141.353C204.046 141.461 202.744 141.449 201.451 141.315C200.08 141.077 210.301 140.261 209.225 140.601Z" fill="#F9E3D2"/>
<path fill-rule="evenodd" clip-rule="evenodd" d="M209.327 136.588C209.327 136.588 209.327 136.978 204.372 136.94C202.743 136.88 201.122 136.668 199.531 136.307C197.858 135.804 210.731 136.318 209.327 136.588Z" fill="#F9E3D2"/>
<path fill-rule="evenodd" clip-rule="evenodd" d="M176.565 116.642L163.491 118.619C163.209 118.658 162.923 118.584 162.695 118.412C162.467 118.24 162.316 117.984 162.275 117.701L161.183 110.528C161.138 110.246 161.206 109.956 161.373 109.725C161.54 109.493 161.792 109.337 162.073 109.292L175.153 107.313C175.293 107.293 175.436 107.301 175.573 107.336C175.71 107.371 175.839 107.433 175.952 107.518C176.066 107.603 176.161 107.71 176.234 107.832C176.306 107.954 176.354 108.09 176.374 108.23L177.466 115.402C177.488 115.543 177.483 115.687 177.45 115.825C177.417 115.963 177.358 116.094 177.275 116.209C177.191 116.324 177.086 116.421 176.966 116.495C176.845 116.569 176.711 116.619 176.571 116.64" fill="white"/>
<path fill-rule="evenodd" clip-rule="evenodd" d="M169.644 109.659L168.286 109.865C168.239 109.871 168.19 109.859 168.152 109.83C168.113 109.801 168.088 109.758 168.08 109.711L168.023 109.485C168.016 109.437 168.029 109.389 168.057 109.35C168.086 109.312 168.129 109.286 168.176 109.279L169.533 109.073C169.557 109.069 169.581 109.07 169.605 109.075C169.628 109.081 169.65 109.091 169.669 109.106C169.688 109.12 169.704 109.138 169.716 109.159C169.728 109.18 169.736 109.203 169.739 109.227L169.795 109.447C169.799 109.471 169.798 109.495 169.793 109.519C169.788 109.543 169.777 109.565 169.763 109.585C169.749 109.604 169.731 109.621 169.711 109.634C169.69 109.646 169.667 109.655 169.644 109.659Z" fill="#262626"/>
<path fill-rule="evenodd" clip-rule="evenodd" d="M168.522 109.615L169.303 109.5L168.985 107.376L168.2 107.498L168.522 109.615Z" fill="#6A6A6A"/>
<path fill-rule="evenodd" clip-rule="evenodd" d="M169.934 115.908C169.351 115.996 168.754 115.909 168.219 115.657C167.684 115.405 167.235 114.999 166.929 114.492C166.623 113.984 166.473 113.397 166.498 112.805C166.523 112.212 166.723 111.641 167.071 111.163C167.419 110.686 167.901 110.322 168.455 110.12C169.01 109.918 169.612 109.885 170.185 110.026C170.759 110.167 171.278 110.475 171.678 110.912C172.078 111.349 172.34 111.895 172.432 112.481C172.493 112.872 172.477 113.27 172.384 113.654C172.292 114.038 172.125 114.399 171.892 114.717C171.66 115.036 171.368 115.305 171.032 115.509C170.696 115.713 170.323 115.849 169.934 115.908Z" fill="#C30000"/>
<path fill-rule="evenodd" clip-rule="evenodd" d="M165.298 114.9L165.675 113.303L166.252 113.217L165.88 114.808L165.298 114.9Z" fill="#C30000"/>
<path fill-rule="evenodd" clip-rule="evenodd" d="M172.744 113.775L173.11 112.18L173.426 112.134L173.059 113.723L172.744 113.775Z" fill="#C30000"/>
<path fill-rule="evenodd" clip-rule="evenodd" d="M173.914 113.594L174.281 112.005L174.448 111.963L174.081 113.552L173.914 113.594Z" fill="#C30000"/>
<path fill-rule="evenodd" clip-rule="evenodd" d="M171.993 112.348L171.458 112.428C171.448 112.431 171.439 112.436 171.431 112.443C171.423 112.449 171.417 112.458 171.413 112.467L171.257 113.406L170.836 112.558C170.831 112.549 170.822 112.542 170.812 112.537C170.802 112.533 170.791 112.531 170.78 112.534L169.769 112.685C169.759 112.687 169.75 112.694 169.744 112.702C169.738 112.711 169.736 112.722 169.737 112.732L169.78 113.034C169.746 112.791 169.476 112.732 169.326 112.753C169.172 112.777 169.032 112.856 168.932 112.976C168.832 113.096 168.778 113.248 168.781 113.405C168.725 113.185 168.705 113.106 168.642 113.033C168.607 112.995 168.563 112.966 168.515 112.948C168.404 112.905 168.282 112.897 168.165 112.926L167.967 112.976C167.958 112.973 167.949 112.973 167.939 112.976C167.93 112.978 167.922 112.983 167.915 112.989L167.804 113.47L167.735 113.024C167.733 113.014 167.726 113.005 167.718 112.999C167.709 112.993 167.699 112.99 167.688 112.991L167.223 113.06C167.212 113.061 167.202 113.065 167.194 113.072C167.186 113.079 167.18 113.089 167.177 113.099L167.061 113.603C167.061 113.603 167.046 113.652 167.073 113.65L167.25 113.605L167.386 114.508C167.388 114.518 167.394 114.527 167.403 114.533C167.412 114.539 167.422 114.542 167.433 114.541L167.898 114.472C167.909 114.47 167.917 114.464 167.923 114.455C167.929 114.446 167.932 114.436 167.931 114.425L167.795 113.522L167.967 113.478C168.023 113.463 168.082 113.461 168.138 113.474C168.164 113.48 168.186 113.494 168.204 113.513C168.248 113.593 168.271 113.683 168.27 113.775L168.354 114.345C168.357 114.356 168.363 114.365 168.372 114.371C168.381 114.377 168.391 114.379 168.402 114.378L168.846 114.315C168.861 114.312 168.875 114.305 168.886 114.294C168.897 114.283 168.905 114.269 168.909 114.254L168.97 113.993C169.054 114.078 169.159 114.141 169.273 114.177C169.388 114.212 169.509 114.218 169.626 114.195L169.683 114.18C169.698 114.177 169.712 114.17 169.723 114.159C169.734 114.148 169.742 114.134 169.746 114.119L169.853 113.668L169.919 114.103C169.92 114.109 169.922 114.114 169.924 114.119C169.927 114.123 169.931 114.127 169.935 114.13C169.94 114.134 169.945 114.136 169.95 114.137C169.956 114.137 169.961 114.137 169.966 114.136L170.416 114.072C170.432 114.069 170.446 114.062 170.457 114.051C170.468 114.04 170.476 114.026 170.479 114.011L170.594 113.524C170.584 113.488 170.546 113.492 170.546 113.492L170.39 113.531L170.27 112.753L170.973 113.947C170.979 113.961 170.99 113.972 171.004 113.979C171.018 113.986 171.034 113.987 171.049 113.983L171.583 113.903C171.599 113.9 171.612 113.892 171.623 113.882C171.635 113.871 171.642 113.857 171.646 113.842L171.996 112.358C172.01 112.304 171.951 112.314 171.951 112.314L171.993 112.348ZM169.887 113.648L169.582 113.692C169.524 113.701 169.464 113.687 169.417 113.652C169.369 113.617 169.338 113.564 169.329 113.506C169.32 113.447 169.334 113.388 169.369 113.34C169.404 113.293 169.456 113.261 169.514 113.252L169.597 113.231C169.626 113.226 169.656 113.228 169.684 113.234C169.712 113.241 169.739 113.254 169.763 113.271C169.786 113.289 169.806 113.311 169.821 113.336C169.836 113.361 169.846 113.389 169.85 113.418L169.887 113.648Z" fill="white"/>
</svg>
