<svg width="379" height="401" viewBox="0 0 379 401" fill="none" xmlns="http://www.w3.org/2000/svg">
<path fill-rule="evenodd" clip-rule="evenodd" d="M37.9 0C16.9684 0 0 16.9684 0 37.9V254.471C0 260.101 2.91482 265.329 7.70348 268.288C12.4921 271.248 18.4718 271.517 23.5069 268.999L56.0203 252.743C61.5231 249.991 64.9991 244.367 64.9991 238.215V113.719C64.9991 86.8071 86.8156 64.9906 113.728 64.9906H297.786C306.756 64.9906 314.029 57.7184 314.029 48.7477V37.9C314.029 16.9684 297.06 0 276.129 0H37.9ZM124.528 86.6282C103.597 86.6282 86.6282 103.597 86.6282 124.528V297.785C86.6282 318.717 103.597 335.685 124.528 335.685H272.294L355.493 377.285C360.528 379.802 366.508 379.533 371.296 376.574C376.085 373.614 379 368.386 379 362.757V124.528C379 103.597 362.031 86.6282 341.1 86.6282H124.528ZM167.843 194.914C158.872 194.914 151.6 202.186 151.6 211.157C151.6 220.127 158.872 227.4 167.843 227.4H168.059C177.03 227.4 184.302 220.127 184.302 211.157C184.302 202.186 177.03 194.914 168.059 194.914H167.843ZM216.571 211.157C216.571 202.186 223.843 194.914 232.814 194.914H233.031C242.001 194.914 249.273 202.186 249.273 211.157C249.273 220.127 242.001 227.4 233.031 227.4H232.814C223.843 227.4 216.571 220.127 216.571 211.157Z" fill="#1C232F"/>
<path d="M56.9943 397.656V355.928H66.6583L77.5383 376.664L81.6343 385.88H81.8903C81.7196 383.662 81.4849 381.187 81.1863 378.456C80.8876 375.726 80.7383 373.123 80.7383 370.648V355.928H89.6983V397.656H80.0343L69.1543 376.856L65.0583 367.768H64.8023C65.0156 370.072 65.2503 372.547 65.5063 375.192C65.8049 377.838 65.9543 380.398 65.9543 382.872V397.656H56.9943ZM100.837 397.656V355.928H110.245V373.016H110.501L122.917 355.928H133.285L120.677 372.568L135.589 397.656H125.285L115.109 380.056L110.245 386.456V397.656H100.837ZM152.915 398.424C150.185 398.424 147.454 397.912 144.723 396.888C142.035 395.864 139.625 394.371 137.491 392.408L142.867 385.944C144.361 387.224 146.025 388.27 147.859 389.08C149.694 389.891 151.465 390.296 153.171 390.296C155.134 390.296 156.585 389.934 157.523 389.208C158.505 388.483 158.995 387.502 158.995 386.264C158.995 384.942 158.441 383.982 157.331 383.384C156.265 382.744 154.814 382.04 152.979 381.272L147.539 378.968C146.131 378.371 144.787 377.582 143.507 376.6C142.227 375.576 141.182 374.318 140.371 372.824C139.561 371.331 139.155 369.582 139.155 367.576C139.155 365.272 139.774 363.182 141.011 361.304C142.291 359.427 144.041 357.934 146.259 356.824C148.521 355.715 151.102 355.16 154.003 355.16C156.393 355.16 158.782 355.63 161.171 356.568C163.561 357.507 165.651 358.872 167.443 360.664L162.643 366.616C161.278 365.55 159.913 364.739 158.547 364.184C157.182 363.587 155.667 363.288 154.003 363.288C152.382 363.288 151.081 363.63 150.099 364.312C149.161 364.952 148.691 365.87 148.691 367.064C148.691 368.344 149.289 369.304 150.483 369.944C151.721 370.584 153.235 371.267 155.027 371.992L160.403 374.168C162.921 375.192 164.926 376.6 166.419 378.392C167.913 380.184 168.659 382.552 168.659 385.496C168.659 387.8 168.041 389.934 166.803 391.896C165.566 393.859 163.774 395.438 161.427 396.632C159.081 397.827 156.243 398.424 152.915 398.424ZM175.971 384.792V378.136H191.715V384.792H175.971ZM200.677 397.656V355.928H214.949C217.85 355.928 220.453 356.248 222.757 356.888C225.061 357.486 226.895 358.531 228.261 360.024C229.626 361.518 230.309 363.608 230.309 366.296C230.309 368.131 229.818 369.944 228.837 371.736C227.898 373.486 226.575 374.68 224.869 375.32V375.576C227.002 376.131 228.773 377.219 230.181 378.84C231.631 380.419 232.357 382.595 232.357 385.368C232.357 388.227 231.631 390.552 230.181 392.344C228.73 394.136 226.789 395.48 224.357 396.376C221.925 397.23 219.194 397.656 216.165 397.656H200.677ZM210.085 372.632H214.501C216.805 372.632 218.469 372.184 219.493 371.288C220.559 370.392 221.093 369.198 221.093 367.704C221.093 366.083 220.559 364.931 219.493 364.248C218.426 363.566 216.783 363.224 214.565 363.224H210.085V372.632ZM210.085 390.36H215.397C220.559 390.36 223.141 388.483 223.141 384.728C223.141 382.894 222.501 381.592 221.221 380.824C219.941 380.014 217.999 379.608 215.397 379.608H210.085V390.36ZM253.571 398.424C250.883 398.424 248.344 397.784 245.955 396.504C243.608 395.182 241.709 393.283 240.259 390.808C238.808 388.291 238.083 385.283 238.083 381.784C238.083 378.243 238.808 375.235 240.259 372.76C241.709 370.286 243.608 368.408 245.955 367.128C248.344 365.806 250.883 365.144 253.571 365.144C256.259 365.144 258.776 365.806 261.123 367.128C263.469 368.408 265.368 370.286 266.819 372.76C268.269 375.235 268.995 378.243 268.995 381.784C268.995 385.283 268.269 388.291 266.819 390.808C265.368 393.283 263.469 395.182 261.123 396.504C258.776 397.784 256.259 398.424 253.571 398.424ZM253.571 390.808C255.491 390.808 256.941 389.998 257.923 388.376C258.904 386.712 259.395 384.515 259.395 381.784C259.395 379.011 258.904 376.814 257.923 375.192C256.941 373.571 255.491 372.76 253.571 372.76C251.608 372.76 250.136 373.571 249.155 375.192C248.216 376.814 247.747 379.011 247.747 381.784C247.747 384.515 248.216 386.712 249.155 388.376C250.136 389.998 251.608 390.808 253.571 390.808ZM293.359 398.424C291.951 398.424 290.521 398.083 289.071 397.4C287.663 396.675 286.34 395.63 285.103 394.264H284.847L284.079 397.656H276.719V352.792H286.127V363.8L285.871 368.664C287.108 367.555 288.452 366.702 289.903 366.104C291.353 365.464 292.804 365.144 294.255 365.144C296.815 365.144 299.033 365.806 300.911 367.128C302.788 368.451 304.217 370.328 305.199 372.76C306.223 375.15 306.735 377.966 306.735 381.208C306.735 384.835 306.095 387.95 304.815 390.552C303.535 393.112 301.871 395.075 299.823 396.44C297.817 397.763 295.663 398.424 293.359 398.424ZM291.183 390.744C292.804 390.744 294.191 389.998 295.343 388.504C296.495 387.011 297.071 384.643 297.071 381.4C297.071 375.683 295.236 372.824 291.567 372.824C289.689 372.824 287.876 373.784 286.127 375.704V388.696C286.98 389.464 287.833 389.998 288.687 390.296C289.54 390.595 290.372 390.744 291.183 390.744Z" fill="#BE7F99"/>
<path fill-rule="evenodd" clip-rule="evenodd" d="M112.667 181.831C112.667 181.831 92.1025 96.8555 80.1562 80.1243C80.1562 80.1243 114.871 58.577 150.886 58.577C186.901 58.577 213.703 72.432 213.703 72.432V181.831H112.667Z" fill="#630701"/>
<path fill-rule="evenodd" clip-rule="evenodd" d="M134.427 296.079L122.943 323.307H120.668L129.451 291.651L134.427 296.079Z" fill="#852500"/>
<path fill-rule="evenodd" clip-rule="evenodd" d="M122.712 295.414L119.351 323.307H121.946L131.082 295.946L122.712 295.414Z" fill="#9B3601"/>
<path fill-rule="evenodd" clip-rule="evenodd" d="M223.848 290.121L236.615 320.392H239.138L229.38 285.2L223.848 290.121Z" fill="#852500"/>
<path fill-rule="evenodd" clip-rule="evenodd" d="M236.868 289.379L240.604 320.392H237.717L227.561 289.966L236.868 289.379Z" fill="#9B3601"/>
<path fill-rule="evenodd" clip-rule="evenodd" d="M143.414 296.079L140.775 316.69H144.125L156.661 288.159H145.321L143.414 296.079Z" fill="#852500"/>
<path fill-rule="evenodd" clip-rule="evenodd" d="M217.946 296.079L220.585 316.69H217.235L204.699 288.159H216.039L217.946 296.079Z" fill="#852500"/>
<path fill-rule="evenodd" clip-rule="evenodd" d="M239.271 278.173V228.4H154.539L151.966 281.664L239.271 278.173Z" fill="#630701"/>
<path d="M239.271 278.173H147.778V289.844H239.271V278.173Z" fill="#430000"/>
<path fill-rule="evenodd" clip-rule="evenodd" d="M154.176 278.167C154.176 278.167 150.897 237.362 172.585 235.677L158.485 223.157L144.125 225.441L146.037 280.572L154.176 278.167Z" fill="#430000"/>
<path fill-rule="evenodd" clip-rule="evenodd" d="M106.65 212.423C106.65 212.423 109.361 284.186 112.391 294.477C112.391 294.477 147.04 298.268 151.167 294.477L149.586 208.194L106.65 212.423Z" fill="#630701"/>
<path fill-rule="evenodd" clip-rule="evenodd" d="M108.451 252.17C108.451 252.17 105.944 214.235 106.842 213.32C107.741 212.406 152.242 212.074 152.242 212.074V216.95C152.242 216.95 122.271 216.723 108.451 252.17Z" fill="#510201"/>
<path fill-rule="evenodd" clip-rule="evenodd" d="M119.748 181.831L98.9242 183.942C98.9242 183.942 95.8715 184.962 95.8715 190.039C95.8715 190.039 95.8715 207.014 97.486 209.901C99.1006 212.788 105.2 212.428 105.2 212.428H148.015V177.924L119.748 181.831Z" fill="#630701"/>
<path fill-rule="evenodd" clip-rule="evenodd" d="M98.9242 183.942C98.9242 183.942 93.8934 186.47 99.9932 186.58C106.093 186.691 127.638 186.824 146.908 196.755V177.913L98.9242 183.942Z" fill="#7C0809"/>
<path fill-rule="evenodd" clip-rule="evenodd" d="M240.279 178.982C240.279 178.982 249.922 177.536 250.28 184.641C250.638 191.745 252.192 207.391 249.68 208.172C247.167 208.953 237.342 186.686 240.279 178.982Z" fill="#430000"/>
<path fill-rule="evenodd" clip-rule="evenodd" d="M246.214 212.423V223.163L233.391 214.767L246.214 212.423Z" fill="#430000"/>
<path d="M233 286.661C233 286.661 236.488 307.216 236.125 310.829C235.761 314.443 233.97 316.067 234.51 318.5C235.05 320.933 232.626 322.296 246.721 322.933C260.816 323.571 247.68 313.451 247.68 313.451L244.021 311.461L244.467 285.763L233 286.661Z" fill="#F9E3D2"/>
<path d="M197.175 295.233C197.175 295.233 199.599 308.234 199.236 311.859C198.872 315.483 197.081 317.096 197.621 319.534C198.161 321.973 195.737 323.325 209.832 323.968C223.927 324.611 210.791 314.491 210.791 314.491L207.137 312.502L207.584 294.446L197.175 295.233Z" fill="#F9E3D2"/>
<path fill-rule="evenodd" clip-rule="evenodd" d="M166.089 115.937L178.724 121.163L178.774 128.367V135.079H166.089V115.937Z" fill="#F9E3D2"/>
<path d="M183.683 121.235C192.279 121.235 202.302 113.886 202.302 96.0298C202.302 88.271 201.669 83.4384 199.817 78.1347C196.428 68.4141 189.397 61.6528 177.776 61.6528C168.624 61.6528 161.008 66.6406 157.388 74.2996C155.035 79.2874 155.112 85.4446 155.112 92.0783C155.112 98.7121 156.462 97.3211 156.732 99.7374C157.487 106.449 159.488 112.063 163.797 116.164C168.805 120.897 175.093 121.235 183.683 121.235Z" fill="#F9E3D2"/>
<path fill-rule="evenodd" clip-rule="evenodd" d="M192.389 90.6042C192.389 89.0857 192.94 87.9496 193.756 87.7556C194.04 87.714 194.331 87.7594 194.589 87.8859C194.848 88.0124 195.062 88.2142 195.205 88.465C196.191 90.0999 196.638 93.6246 195.139 94.151C193.348 94.7385 192.389 93.1147 192.389 90.6042Z" fill="#262626"/>
<path fill-rule="evenodd" clip-rule="evenodd" d="M178.95 94.5833C177.005 94.5057 176.663 91.4355 177.368 89.723C177.506 89.4016 177.997 88.0327 179.385 88.0604C179.838 88.0879 180.276 88.2324 180.658 88.48C181.039 88.7275 181.35 89.0697 181.562 89.4736C182.273 91.2969 182.113 94.6609 179.451 94.5833H178.95Z" fill="#262626"/>
<path d="M187.646 95.4257C187.786 95.5688 187.942 95.6969 188.108 95.8081C188.384 95.995 188.693 96.1254 189.018 96.192C189.343 96.2585 189.678 96.2599 190.004 96.196L190.142 96.1628C191.084 96.0132 191.723 96.1295 191.955 96.451C192.875 97.7256 192.583 99.0779 191.007 100.186C190.18 100.774 189.04 100.979 188.434 100.674C188.362 100.638 188.283 100.619 188.203 100.617C188.123 100.615 188.043 100.631 187.97 100.663C187.896 100.695 187.831 100.743 187.778 100.803C187.725 100.864 187.685 100.935 187.662 101.012C187.598 101.169 187.594 101.343 187.648 101.503C187.703 101.663 187.814 101.798 187.96 101.882C188.957 102.381 190.494 102.109 191.624 101.328C193.762 99.8205 194.252 97.5649 192.864 95.6363C192.313 94.8438 191.293 94.6609 189.982 94.8715L189.811 94.9048C189.43 94.9815 189.034 94.9038 188.709 94.6886C188.613 94.6209 188.522 94.5449 188.439 94.4614C188.384 94.4051 188.318 94.3612 188.245 94.3326C188.172 94.304 188.094 94.2913 188.016 94.2955C187.938 94.2997 187.861 94.3206 187.792 94.3569C187.722 94.3931 187.661 94.4439 187.613 94.5057C187.51 94.6389 187.458 94.8037 187.464 94.9717C187.47 95.1397 187.534 95.3003 187.646 95.4257Z" fill="#262626"/>
<path d="M188.176 108.69C188.256 108.706 188.332 108.738 188.399 108.784C188.467 108.83 188.524 108.889 188.569 108.957C188.613 109.026 188.644 109.103 188.658 109.183C188.673 109.264 188.671 109.347 188.653 109.427C188.528 110.027 187.749 110.313 185.841 110.608C185.587 110.647 185.332 110.669 185.076 110.673C184.586 110.685 184.095 110.661 183.609 110.602C183.333 110.572 183.123 110.541 182.996 110.521C182.834 110.492 182.691 110.399 182.596 110.264C182.502 110.128 182.466 109.961 182.494 109.798C182.523 109.635 182.615 109.49 182.75 109.396C182.884 109.301 183.051 109.264 183.213 109.293L183.765 109.364C184.195 109.414 184.628 109.435 185.06 109.426C185.265 109.424 185.469 109.407 185.672 109.374C186.268 109.3 186.857 109.17 187.43 108.987L187.562 108.936C187.631 108.84 187.725 108.766 187.834 108.723C187.942 108.679 188.061 108.668 188.176 108.69Z" fill="#262626"/>
<path d="M220.938 233.876C220.938 233.876 225.848 231.825 226.327 234.474C226.807 237.123 230.096 302.061 230.846 303.507C230.846 303.507 242.604 308.8 251.459 302.183L248.589 229.902C248.589 229.902 249.691 223.163 244.996 220.154C240.301 217.144 235.546 214.767 235.546 214.767L213.764 225.568L220.938 233.876Z" fill="#103157"/>
<path d="M245.327 304.992C245.327 304.992 254.6 228.833 238.356 221.789C238.356 221.789 235.105 218.419 228.239 217.355C221.373 216.291 236.202 215.31 236.202 215.31C236.202 215.31 246.864 218.802 248.082 222.891C249.299 226.981 251.459 302.393 251.459 302.393L245.327 304.992Z" fill="#174974"/>
<path fill-rule="evenodd" clip-rule="evenodd" d="M169.588 144.168V131.471H180.267V147.509L169.588 144.168Z" fill="#1F78B9"/>
<path fill-rule="evenodd" clip-rule="evenodd" d="M145.982 179.93C145.982 179.93 131.534 185.073 115.554 184.624C99.5744 184.175 115.554 159.258 115.554 159.258C115.554 159.258 132.967 132.806 142.753 122.243C142.753 122.243 146.357 119.356 146.935 124.588C147.514 129.819 144.951 149.776 144.951 149.776C144.951 149.776 137.816 159.752 134.763 163.26L142.929 162.029L145.982 179.93Z" fill="#338AE3"/>
<path fill-rule="evenodd" clip-rule="evenodd" d="M146.83 128.007C147.102 136.036 144.411 143.883 139.276 150.036C130.674 160.239 123.494 165.133 123.494 165.133C123.494 165.133 119.274 169.179 122.503 168.231C125.732 167.283 129.953 165.742 129.953 165.742C129.953 165.742 124.029 172.304 123.224 174.576C122.42 176.849 122.673 178.007 125.109 176.477C127.545 174.948 134.532 166.374 134.532 166.374C136.876 168.099 138.765 170.376 140.033 173.004C141.301 175.633 141.909 178.534 141.805 181.454L149.586 178.179L141.871 151.749C141.871 151.749 149.789 140.465 146.83 128.007Z" fill="#1F78B9"/>
<path fill-rule="evenodd" clip-rule="evenodd" d="M143.436 121.8C143.436 121.8 147.58 119.173 150.137 121.839C152.693 124.505 150.655 144.107 148.704 149.504H143.453C143.453 149.504 151.051 128.151 143.436 121.8Z" fill="#C83D20"/>
<path fill-rule="evenodd" clip-rule="evenodd" d="M147.729 120.669L162.259 125.303C162.259 125.303 165.13 137.999 169.02 140.044C169.781 140.046 170.526 140.261 171.171 140.665C171.817 141.07 172.337 141.647 172.674 142.333C173.494 143.808 174.522 145.156 175.726 146.334C175.726 146.334 179.374 140.648 181.887 139.202C181.887 139.202 182.906 131.62 179.914 126.566C179.914 126.566 182.184 128.489 192.417 128.55C192.417 128.55 196.191 140.743 195.233 151.721L149.002 148.59C149.002 148.59 154.082 127.469 147.729 120.669Z" fill="#B03114"/>
<path fill-rule="evenodd" clip-rule="evenodd" d="M192.411 128.55C192.411 128.55 192.83 127.769 194.93 128.55C194.93 128.55 199.233 145.886 198.666 152.203H194.808C194.808 152.203 194.627 133.427 192.411 128.55Z" fill="#C83D20"/>
<path fill-rule="evenodd" clip-rule="evenodd" d="M194.93 128.55C194.93 128.55 199.889 130.612 207.735 146.706L198.666 150.458L194.93 128.55Z" fill="#338AE3"/>
<path fill-rule="evenodd" clip-rule="evenodd" d="M166.083 120.669L162.259 125.303L166.508 141.79C166.508 141.79 172.85 142.754 175.903 133.965C175.903 133.965 176.68 140.404 181.347 142.15C186.014 143.896 179.914 126.566 179.914 126.566L178.774 126.084C178.774 126.084 179.016 131.138 174.96 129.215C165.185 124.571 166.083 120.669 166.083 120.669Z" fill="#338AE3"/>
<path d="M157.3 227.513C157.3 227.513 171.66 239.589 197.42 243.031L192.847 302.962C192.847 302.962 201.459 310.549 216.359 305.855L220.481 239.95C220.481 239.95 222.823 232.008 220.762 229.481C218.701 226.954 204.87 216.934 204.87 216.934L157.3 227.513Z" fill="#0A2D46"/>
<path d="M185.132 227.381C185.132 227.381 171.55 227.02 171.55 231.171C171.55 235.322 179.209 239.839 203.983 237.489C203.983 237.489 201.547 271.074 194.687 304.115C194.687 304.115 203.085 308.266 212.419 306.459L217.577 243.109C217.577 243.109 219.825 227.386 210.557 227.392C201.288 227.397 185.132 227.381 185.132 227.381Z" fill="#133155"/>
<path d="M210.259 227.314C210.259 227.314 217.423 228.217 217.279 236.342C217.136 244.466 211.769 306.969 211.769 306.969L216.431 306.032C216.431 306.032 224.696 233.787 221.142 229.032C217.07 223.584 215.174 224.044 215.174 224.044L210.259 227.314Z" fill="#174974"/>
<path d="M197.836 321.43C197.836 321.43 184.694 323.491 193.224 324.483C201.754 325.475 226.346 326.828 233.972 325.658C241.599 324.489 244.475 323.852 240.26 319.701C236.044 315.55 222.136 310.035 214.676 309.675C214.676 309.675 207.953 310.13 210.818 315.904C215.486 325.503 197.836 321.43 197.836 321.43Z" fill="#9F2712"/>
<path d="M235.756 320.412C235.756 320.412 222.619 322.473 231.144 323.465C239.668 324.457 264.266 325.815 271.92 324.64C279.573 323.465 282.422 322.833 278.201 318.683C273.98 314.532 260.083 309.023 252.623 308.663C252.623 308.663 245.9 309.111 248.732 314.892C253.388 324.463 235.756 320.412 235.756 320.412Z" fill="#9F2712"/>
<path d="M264.1 311.611C264.1 311.611 276.146 316.732 278.642 320.096C281.138 323.46 259.703 318.2 249.653 312.243C249.653 312.243 249.102 308.092 256.116 309.355C263.131 310.619 264.1 311.611 264.1 311.611Z" fill="#AF3314"/>
<path d="M226.891 312.757C226.891 312.757 238.931 317.877 241.433 321.241C243.935 324.605 222.489 319.346 212.438 313.388C212.438 313.388 211.887 309.237 218.901 310.501C225.916 311.764 226.891 312.757 226.891 312.757Z" fill="#AF3314"/>
<path fill-rule="evenodd" clip-rule="evenodd" d="M139.436 165.504L144.279 177.475L154.479 175.147L154.98 166.38L151.398 163.648L139.436 165.504Z" fill="#E6CEAA"/>
<path fill-rule="evenodd" clip-rule="evenodd" d="M238.549 158.776L239.056 171.562L229.424 173.158L225.219 164.695L229.159 159.729L238.549 158.776Z" fill="#E6CEAA"/>
<path d="M155.384 98.5675V85.108C145.953 84.1292 130.497 91.022 124.603 94.2849L126.567 96.7321L133.837 99.1835H141.224L155.384 98.5675Z" fill="#23262A"/>
<path d="M235.414 86.2459C231.967 83.7816 211.61 81.9334 202.171 81.3173L202.786 94.871C215.099 93.6388 238.862 88.7102 235.414 86.2459Z" fill="#23262A"/>
<path d="M178.293 81.6054C150.713 83.084 136.02 89.4091 129.043 92.0788C126.214 93.1611 123.979 95.1077 125.965 96.9084C122.389 94.5501 124.155 88.1986 152.436 79.3463C152.083 77.9016 152.445 75.7433 154.468 73.5965C153.953 71.4584 154.105 68.0878 156.13 64.7122C155.44 64.4034 154.722 63.5303 154.558 61.891C153.979 61.7539 153.208 61.3787 152.436 60.683C150.832 60.4312 148.175 59.8054 146.096 58.8106C142.053 60.2401 133.352 62.8574 130.889 61.891C134.501 55.3195 144.273 41.9301 154.468 40.9444C167.211 39.7122 162.902 42.7926 171.52 43.4087C180.139 44.0248 195.111 61.891 200.454 71.7482C215.229 75.4447 230.621 78.5251 234.93 85.3019C227.542 83.4537 205.873 80.1269 178.293 81.6054Z" fill="#B03114"/>
<path d="M172.546 67.528C169.3 69.4857 167.676 72.9501 167.168 74.8068C167.109 75.0219 166.948 75.1963 166.735 75.2603L154.768 78.853L152.565 79.294C152.142 79.3786 151.766 79.0139 151.837 78.5886L152.281 75.9208C152.297 75.8234 152.336 75.7314 152.396 75.6524L153.959 73.5665C154.08 73.4048 154.114 73.1939 154.05 73.0021L153.588 71.6153C153.555 71.5136 153.548 71.4048 153.569 71.2997L154.136 68.4606C154.147 68.4069 154.165 68.3549 154.189 68.3059L155.801 65.0804C155.919 64.8432 155.873 64.5568 155.686 64.3693L152.992 61.6736C152.945 61.6267 152.891 61.5878 152.832 61.5581L151.773 61.0282C151.718 61.0007 151.659 60.9816 151.599 60.9715L148.127 60.3924C148.041 60.3781 147.959 60.3457 147.886 60.2974L146.427 59.3237C146.254 59.2082 146.034 59.188 145.843 59.27L144.597 59.8044C143.981 60.0683 143.343 59.3293 143.397 58.6615C143.43 58.2594 143.401 57.8174 143.287 57.3457C143.199 56.9829 143.394 56.5945 143.751 56.4863C146.693 55.5952 148.571 53.9841 149.445 52.9158C149.677 52.6332 150.106 52.546 150.455 52.6538C151.67 53.029 154.175 52.9641 157.971 50.801C158.249 50.642 158.603 50.7166 158.812 50.9604C161.296 53.8571 166.601 55.0728 169.539 55.3864C169.88 55.4228 170.135 55.7194 170.122 56.0623C170.025 58.6073 170.448 63.3218 172.75 66.5269C172.984 66.8524 172.889 67.3211 172.546 67.528Z" fill="black" fill-opacity="0.3"/>
<path d="M160.187 106.338C160.187 105.096 157.708 91.4466 157.708 91.4466C156.429 91.724 155.184 92.1403 153.994 92.688C153.297 93.0416 152.702 93.5702 152.268 94.2226C151.833 94.8751 151.574 95.6292 151.514 96.4122C151.514 97.6536 151.514 98.895 152.754 101.4C155.234 106.338 158.953 106.338 160.187 106.338Z" fill="#F9E3D2"/>
<path d="M149.376 94.2549C149.376 89.3263 149.227 85.0138 149.843 85.6298L154.152 84.3977L159.693 83.1655C159.693 84.3977 161.54 87.1084 161.54 88.0942C161.54 89.3263 160.309 91.1745 160.309 96.1032C160.309 101.032 162.155 102.88 162.155 109.041C162.155 115.202 156.148 118.282 152.454 128.139C148.76 137.996 151.838 137.38 149.992 137.38C145.067 137.38 143.22 125.675 141.989 118.282C140.757 110.889 147.529 106.576 149.376 104.112C151.223 101.648 149.376 100.416 149.376 94.2549Z" fill="#DFDFDF"/>
<path d="M200.894 86.9651C198.374 83.2633 191.972 83.5968 189.086 84.2262C188.011 88.7102 194.311 86.5677 196.921 87.4607C198.694 88.0676 204.104 88.5254 204.633 88.0941C204.883 87.8908 201.903 88.4478 200.894 86.9651Z" fill="white"/>
<path d="M171.462 87.4518C173.981 83.75 180.383 84.0835 183.269 84.7129C184.344 89.1969 178.045 87.0544 175.435 87.9474C173.661 88.5543 168.252 89.0121 167.722 88.5808C167.473 88.3774 170.452 88.9345 171.462 87.4518Z" fill="white"/>
<path d="M159.693 89.9424C160.678 87.971 160.103 84.1924 159.693 83.7816C160.309 83.1655 162.771 83.1655 167.696 82.5495C159.693 101.97 177.279 110.722 184.318 111.505C193.183 112.491 199.708 109.657 202.171 93.0228C207.711 102.264 203.402 104.112 206.48 109.041C209.558 113.969 204.633 116.434 208.943 123.211C212.39 128.632 211.61 137.791 210.789 141.693C210.584 140.05 209.189 135.655 205.249 131.22C209.189 136.641 209.353 144.157 208.943 147.238C208.532 146.827 204.633 139.105 202.171 133.684C203.402 147.238 211.405 155.247 212.636 159.559C211.405 160.175 205.864 157.711 201.555 153.398C202.048 156.848 209.969 163.872 213.867 166.952L204.633 178.657C197.041 180.095 180.008 181.861 172.621 177.425C163.387 171.881 164.618 165.104 165.849 156.479C160.924 162.023 155.999 163.872 155.999 161.407C155.999 158.943 163.387 147.854 159.693 144.157C153.537 141.693 152.921 134.916 152.921 129.371C152.921 123.827 159.693 113.969 160.924 110.889C162.156 107.809 158.462 99.7996 157.846 96.7192C157.23 93.6389 158.462 92.4067 159.693 89.9424Z" fill="#F0F0F0"/>
<path fill-rule="evenodd" clip-rule="evenodd" d="M187.43 109.214C192.159 112.531 197.58 114.715 203.278 115.599C203.278 115.599 204.099 108.821 204.997 108.211C208.122 108.134 211.191 109.06 213.758 110.855C213.758 110.855 213.158 117.505 206.992 119.312C206.992 119.312 200.682 118.99 186.053 109.962L187.43 109.214Z" fill="#962101"/>
<path fill-rule="evenodd" clip-rule="evenodd" d="M204.997 108.211C204.997 108.211 204.997 109.502 208.986 110.533C212.976 111.564 213.758 110.855 213.758 110.855C213.758 110.855 210.882 108.438 204.997 108.211Z" fill="#D9391B"/>
<path fill-rule="evenodd" clip-rule="evenodd" d="M205.983 108.555C205.983 108.555 205.983 109.552 209.069 110.35C212.155 111.148 212.755 110.6 212.755 110.6C212.755 110.6 210.529 108.732 205.983 108.555Z" fill="#8C0B01"/>
<path fill-rule="evenodd" clip-rule="evenodd" d="M207.366 110.251C209.294 111.012 211.359 111.354 213.428 111.254C213.428 111.254 212.447 116.341 208.408 118.242C204.369 120.143 205.978 113.98 207.366 110.251Z" fill="#BF300A"/>
<path fill-rule="evenodd" clip-rule="evenodd" d="M209.648 111.01C210.782 111.294 211.95 111.425 213.119 111.398C213.119 111.398 211.642 116.452 208.959 117.749C206.275 119.046 208.275 113.82 209.648 111.01Z" fill="#DC3417"/>
<path d="M184.181 104.057C179.055 103.349 168.291 103.291 166.244 108.728C179.141 108.573 189.929 108.196 184.181 104.057Z" fill="white"/>
<path d="M186.697 104.057C191.823 103.349 202.586 103.291 204.633 108.728C191.737 108.573 180.949 108.196 186.697 104.057Z" fill="white"/>
<path d="M168.312 139.845C166.342 142.309 161.745 143.336 159.693 143.541C162.771 148.47 157.969 166.459 165.849 164.488C175.699 162.023 170.774 136.764 168.312 139.845Z" fill="black" fill-opacity="0.1"/>
<path d="M153.537 125.935C152.305 130.603 152.306 142.309 159.693 143.541C165.849 141.693 162.156 142.925 166.465 141.077C159.077 142.555 154.768 131.598 153.537 125.935Z" fill="black" fill-opacity="0.1"/>
<path d="M175.083 145.649C173.113 148.114 168.517 149.14 166.465 149.346C169.543 154.274 164.741 172.264 172.621 170.292C182.471 167.828 177.546 142.569 175.083 145.649Z" fill="black" fill-opacity="0.1"/>
<path d="M203.402 145.649C201.432 148.114 196.835 149.14 194.783 149.346C197.861 154.274 193.06 172.264 200.939 170.292C210.789 167.828 205.864 142.569 203.402 145.649Z" fill="black" fill-opacity="0.1"/>
<path fill-rule="evenodd" clip-rule="evenodd" d="M148.351 229.42C148.351 229.42 171.891 222.077 206.237 232.191C206.237 232.191 231.49 214.019 252.435 212.694C252.435 212.694 240.081 180.584 238.918 170.68C237.755 160.777 240.665 134.696 240.665 134.696L196.781 150.702L153.603 146.373L132.394 150.336C132.394 150.336 140.56 166.812 143.045 174.416C148.908 192.344 148.351 229.42 148.351 229.42Z" fill="#E6CEAA"/>
<path fill-rule="evenodd" clip-rule="evenodd" d="M206.237 232.185C206.237 232.185 231.49 214.013 252.435 212.689C252.435 212.689 240.081 180.578 238.918 170.675C237.755 160.771 240.665 134.691 240.665 134.691L196.781 150.696" fill="#FAE4C6"/>
<path fill-rule="evenodd" clip-rule="evenodd" d="M199.117 182.069L199.475 180.279L236.102 170.891V174.055L199.117 182.069Z" fill="#E6CEAA"/>
<path fill-rule="evenodd" clip-rule="evenodd" d="M133.413 150.641L141.552 157.502L153.823 146.728L154.539 147.149L151.966 149.737C151.966 149.737 179.727 151.782 186.73 153.406V156.598C186.73 156.598 163.499 152.021 148.098 154.071L144.362 157.502C144.362 157.502 155.614 155.152 167.224 156.393C178.834 157.635 193.249 159.425 193.249 159.425V162.556C193.249 162.556 171.29 159.125 160.578 159.125C149.867 159.125 138.201 162.24 138.201 162.24L133.413 150.641Z" fill="#C4AC8D"/>
<path fill-rule="evenodd" clip-rule="evenodd" d="M193.254 164.263V166.38L165.637 165.133V162.018L193.254 164.263Z" fill="#C4AC8D"/>
<path fill-rule="evenodd" clip-rule="evenodd" d="M193.254 168.436V170.082L165.637 169.262V166.38L193.254 168.436Z" fill="#C4AC8D"/>
<path fill-rule="evenodd" clip-rule="evenodd" d="M156.661 174.055V188.498L192.417 188.858L193.254 174.576L156.661 174.055Z" fill="#C4AC8D"/>
<path fill-rule="evenodd" clip-rule="evenodd" d="M151.189 190.665V193.73H192.924V192.2L151.189 190.665Z" fill="#C4AC8D"/>
<path fill-rule="evenodd" clip-rule="evenodd" d="M163.212 195.176L163.664 197.432H192.924V195.176H163.212Z" fill="#C4AC8D"/>
<path fill-rule="evenodd" clip-rule="evenodd" d="M152.247 198.789L153.162 201.222L192.924 200.591V198.789H152.247Z" fill="#C4AC8D"/>
<path fill-rule="evenodd" clip-rule="evenodd" d="M156.661 214.767L157.647 217.383H199.117V216.075L156.661 214.767Z" fill="#C4AC8D"/>
<path fill-rule="evenodd" clip-rule="evenodd" d="M209.256 223.429C209.256 223.429 222.272 213.769 238.251 210.162V213.049C238.251 213.049 219.671 218.724 209.256 226.139V223.429Z" fill="#E6CEAA"/>
<path fill-rule="evenodd" clip-rule="evenodd" d="M208.628 221.805L207.824 219.91C207.824 219.91 216.64 213.592 222.007 212.057V214.767C222.007 214.767 214.375 217.832 208.628 221.805Z" fill="#E6CEAA"/>
<path fill-rule="evenodd" clip-rule="evenodd" d="M224.608 210.705V213.32C228.433 211.166 232.642 209.785 236.995 209.258V206.277C236.995 206.277 232.504 206.459 224.608 210.705Z" fill="#E6CEAA"/>
<path fill-rule="evenodd" clip-rule="evenodd" d="M199.569 191.745L234.449 186.059V183.438L199.117 190.122L199.569 191.745Z" fill="#E6CEAA"/>
<path fill-rule="evenodd" clip-rule="evenodd" d="M199.475 186.691L199.117 188.043L232.51 182.357L232.151 179.919L199.475 186.691Z" fill="#E6CEAA"/>
<path fill-rule="evenodd" clip-rule="evenodd" d="M199.117 185.156V183.438L223.759 178.982V179.919L199.117 185.156Z" fill="#E6CEAA"/>
<path fill-rule="evenodd" clip-rule="evenodd" d="M198.671 151.932L238.251 138.033V142.998L198.671 154.642V151.932Z" fill="#E6CEAA"/>
<path fill-rule="evenodd" clip-rule="evenodd" d="M199.117 157.169V158.776L225.688 151.034V148.596L199.117 157.169Z" fill="#E6CEAA"/>
<path fill-rule="evenodd" clip-rule="evenodd" d="M199.117 160.394V162.018L216.353 157.352V154.642L199.117 160.394Z" fill="#E6CEAA"/>
<path fill-rule="evenodd" clip-rule="evenodd" d="M218.954 154.193L225.688 152.475V154.642L219.312 156.449L218.954 154.193Z" fill="#E6CEAA"/>
<path fill-rule="evenodd" clip-rule="evenodd" d="M199.117 163.249L225.688 156.449V159.247L199.117 165.133V163.249Z" fill="#E6CEAA"/>
<path fill-rule="evenodd" clip-rule="evenodd" d="M199.117 166.38V168.231L225.688 162.018V159.247L199.117 166.38Z" fill="#E6CEAA"/>
<path fill-rule="evenodd" clip-rule="evenodd" d="M138.769 164.374C138.769 164.374 134.14 167.555 145.354 166.84C145.354 166.84 153.806 165.149 151.966 163.631C150.781 162.628 138.769 164.374 138.769 164.374Z" fill="#E5BDA3"/>
<path fill-rule="evenodd" clip-rule="evenodd" d="M138.885 164.568C138.885 164.568 138.841 165.742 145.392 165.742C145.392 165.742 149.569 165.427 151.768 163.936C153.966 162.445 137.044 163.709 138.885 164.568Z" fill="#F9E3D2"/>
<path fill-rule="evenodd" clip-rule="evenodd" d="M140.218 168.962C140.218 168.962 135.485 173.335 148.092 170.68C148.092 170.68 157.405 167.355 155.09 165.942C153.553 165.005 140.218 168.962 140.218 168.962Z" fill="#E5BDA3"/>
<path fill-rule="evenodd" clip-rule="evenodd" d="M140.642 168.846C140.642 168.846 140.692 169.4 147.911 168.126C147.911 168.126 152.484 167.15 154.782 166.003C157.08 164.856 138.565 168.813 140.642 168.846Z" fill="#F9E3D2"/>
<path fill-rule="evenodd" clip-rule="evenodd" d="M139.832 173.479C139.832 173.479 135.099 177.852 147.707 175.192C147.707 175.192 157.019 171.866 154.705 170.459C153.173 169.517 139.832 173.479 139.832 173.479Z" fill="#E5BDA3"/>
<path fill-rule="evenodd" clip-rule="evenodd" d="M142.83 177.009C142.83 177.009 139.193 180.368 148.891 178.323C148.891 178.323 156.055 175.779 154.269 174.687C153.079 173.967 142.83 177.009 142.83 177.009Z" fill="#E5BDA3"/>
<path fill-rule="evenodd" clip-rule="evenodd" d="M142.499 172.725C142.499 172.725 142.538 173.18 148.241 172.171C148.241 172.171 151.85 171.401 153.663 170.509C155.476 169.616 140.841 172.687 142.499 172.725Z" fill="#F9E3D2"/>
<path fill-rule="evenodd" clip-rule="evenodd" d="M145.651 176.267C145.651 176.267 145.679 176.583 149.685 175.868C150.988 175.597 152.262 175.204 153.492 174.693C154.765 174.055 144.483 176.239 145.651 176.267Z" fill="#F9E3D2"/>
<path fill-rule="evenodd" clip-rule="evenodd" d="M240.632 158.92C240.632 158.92 245.547 161.641 234.317 162.018C234.317 162.018 225.743 161.154 227.407 159.463C228.515 158.349 240.632 158.92 240.632 158.92Z" fill="#E5BDA3"/>
<path fill-rule="evenodd" clip-rule="evenodd" d="M240.538 159.125C240.538 159.125 240.692 160.289 234.174 160.926C234.174 160.926 229.986 161.015 227.655 159.746C225.324 158.477 242.29 158.089 240.538 159.125Z" fill="#F9E3D2"/>
<path fill-rule="evenodd" clip-rule="evenodd" d="M240.472 163.237C240.472 163.237 246.114 166.341 233.243 166.807C233.243 166.807 223.407 165.842 225.313 163.903C226.575 162.622 240.472 163.237 240.472 163.237Z" fill="#E5BDA3"/>
<path fill-rule="evenodd" clip-rule="evenodd" d="M240.455 163.337C240.455 163.337 240.533 163.891 233.143 164.257C233.143 164.257 228.427 164.34 225.914 163.747C223.401 163.154 242.516 162.827 240.455 163.337Z" fill="#F9E3D2"/>
<path fill-rule="evenodd" clip-rule="evenodd" d="M239.568 167.261C239.568 167.261 244.335 170.159 233.176 170.076C233.176 170.076 224.701 168.874 226.426 167.267C227.561 166.202 239.568 167.261 239.568 167.261Z" fill="#E5BDA3"/>
<path fill-rule="evenodd" clip-rule="evenodd" d="M239.403 171.312C239.403 171.312 243.26 173.025 234.868 174.055C234.868 174.055 228.382 173.972 229.523 172.598C230.267 171.689 239.403 171.312 239.403 171.312Z" fill="#E5BDA3"/>
<path fill-rule="evenodd" clip-rule="evenodd" d="M238.852 171.412C238.852 171.412 238.912 171.722 234.873 172.182C233.547 172.293 232.213 172.28 230.889 172.143C229.484 171.9 239.954 171.063 238.852 171.412Z" fill="#F9E3D2"/>
<path fill-rule="evenodd" clip-rule="evenodd" d="M238.956 167.3C238.956 167.3 238.956 167.699 233.882 167.66C232.212 167.598 230.552 167.381 228.922 167.012C227.209 166.496 240.395 167.023 238.956 167.3Z" fill="#F9E3D2"/>
<path fill-rule="evenodd" clip-rule="evenodd" d="M205.399 146.86L192.006 148.886C191.717 148.927 191.424 148.85 191.191 148.674C190.957 148.498 190.802 148.235 190.761 147.945L189.643 140.596C189.596 140.306 189.666 140.009 189.837 139.772C190.008 139.534 190.266 139.375 190.554 139.328L203.952 137.301C204.095 137.28 204.241 137.288 204.382 137.324C204.522 137.36 204.654 137.423 204.771 137.511C204.887 137.598 204.985 137.707 205.059 137.832C205.133 137.958 205.182 138.096 205.203 138.241L206.321 145.59C206.344 145.734 206.339 145.881 206.305 146.023C206.271 146.165 206.21 146.299 206.125 146.416C206.04 146.534 205.932 146.634 205.808 146.71C205.685 146.786 205.547 146.836 205.404 146.859" fill="white"/>
<path fill-rule="evenodd" clip-rule="evenodd" d="M198.309 139.704L196.918 139.915C196.869 139.922 196.82 139.909 196.781 139.88C196.741 139.85 196.715 139.806 196.707 139.757L196.649 139.527C196.642 139.478 196.655 139.428 196.684 139.389C196.713 139.349 196.757 139.323 196.805 139.315L198.196 139.104C198.22 139.1 198.245 139.101 198.269 139.107C198.292 139.113 198.315 139.123 198.334 139.138C198.354 139.153 198.371 139.171 198.383 139.193C198.395 139.214 198.403 139.237 198.406 139.262L198.464 139.487C198.468 139.512 198.467 139.537 198.462 139.561C198.456 139.586 198.446 139.608 198.431 139.629C198.417 139.649 198.398 139.666 198.377 139.679C198.356 139.692 198.333 139.7 198.309 139.704Z" fill="#262626"/>
<path fill-rule="evenodd" clip-rule="evenodd" d="M197.16 139.659L197.96 139.541L197.634 137.366L196.83 137.49L197.16 139.659Z" fill="#6A6A6A"/>
<path fill-rule="evenodd" clip-rule="evenodd" d="M198.606 146.108C198.009 146.198 197.397 146.109 196.849 145.851C196.302 145.592 195.842 145.177 195.528 144.657C195.214 144.137 195.061 143.535 195.086 142.928C195.112 142.321 195.317 141.736 195.673 141.246C196.03 140.757 196.524 140.385 197.091 140.177C197.659 139.97 198.276 139.936 198.863 140.081C199.451 140.225 199.983 140.541 200.393 140.989C200.802 141.437 201.071 141.996 201.165 142.597C201.227 142.997 201.211 143.405 201.116 143.798C201.021 144.192 200.85 144.562 200.612 144.888C200.374 145.214 200.075 145.49 199.731 145.699C199.386 145.909 199.004 146.047 198.606 146.108Z" fill="#C30000"/>
<path fill-rule="evenodd" clip-rule="evenodd" d="M193.857 145.075L194.243 143.439L194.835 143.351L194.453 144.981L193.857 145.075Z" fill="#C30000"/>
<path fill-rule="evenodd" clip-rule="evenodd" d="M201.485 143.922L201.86 142.288L202.183 142.24L201.807 143.869L201.485 143.922Z" fill="#C30000"/>
<path fill-rule="evenodd" clip-rule="evenodd" d="M202.683 143.737L203.059 142.109L203.23 142.065L202.854 143.694L202.683 143.737Z" fill="#C30000"/>
<path fill-rule="evenodd" clip-rule="evenodd" d="M200.715 142.46L200.167 142.542C200.157 142.545 200.147 142.55 200.139 142.557C200.131 142.564 200.125 142.573 200.121 142.583L199.961 143.544L199.53 142.676C199.524 142.666 199.516 142.658 199.505 142.654C199.495 142.649 199.484 142.648 199.473 142.65L198.437 142.805C198.427 142.808 198.418 142.814 198.412 142.823C198.406 142.832 198.403 142.843 198.404 142.854L198.449 143.163C198.414 142.914 198.137 142.853 197.983 142.875C197.826 142.9 197.682 142.981 197.58 143.104C197.477 143.227 197.422 143.383 197.425 143.543C197.368 143.318 197.347 143.237 197.283 143.162C197.247 143.124 197.202 143.094 197.153 143.075C197.038 143.031 196.913 143.023 196.794 143.052L196.591 143.104C196.582 143.101 196.572 143.101 196.563 143.103C196.554 143.106 196.545 143.111 196.538 143.117L196.424 143.609L196.354 143.153C196.351 143.142 196.345 143.133 196.336 143.127C196.327 143.121 196.316 143.118 196.305 143.119L195.829 143.189C195.818 143.191 195.807 143.195 195.799 143.202C195.791 143.21 195.785 143.219 195.782 143.23L195.663 143.746C195.663 143.746 195.647 143.796 195.675 143.794L195.857 143.748L195.996 144.674C195.998 144.684 196.005 144.693 196.013 144.7C196.022 144.706 196.033 144.708 196.044 144.707L196.521 144.637C196.531 144.635 196.54 144.628 196.547 144.619C196.553 144.61 196.555 144.599 196.554 144.589L196.415 143.663L196.592 143.618C196.649 143.602 196.709 143.601 196.767 143.614C196.792 143.62 196.816 143.634 196.834 143.654C196.879 143.736 196.902 143.829 196.902 143.922L196.988 144.507C196.991 144.517 196.997 144.527 197.006 144.533C197.015 144.539 197.026 144.542 197.036 144.54L197.492 144.476C197.507 144.473 197.521 144.465 197.533 144.454C197.544 144.443 197.552 144.429 197.556 144.414L197.618 144.146C197.705 144.233 197.812 144.298 197.929 144.334C198.046 144.37 198.17 144.376 198.291 144.352L198.349 144.337C198.365 144.334 198.379 144.327 198.39 144.316C198.402 144.305 198.41 144.291 198.413 144.275L198.523 143.813L198.591 144.259C198.591 144.264 198.593 144.27 198.596 144.274C198.599 144.279 198.603 144.283 198.607 144.287C198.612 144.29 198.617 144.292 198.623 144.293C198.628 144.294 198.634 144.294 198.639 144.292L199.1 144.226C199.116 144.224 199.13 144.217 199.142 144.205C199.153 144.194 199.161 144.18 199.164 144.164L199.282 143.665C199.272 143.628 199.233 143.632 199.233 143.632L199.073 143.673L198.95 142.875L199.67 144.098C199.677 144.113 199.688 144.125 199.702 144.131C199.716 144.138 199.733 144.14 199.748 144.136L200.296 144.053C200.311 144.05 200.325 144.043 200.337 144.032C200.348 144.021 200.356 144.007 200.359 143.991L200.718 142.471C200.732 142.415 200.672 142.425 200.672 142.425L200.715 142.46ZM198.558 143.793L198.245 143.838C198.186 143.847 198.125 143.832 198.076 143.796C198.028 143.76 197.995 143.706 197.986 143.646C197.977 143.587 197.992 143.526 198.027 143.477C198.063 143.428 198.116 143.396 198.176 143.387L198.261 143.365C198.291 143.36 198.321 143.361 198.35 143.369C198.379 143.376 198.406 143.388 198.43 143.406C198.454 143.424 198.475 143.447 198.49 143.472C198.506 143.498 198.516 143.526 198.52 143.556L198.558 143.793Z" fill="white"/>
</svg>

