<svg width="1004" height="1004" viewBox="0 0 1004 1004" fill="none" xmlns="http://www.w3.org/2000/svg">
<path fill-rule="evenodd" clip-rule="evenodd" d="M260.962 457.317C260.962 457.317 200.066 205.785 164.69 156.26C164.69 156.26 267.489 92.4786 374.139 92.4786C480.788 92.4786 560.156 133.49 560.156 133.49V457.317H260.962Z" fill="#630701"/>
<path fill-rule="evenodd" clip-rule="evenodd" d="M139.529 885.79C139.529 868.155 361.444 833.639 492.504 833.639C623.565 833.639 861.438 860.166 861.438 883.641C861.438 907.116 686.011 940.302 492.504 940.302C298.998 940.302 139.529 915.728 139.529 885.79Z" fill="#DDC7A2"/>
<path fill-rule="evenodd" clip-rule="evenodd" d="M325.399 795.499L291.394 876.094H284.655L310.664 782.391L325.399 795.499Z" fill="#852500"/>
<path fill-rule="evenodd" clip-rule="evenodd" d="M290.708 793.53L280.755 876.094H288.44L315.494 795.105L290.708 793.53Z" fill="#9B3601"/>
<path fill-rule="evenodd" clip-rule="evenodd" d="M590.196 777.864L628.003 867.466H635.476L606.578 763.296L590.196 777.864Z" fill="#852500"/>
<path fill-rule="evenodd" clip-rule="evenodd" d="M628.754 775.665L639.817 867.466H631.266L601.194 777.404L628.754 775.665Z" fill="#9B3601"/>
<path fill-rule="evenodd" clip-rule="evenodd" d="M352.012 795.499L344.196 856.507H354.117L391.239 772.056H357.658L352.012 795.499Z" fill="#852500"/>
<path fill-rule="evenodd" clip-rule="evenodd" d="M572.72 795.499L580.536 856.507H570.615L533.493 772.056H567.074L572.72 795.499Z" fill="#852500"/>
<path fill-rule="evenodd" clip-rule="evenodd" d="M635.868 742.495V595.165H384.957L377.337 752.83L635.868 742.495Z" fill="#630701"/>
<path d="M635.868 742.495H364.936V777.043H635.868V742.495Z" fill="#430000"/>
<path fill-rule="evenodd" clip-rule="evenodd" d="M383.88 742.479C383.88 742.479 374.171 621.692 438.396 616.705L396.64 579.647L354.117 586.405L359.779 749.598L383.88 742.479Z" fill="#430000"/>
<path fill-rule="evenodd" clip-rule="evenodd" d="M243.143 547.871C243.143 547.871 251.172 760.294 260.146 790.758C260.146 790.758 362.749 801.978 374.971 790.758L370.288 535.354L243.143 547.871Z" fill="#630701"/>
<path fill-rule="evenodd" clip-rule="evenodd" d="M248.479 665.525C248.479 665.525 241.055 553.235 243.715 550.528C246.374 547.822 378.153 546.837 378.153 546.837V561.273C378.153 561.273 289.403 560.601 248.479 665.525Z" fill="#510201"/>
<path fill-rule="evenodd" clip-rule="evenodd" d="M281.93 457.317L220.267 463.567C220.267 463.567 211.227 466.586 211.227 481.613C211.227 481.613 211.227 531.86 216.008 540.407C220.789 548.953 238.852 547.887 238.852 547.887H365.637V445.752L281.93 457.317Z" fill="#630701"/>
<path fill-rule="evenodd" clip-rule="evenodd" d="M220.267 463.567C220.267 463.567 205.369 471.048 223.432 471.376C241.495 471.704 305.296 472.098 362.358 501.495V445.719L220.267 463.567Z" fill="#7C0809"/>
<path fill-rule="evenodd" clip-rule="evenodd" d="M638.854 448.885C638.854 448.885 667.409 444.604 668.47 465.634C669.531 486.665 674.132 532.976 666.691 535.289C659.251 537.602 630.157 471.688 638.854 448.885Z" fill="#430000"/>
<path fill-rule="evenodd" clip-rule="evenodd" d="M656.428 547.871V579.663L618.457 554.81L656.428 547.871Z" fill="#430000"/>
<path d="M619.942 786.115C619.942 786.115 630.271 846.96 629.194 857.656C628.117 868.352 622.814 873.158 624.413 880.36C626.012 887.561 618.833 891.597 660.572 893.483C702.312 895.37 663.412 865.415 663.412 865.415L652.577 859.526L653.898 783.458L619.942 786.115Z" fill="#F9E3D2"/>
<path d="M527.064 824.699C527.064 824.699 534.244 863.184 533.167 873.913C532.09 884.641 526.787 889.415 528.386 896.633C529.985 903.851 522.805 907.854 564.545 909.757C606.285 911.66 567.384 881.705 567.384 881.705L556.566 875.816L557.888 822.369L527.064 824.699Z" fill="#F9E3D2"/>
<path fill-rule="evenodd" clip-rule="evenodd" d="M419.158 262.266L456.574 277.736L456.72 299.062V318.928H419.158V262.266Z" fill="#F9E3D2"/>
<path d="M471.259 277.949C496.714 277.949 526.395 256.197 526.395 203.341C526.395 180.375 524.519 166.07 519.036 150.37C509.001 121.597 488.18 101.583 453.767 101.583C426.664 101.583 404.114 116.347 393.393 139.018C386.426 153.783 386.654 172.008 386.654 191.645C386.654 211.281 390.652 207.163 391.451 214.316C393.687 234.182 399.61 250.8 412.37 262.939C427.202 276.949 445.821 277.949 471.259 277.949Z" fill="#F9E3D2"/>
<path fill-rule="evenodd" clip-rule="evenodd" d="M497.04 187.281C497.04 182.786 498.672 179.423 501.087 178.849C501.93 178.726 502.789 178.86 503.554 179.235C504.32 179.609 504.955 180.206 505.379 180.949C508.299 185.788 509.621 196.221 505.183 197.78C499.88 199.519 497.04 194.712 497.04 187.281Z" fill="#262626"/>
<path fill-rule="evenodd" clip-rule="evenodd" d="M457.243 199.059C451.483 198.83 450.471 189.742 452.56 184.673C452.968 183.721 454.42 179.669 458.532 179.751C459.873 179.833 461.171 180.26 462.3 180.993C463.429 181.726 464.351 182.739 464.977 183.934C467.082 189.331 466.609 199.289 458.727 199.059H457.243Z" fill="#262626"/>
<path d="M482.993 201.553C483.41 201.976 483.869 202.356 484.364 202.685C485.178 203.238 486.093 203.624 487.056 203.821C488.02 204.018 489.012 204.022 489.977 203.833L490.385 203.735C493.175 203.292 495.068 203.636 495.753 204.588C498.478 208.361 497.613 212.364 492.947 215.644C490.499 217.383 487.121 217.99 485.326 217.088C485.114 216.983 484.881 216.925 484.643 216.92C484.406 216.914 484.171 216.96 483.953 217.056C483.736 217.151 483.542 217.293 483.384 217.471C483.227 217.65 483.11 217.86 483.042 218.089C482.853 218.553 482.839 219.069 483.001 219.543C483.163 220.017 483.491 220.415 483.923 220.664C486.876 222.141 491.429 221.337 494.774 219.024C501.105 214.562 502.557 207.885 498.446 202.176C496.814 199.83 493.795 199.289 489.912 199.912L489.406 200.011C488.277 200.238 487.104 200.008 486.142 199.371C485.857 199.171 485.589 198.946 485.343 198.698C485.181 198.532 484.985 198.402 484.769 198.317C484.553 198.232 484.321 198.195 484.089 198.207C483.858 198.22 483.631 198.282 483.426 198.389C483.22 198.496 483.039 198.647 482.895 198.83C482.593 199.224 482.437 199.712 482.455 200.209C482.473 200.706 482.663 201.182 482.993 201.553Z" fill="#262626"/>
<path d="M484.564 240.815C484.8 240.863 485.025 240.957 485.225 241.093C485.425 241.229 485.595 241.404 485.727 241.607C485.859 241.81 485.949 242.038 485.992 242.276C486.035 242.515 486.03 242.76 485.977 242.997C485.607 244.773 483.3 245.621 477.648 246.493C476.898 246.61 476.141 246.674 475.382 246.685C473.932 246.72 472.48 246.65 471.039 246.475C470.222 246.387 469.601 246.296 469.225 246.235C468.746 246.149 468.32 245.876 468.041 245.474C467.762 245.073 467.653 244.577 467.738 244.095C467.823 243.613 468.095 243.185 468.494 242.905C468.894 242.625 469.387 242.516 469.866 242.601L471.501 242.811C472.774 242.959 474.056 243.02 475.338 242.994C475.944 242.989 476.549 242.938 477.147 242.841C478.915 242.621 480.658 242.237 482.355 241.695L482.745 241.543C482.948 241.261 483.227 241.042 483.549 240.914C483.871 240.785 484.223 240.751 484.564 240.815Z" fill="#262626"/>
<path d="M581.58 611.373C581.58 611.373 596.119 605.303 597.539 613.145C598.958 620.986 608.7 797.352 610.919 801.634C610.919 801.634 645.74 817.3 671.962 797.713L663.46 599.611C663.46 599.611 666.724 579.663 652.822 570.755C638.919 561.848 624.837 554.81 624.837 554.81L560.335 586.783L581.58 611.373Z" fill="#103157"/>
<path d="M653.801 806.03C653.801 806.03 681.263 596.445 633.159 575.595C633.159 575.595 623.532 565.621 603.201 562.471C582.869 559.321 626.779 556.418 626.779 556.418C626.779 556.418 658.353 566.753 661.959 578.859C665.565 590.966 671.962 798.337 671.962 798.337L653.801 806.03Z" fill="#174974"/>
<path fill-rule="evenodd" clip-rule="evenodd" d="M429.52 345.832V308.249H461.142V355.724L429.52 345.832Z" fill="#1F78B9"/>
<path fill-rule="evenodd" clip-rule="evenodd" d="M359.616 451.691C359.616 451.691 316.832 466.914 269.512 465.585C222.192 464.257 269.512 390.501 269.512 390.501C269.512 390.501 321.075 312.202 350.054 280.935C350.054 280.935 360.726 272.388 362.439 287.874C364.152 303.36 356.565 362.433 356.565 362.433C356.565 362.433 335.434 391.961 326.394 402.345L350.577 398.704L359.616 451.691Z" fill="#338AE3"/>
<path fill-rule="evenodd" clip-rule="evenodd" d="M362.129 297.996C362.933 321.763 354.964 344.989 339.758 363.204C314.287 393.405 293.025 407.89 293.025 407.89C293.025 407.89 280.526 419.866 290.088 417.06C299.65 414.255 312.149 409.695 312.149 409.695C312.149 409.695 294.608 429.118 292.226 435.844C289.844 442.57 290.594 445.998 297.806 441.47C305.019 436.943 325.709 411.565 325.709 411.565C332.652 416.671 338.245 423.409 342 431.191C345.754 438.972 347.556 447.559 347.248 456.202L370.288 446.507L347.444 368.273C347.444 368.273 370.892 334.873 362.129 297.996Z" fill="#1F78B9"/>
<path fill-rule="evenodd" clip-rule="evenodd" d="M352.078 279.622C352.078 279.622 364.348 271.847 371.919 279.737C379.491 287.628 373.453 345.651 367.677 361.629H352.127C352.127 361.629 374.628 298.422 352.078 279.622Z" fill="#C83D20"/>
<path fill-rule="evenodd" clip-rule="evenodd" d="M364.789 276.276L407.818 289.99C407.818 289.99 416.319 327.573 427.839 333.626C430.091 333.631 432.297 334.268 434.208 335.465C436.119 336.662 437.66 338.371 438.657 340.402C441.087 344.767 444.132 348.756 447.697 352.246C447.697 352.246 458.499 335.415 465.94 331.133C465.94 331.133 468.958 308.692 460.098 293.73C460.098 293.73 466.821 299.423 497.122 299.603C497.122 299.603 508.299 335.693 505.46 368.191L368.558 358.922C368.558 358.922 383.603 296.404 364.789 276.276Z" fill="#B03114"/>
<path fill-rule="evenodd" clip-rule="evenodd" d="M497.106 299.603C497.106 299.603 498.346 297.29 504.563 299.603C504.563 299.603 517.307 350.917 515.626 369.618H504.204C504.204 369.618 503.665 314.039 497.106 299.603Z" fill="#C83D20"/>
<path fill-rule="evenodd" clip-rule="evenodd" d="M504.563 299.603C504.563 299.603 519.248 305.706 542.484 353.345L515.626 364.451L504.563 299.603Z" fill="#338AE3"/>
<path fill-rule="evenodd" clip-rule="evenodd" d="M419.142 276.276L407.818 289.99L420.398 338.794C420.398 338.794 439.179 341.648 448.219 315.631C448.219 315.631 450.52 334.693 464.341 339.86C478.161 345.028 460.098 293.73 460.098 293.73L456.72 292.303C456.72 292.303 457.438 307.264 445.429 301.572C416.482 287.825 419.142 276.276 419.142 276.276Z" fill="#338AE3"/>
<path d="M393.132 592.541C393.132 592.541 435.655 628.286 511.938 638.474L498.395 815.873C498.395 815.873 523.899 838.331 568.021 824.436L580.226 629.353C580.226 629.353 587.161 605.845 581.058 598.364C574.956 590.884 533.999 561.224 533.999 561.224L393.132 592.541Z" fill="#0A2D46"/>
<path d="M475.551 592.147C475.551 592.147 435.328 591.081 435.328 603.368C435.328 615.655 458.01 629.025 531.372 622.069C531.372 622.069 524.16 721.481 503.845 819.285C503.845 819.285 528.712 831.572 556.354 826.224L571.627 638.703C571.627 638.703 578.284 592.163 550.839 592.18C523.393 592.196 475.551 592.147 475.551 592.147Z" fill="#133155"/>
<path d="M549.957 591.95C549.957 591.95 571.17 594.624 570.746 618.673C570.321 642.722 554.428 827.734 554.428 827.734L568.233 824.961C568.233 824.961 592.709 611.111 582.184 597.036C570.126 580.91 564.513 582.271 564.513 582.271L549.957 591.95Z" fill="#174974"/>
<path d="M529.022 902.244C529.022 902.244 490.106 908.346 515.365 911.282C540.624 914.219 613.448 918.222 636.031 914.76C658.614 911.299 667.132 909.412 654.649 897.125C642.166 884.838 600.982 868.516 578.888 867.449C578.888 867.449 558.981 868.794 567.466 885.888C581.287 914.301 529.022 902.244 529.022 902.244Z" fill="#9F2712"/>
<path d="M628.101 886.019C628.101 886.019 589.201 892.122 614.443 895.058C639.686 897.995 712.527 902.014 735.191 898.536C757.856 895.058 766.292 893.188 753.793 880.901C741.294 868.614 700.142 852.308 678.048 851.241C678.048 851.241 658.141 852.57 666.528 869.68C680.316 898.011 628.101 886.019 628.101 886.019Z" fill="#9F2712"/>
<path d="M712.037 859.969C712.037 859.969 747.707 875.127 755.098 885.084C762.49 895.042 699.016 879.474 669.253 861.839C669.253 861.839 667.621 849.552 688.393 853.292C709.165 857.032 712.037 859.969 712.037 859.969Z" fill="#AF3314"/>
<path d="M612.42 876.57C612.42 876.57 648.073 891.728 655.481 901.686C662.889 911.643 599.382 896.075 569.62 878.44C569.62 878.44 567.988 866.153 588.76 869.894C609.532 873.634 612.42 876.57 612.42 876.57Z" fill="#AF3314"/>
<path fill-rule="evenodd" clip-rule="evenodd" d="M340.231 408.989L354.574 444.423L384.777 437.533L386.262 411.581L375.656 403.494L340.231 408.989Z" fill="#E6CEAA"/>
<path fill-rule="evenodd" clip-rule="evenodd" d="M633.73 389.074L635.231 426.92L606.709 431.644L594.259 406.594L605.925 391.896L633.73 389.074Z" fill="#E6CEAA"/>
<path d="M387.457 210.853V171.012C359.53 168.114 313.761 188.518 296.307 198.176L302.125 205.42L323.652 212.676H345.528L387.457 210.853Z" fill="#23262A"/>
<path d="M624.448 174.38C614.239 167.086 553.958 161.615 526.005 159.791L527.828 199.911C564.289 196.264 634.657 181.675 624.448 174.38Z" fill="#23262A"/>
<path d="M455.297 160.644C373.626 165.021 330.115 183.743 309.455 191.646C301.078 194.85 294.46 200.612 300.34 205.942C289.752 198.961 294.98 180.16 378.728 153.957C377.682 149.681 378.755 143.292 384.745 136.937C383.221 130.608 383.67 120.631 389.667 110.639C387.625 109.725 385.497 107.141 385.013 102.288C383.299 101.882 381.013 100.772 378.728 98.7125C373.979 97.9672 366.11 96.1145 359.955 93.17C347.983 97.4013 322.215 105.149 314.923 102.288C325.619 82.8362 354.556 43.2027 384.745 40.2849C422.481 36.6377 409.72 45.7558 435.242 47.5794C460.764 49.4031 505.099 102.288 520.923 131.466C564.675 142.408 610.254 151.526 623.013 171.586C601.137 166.115 536.967 156.267 455.297 160.644Z" fill="#B03114"/>
<path d="M438.279 118.974C428.668 124.769 423.858 135.024 422.352 140.52C422.178 141.156 421.703 141.672 421.07 141.862L385.634 152.497L379.109 153.802C377.858 154.052 376.744 152.973 376.953 151.714L378.269 143.817C378.317 143.529 378.434 143.257 378.609 143.023L383.238 136.848C383.597 136.37 383.698 135.745 383.509 135.178L382.141 131.073C382.041 130.772 382.021 130.45 382.083 130.138L383.763 121.735C383.795 121.576 383.848 121.422 383.92 121.277L388.693 111.729C389.044 111.027 388.906 110.179 388.351 109.624L380.374 101.644C380.236 101.506 380.076 101.391 379.901 101.303L376.764 99.7342C376.602 99.6529 376.428 99.5964 376.249 99.5665L365.967 97.8523C365.713 97.8099 365.47 97.714 365.256 97.5709L360.934 94.6887C360.421 94.3469 359.771 94.2871 359.204 94.5299L355.515 96.1118C353.692 96.893 351.803 94.7052 351.963 92.7286C352.06 91.5383 351.974 90.2301 351.636 88.8339C351.375 87.76 351.954 86.6102 353.011 86.2901C361.723 83.6522 367.284 78.8833 369.873 75.721C370.558 74.8844 371.83 74.6265 372.863 74.9454C376.461 76.0561 383.88 75.864 395.118 69.4611C395.943 68.9905 396.991 69.2114 397.61 69.9329C404.965 78.5073 420.675 82.1059 429.375 83.0341C430.385 83.1418 431.139 84.02 431.1 85.0349C430.815 92.5682 432.068 106.523 438.884 116.011C439.576 116.974 439.295 118.362 438.279 118.974Z" fill="black" fill-opacity="0.3"/>
<path d="M401.682 233.854C401.682 230.179 394.339 189.774 394.339 189.774C390.552 190.596 386.865 191.828 383.342 193.449C381.277 194.496 379.517 196.06 378.23 197.992C376.944 199.923 376.175 202.155 375.999 204.473C375.999 208.148 375.999 211.822 379.67 219.237C387.013 233.854 398.027 233.854 401.682 233.854Z" fill="#F9E3D2"/>
<path d="M369.667 198.087C369.667 183.498 369.227 170.733 371.05 172.557L383.811 168.909L400.218 165.262C400.218 168.909 405.687 176.933 405.687 179.851C405.687 183.498 402.041 188.969 402.041 203.558C402.041 218.147 407.51 223.618 407.51 241.854C407.51 260.09 389.72 269.209 378.782 298.387C367.844 327.565 376.959 325.741 371.49 325.741C356.906 325.741 351.437 291.092 347.791 269.209C344.145 247.325 364.198 234.56 369.667 227.265C375.136 219.971 369.667 216.324 369.667 198.087Z" fill="#DFDFDF"/>
<path d="M522.225 176.509C514.763 165.552 495.805 166.539 487.259 168.402C484.076 181.675 502.73 175.333 510.459 177.976C515.711 179.772 531.73 181.128 533.297 179.851C534.037 179.249 525.213 180.898 522.225 176.509Z" fill="white"/>
<path d="M435.068 177.95C442.529 166.992 461.488 167.979 470.034 169.842C473.216 183.115 454.562 176.773 446.834 179.417C441.582 181.213 425.563 182.568 423.995 181.292C423.256 180.69 432.079 182.339 435.068 177.95Z" fill="white"/>
<path d="M400.218 185.322C403.135 179.486 401.433 168.302 400.218 167.086C402.041 165.262 409.333 165.262 423.917 163.438C400.218 220.925 452.294 246.832 473.138 249.149C499.39 252.067 518.713 243.678 526.005 194.44C542.413 221.794 529.651 227.265 538.766 241.854C547.881 256.443 533.298 263.738 546.059 283.798C556.267 299.846 553.958 326.957 551.528 338.506C550.92 333.643 546.788 320.635 535.12 307.505C546.788 323.553 547.274 345.801 546.059 354.919C544.843 353.703 533.298 330.847 526.005 314.799C529.652 354.919 553.351 378.626 556.997 391.392C553.351 393.215 536.944 385.921 524.182 373.155C525.641 383.368 549.097 404.157 560.643 413.275L533.297 447.924C510.814 452.179 460.377 457.407 438.501 444.276C411.156 427.864 414.802 407.804 418.448 382.273C403.864 398.686 389.28 404.157 389.28 396.862C389.28 389.568 411.156 356.743 400.218 345.801C381.988 338.506 380.165 318.447 380.165 302.034C380.165 285.621 400.218 256.443 403.864 247.325C407.51 238.207 396.572 214.5 394.749 205.382C392.926 196.264 396.572 192.616 400.218 185.322Z" fill="#F0F0F0"/>
<path fill-rule="evenodd" clip-rule="evenodd" d="M482.355 242.368C496.357 252.186 512.411 258.651 529.283 261.266C529.283 261.266 531.715 241.203 534.374 239.398C543.63 239.169 552.717 241.91 560.319 247.223C560.319 247.223 558.54 266.909 540.281 272.257C540.281 272.257 521.598 271.305 478.276 244.582L482.355 242.368Z" fill="#962101"/>
<path fill-rule="evenodd" clip-rule="evenodd" d="M534.374 239.398C534.374 239.398 534.374 243.221 546.188 246.272C558.002 249.323 560.319 247.223 560.319 247.223C560.319 247.223 551.801 240.071 534.374 239.398Z" fill="#D9391B"/>
<path fill-rule="evenodd" clip-rule="evenodd" d="M537.295 240.415C537.295 240.415 537.295 243.368 546.433 245.731C555.571 248.093 557.349 246.469 557.349 246.469C557.349 246.469 550.757 240.94 537.295 240.415Z" fill="#8C0B01"/>
<path fill-rule="evenodd" clip-rule="evenodd" d="M541.391 245.435C547.098 247.688 553.215 248.7 559.34 248.405C559.34 248.405 556.435 263.464 544.475 269.091C532.514 274.718 537.279 256.476 541.391 245.435Z" fill="#BF300A"/>
<path fill-rule="evenodd" clip-rule="evenodd" d="M548.146 247.683C551.506 248.525 554.964 248.911 558.426 248.831C558.426 248.831 554.053 263.792 546.107 267.631C538.16 271.469 544.083 256 548.146 247.683Z" fill="#DC3417"/>
<path d="M472.732 227.103C457.553 225.006 425.68 224.835 419.618 240.929C457.807 240.471 489.753 239.355 472.732 227.103Z" fill="white"/>
<path d="M480.184 227.103C495.363 225.006 527.236 224.835 533.298 240.929C495.109 240.471 463.163 239.355 480.184 227.103Z" fill="white"/>
<path d="M425.74 333.036C419.907 340.33 406.295 343.369 400.218 343.977C409.333 358.566 395.114 411.816 418.448 405.98C447.616 398.686 433.032 323.917 425.74 333.036Z" fill="black" fill-opacity="0.1"/>
<path d="M381.988 291.862C378.342 305.681 378.342 340.33 400.218 343.977C418.448 338.506 407.511 342.154 420.272 336.683C398.396 341.059 385.634 308.626 381.988 291.862Z" fill="black" fill-opacity="0.1"/>
<path d="M445.793 350.218C439.96 357.512 426.348 360.552 420.271 361.159C429.386 375.748 415.167 428.998 438.501 423.163C467.669 415.868 453.085 341.1 445.793 350.218Z" fill="black" fill-opacity="0.1"/>
<path d="M529.651 350.218C523.818 357.512 510.206 360.552 504.129 361.159C513.244 375.748 499.025 428.998 522.359 423.163C551.527 415.868 536.944 341.1 529.651 350.218Z" fill="black" fill-opacity="0.1"/>
<path fill-rule="evenodd" clip-rule="evenodd" d="M366.633 598.184C366.633 598.184 436.34 576.448 538.046 606.386C538.046 606.386 612.828 552.596 674.85 548.675C674.85 548.675 638.266 453.627 634.823 424.312C631.38 394.996 639.996 317.796 639.996 317.796L510.045 365.173L382.183 352.361L319.378 364.09C319.378 364.09 343.56 412.861 350.919 435.368C368.281 488.437 366.633 598.184 366.633 598.184Z" fill="#E6CEAA"/>
<path fill-rule="evenodd" clip-rule="evenodd" d="M538.046 606.37C538.046 606.37 612.828 552.579 674.85 548.658C674.85 548.658 638.267 453.61 634.824 424.295C631.381 394.98 639.996 317.78 639.996 317.78L510.045 365.156" fill="#FAE4C6"/>
<path fill-rule="evenodd" clip-rule="evenodd" d="M516.963 458.023L518.024 452.724L626.485 424.935V434.302L516.963 458.023Z" fill="#E6CEAA"/>
<path fill-rule="evenodd" clip-rule="evenodd" d="M322.396 364.992L346.497 385.301L382.835 353.411L384.957 354.657L377.336 362.318C377.336 362.318 459.543 368.372 480.282 373.178V382.627C480.282 382.627 411.488 369.077 365.882 375.147L354.819 385.301C354.819 385.301 388.138 378.346 422.519 382.02C456.9 385.695 499.585 390.993 499.585 390.993V400.262C499.585 400.262 434.561 390.108 402.84 390.108C371.12 390.108 336.576 399.327 336.576 399.327L322.396 364.992Z" fill="#C4AC8D"/>
<path fill-rule="evenodd" clip-rule="evenodd" d="M499.602 405.315V411.581L417.82 407.89V398.671L499.602 405.315Z" fill="#C4AC8D"/>
<path fill-rule="evenodd" clip-rule="evenodd" d="M499.602 417.667V422.54L417.82 420.112V411.581L499.602 417.667Z" fill="#C4AC8D"/>
<path fill-rule="evenodd" clip-rule="evenodd" d="M391.239 434.302V477.052L497.121 478.118L499.602 435.844L391.239 434.302Z" fill="#C4AC8D"/>
<path fill-rule="evenodd" clip-rule="evenodd" d="M375.036 483.466V492.538H498.623V488.01L375.036 483.466Z" fill="#C4AC8D"/>
<path fill-rule="evenodd" clip-rule="evenodd" d="M410.64 496.82L411.978 503.496H498.623V496.82H410.64Z" fill="#C4AC8D"/>
<path fill-rule="evenodd" clip-rule="evenodd" d="M378.169 507.516L380.877 514.717L498.623 512.847V507.516H378.169Z" fill="#C4AC8D"/>
<path fill-rule="evenodd" clip-rule="evenodd" d="M391.239 554.81L394.159 562.553H516.963V558.681L391.239 554.81Z" fill="#C4AC8D"/>
<path fill-rule="evenodd" clip-rule="evenodd" d="M546.988 580.451C546.988 580.451 585.529 551.857 632.849 541.178V549.725C632.849 549.725 577.827 566.523 546.988 588.472V580.451Z" fill="#E6CEAA"/>
<path fill-rule="evenodd" clip-rule="evenodd" d="M545.128 575.644L542.745 570.033C542.745 570.033 568.853 551.332 584.746 546.788V554.81C584.746 554.81 562.147 563.882 545.128 575.644Z" fill="#E6CEAA"/>
<path fill-rule="evenodd" clip-rule="evenodd" d="M592.447 542.785V550.528C603.776 544.15 616.237 540.065 629.128 538.504V529.678C629.128 529.678 615.83 530.219 592.447 542.785Z" fill="#E6CEAA"/>
<path fill-rule="evenodd" clip-rule="evenodd" d="M518.301 486.665L621.59 469.834V462.075L516.963 481.859L518.301 486.665Z" fill="#E6CEAA"/>
<path fill-rule="evenodd" clip-rule="evenodd" d="M518.024 471.704L516.963 475.707L615.846 458.876L614.786 451.658L518.024 471.704Z" fill="#E6CEAA"/>
<path fill-rule="evenodd" clip-rule="evenodd" d="M516.963 467.16V462.075L589.934 448.885V451.658L516.963 467.16Z" fill="#E6CEAA"/>
<path fill-rule="evenodd" clip-rule="evenodd" d="M515.642 368.814L632.849 327.672V342.37L515.642 376.836V368.814Z" fill="#E6CEAA"/>
<path fill-rule="evenodd" clip-rule="evenodd" d="M516.963 384.317V389.074L595.645 366.157V358.939L516.963 384.317Z" fill="#E6CEAA"/>
<path fill-rule="evenodd" clip-rule="evenodd" d="M516.963 393.864V398.671L568.004 384.858V376.836L516.963 393.864Z" fill="#E6CEAA"/>
<path fill-rule="evenodd" clip-rule="evenodd" d="M575.705 375.508L595.645 370.422V376.836L576.766 382.184L575.705 375.508Z" fill="#E6CEAA"/>
<path fill-rule="evenodd" clip-rule="evenodd" d="M516.963 402.313L595.645 382.184V390.469L516.963 407.89V402.313Z" fill="#E6CEAA"/>
<path fill-rule="evenodd" clip-rule="evenodd" d="M516.963 411.581V417.06L595.645 398.671V390.469L516.963 411.581Z" fill="#E6CEAA"/>
<path fill-rule="evenodd" clip-rule="evenodd" d="M338.257 405.643C338.257 405.643 324.55 415.059 357.756 412.943C357.756 412.943 382.786 407.939 377.336 403.445C373.828 400.475 338.257 405.643 338.257 405.643Z" fill="#E5BDA3"/>
<path fill-rule="evenodd" clip-rule="evenodd" d="M338.6 406.217C338.6 406.217 338.469 409.695 357.871 409.695C357.871 409.695 370.239 408.76 376.75 404.347C383.26 399.934 333.15 403.674 338.6 406.217Z" fill="#F9E3D2"/>
<path fill-rule="evenodd" clip-rule="evenodd" d="M342.548 419.226C342.548 419.226 328.531 432.169 365.865 424.311C365.865 424.311 393.442 414.468 386.588 410.285C382.036 407.513 342.548 419.226 342.548 419.226Z" fill="#E5BDA3"/>
<path fill-rule="evenodd" clip-rule="evenodd" d="M343.805 418.881C343.805 418.881 343.952 420.522 365.327 416.749C365.327 416.749 378.871 413.861 385.675 410.466C392.479 407.07 337.653 418.783 343.805 418.881Z" fill="#F9E3D2"/>
<path fill-rule="evenodd" clip-rule="evenodd" d="M341.406 432.596C341.406 432.596 327.389 445.539 364.723 437.665C364.723 437.665 392.3 427.822 385.446 423.655C380.91 420.866 341.406 432.596 341.406 432.596Z" fill="#E5BDA3"/>
<path fill-rule="evenodd" clip-rule="evenodd" d="M350.283 443.045C350.283 443.045 339.513 452.987 368.232 446.933C368.232 446.933 389.444 439.404 384.157 436.172C380.633 434.039 350.283 443.045 350.283 443.045Z" fill="#E5BDA3"/>
<path fill-rule="evenodd" clip-rule="evenodd" d="M349.304 430.365C349.304 430.365 349.418 431.71 366.307 428.724C366.307 428.724 376.994 426.444 382.363 423.803C387.731 421.162 344.392 430.25 349.304 430.365Z" fill="#F9E3D2"/>
<path fill-rule="evenodd" clip-rule="evenodd" d="M358.637 440.847C358.637 440.847 358.718 441.782 370.581 439.666C374.439 438.865 378.215 437.7 381.856 436.188C385.625 434.302 355.177 440.765 358.637 440.847Z" fill="#F9E3D2"/>
<path fill-rule="evenodd" clip-rule="evenodd" d="M639.898 389.501C639.898 389.501 654.453 397.555 621.199 398.671C621.199 398.671 595.809 396.112 600.737 391.108C604.017 387.811 639.898 389.501 639.898 389.501Z" fill="#E5BDA3"/>
<path fill-rule="evenodd" clip-rule="evenodd" d="M639.62 390.108C639.62 390.108 640.077 393.552 620.774 395.439C620.774 395.439 608.373 395.702 601.471 391.945C594.568 388.188 644.809 387.04 639.62 390.108Z" fill="#F9E3D2"/>
<path fill-rule="evenodd" clip-rule="evenodd" d="M639.425 402.28C639.425 402.28 656.134 411.466 618.017 412.844C618.017 412.844 588.89 409.99 594.536 404.248C598.273 400.459 639.425 402.28 639.425 402.28Z" fill="#E5BDA3"/>
<path fill-rule="evenodd" clip-rule="evenodd" d="M639.376 402.575C639.376 402.575 639.604 404.216 617.723 405.298C617.723 405.298 603.755 405.544 596.315 403.789C588.874 402.034 645.479 401.066 639.376 402.575Z" fill="#F9E3D2"/>
<path fill-rule="evenodd" clip-rule="evenodd" d="M636.749 414.19C636.749 414.19 650.863 422.769 617.821 422.523C617.821 422.523 592.725 418.963 597.832 414.206C601.193 411.056 636.749 414.19 636.749 414.19Z" fill="#E5BDA3"/>
<path fill-rule="evenodd" clip-rule="evenodd" d="M636.259 426.181C636.259 426.181 647.681 431.25 622.83 434.302C622.83 434.302 603.625 434.056 607.002 429.987C609.205 427.297 636.259 426.181 636.259 426.181Z" fill="#E5BDA3"/>
<path fill-rule="evenodd" clip-rule="evenodd" d="M634.628 426.477C634.628 426.477 634.807 427.395 622.846 428.757C618.919 429.085 614.969 429.046 611.049 428.642C606.888 427.92 637.891 425.443 634.628 426.477Z" fill="#F9E3D2"/>
<path fill-rule="evenodd" clip-rule="evenodd" d="M634.937 414.304C634.937 414.304 634.937 415.485 619.909 415.371C614.966 415.187 610.049 414.545 605.224 413.451C600.149 411.926 639.196 413.484 634.937 414.304Z" fill="#F9E3D2"/>
<path fill-rule="evenodd" clip-rule="evenodd" d="M535.564 353.802L495.906 359.799C495.05 359.919 494.182 359.693 493.491 359.171C492.799 358.649 492.341 357.873 492.217 357.014L488.906 335.258C488.769 334.4 488.977 333.523 489.483 332.82C489.989 332.117 490.752 331.645 491.606 331.508L531.28 325.506C531.704 325.445 532.137 325.468 532.553 325.574C532.969 325.681 533.36 325.868 533.704 326.127C534.048 326.385 534.338 326.709 534.558 327.079C534.778 327.45 534.923 327.861 534.984 328.287L538.295 350.043C538.364 350.469 538.347 350.904 538.248 351.324C538.148 351.744 537.967 352.14 537.715 352.488C537.463 352.837 537.144 353.132 536.778 353.357C536.411 353.582 536.004 353.731 535.58 353.798" fill="white"/>
<path fill-rule="evenodd" clip-rule="evenodd" d="M514.569 332.62L510.451 333.245C510.307 333.265 510.161 333.227 510.044 333.139C509.927 333.052 509.849 332.922 509.827 332.778L509.653 332.094C509.633 331.949 509.671 331.803 509.757 331.685C509.844 331.568 509.973 331.49 510.117 331.468L514.234 330.843C514.306 330.831 514.379 330.834 514.45 330.851C514.521 330.868 514.587 330.9 514.645 330.944C514.704 330.987 514.753 331.042 514.789 331.105C514.826 331.168 514.849 331.238 514.858 331.311L515.028 331.978C515.04 332.051 515.038 332.125 515.022 332.197C515.005 332.269 514.974 332.336 514.932 332.396C514.889 332.455 514.835 332.506 514.773 332.545C514.71 332.583 514.641 332.609 514.569 332.62Z" fill="#262626"/>
<path fill-rule="evenodd" clip-rule="evenodd" d="M511.167 332.487L513.537 332.138L512.572 325.697L510.191 326.066L511.167 332.487Z" fill="#6A6A6A"/>
<path fill-rule="evenodd" clip-rule="evenodd" d="M515.45 351.575C513.68 351.843 511.87 351.578 510.248 350.814C508.625 350.049 507.264 348.82 506.335 347.28C505.405 345.74 504.95 343.96 505.027 342.163C505.104 340.366 505.709 338.634 506.765 337.184C507.822 335.735 509.283 334.634 510.964 334.02C512.646 333.405 514.471 333.306 516.211 333.734C517.951 334.162 519.527 335.097 520.74 336.423C521.953 337.749 522.749 339.405 523.027 341.182C523.212 342.367 523.163 343.575 522.882 344.739C522.601 345.903 522.094 346.999 521.39 347.965C520.686 348.93 519.799 349.746 518.779 350.366C517.76 350.985 516.628 351.396 515.45 351.575Z" fill="#C30000"/>
<path fill-rule="evenodd" clip-rule="evenodd" d="M501.388 348.518L502.53 343.674L504.282 343.414L503.152 348.238L501.388 348.518Z" fill="#C30000"/>
<path fill-rule="evenodd" clip-rule="evenodd" d="M523.974 345.105L525.084 340.269L526.042 340.127L524.927 344.947L523.974 345.105Z" fill="#C30000"/>
<path fill-rule="evenodd" clip-rule="evenodd" d="M527.522 344.558L528.636 339.738L529.142 339.609L528.028 344.429L527.522 344.558Z" fill="#C30000"/>
<path fill-rule="evenodd" clip-rule="evenodd" d="M521.694 340.777L520.073 341.02C520.042 341.029 520.014 341.044 519.99 341.064C519.966 341.085 519.947 341.111 519.935 341.14L519.463 343.985L518.186 341.416C518.169 341.387 518.143 341.365 518.113 341.351C518.082 341.338 518.048 341.334 518.016 341.341L514.95 341.799C514.919 341.807 514.892 341.826 514.874 341.852C514.856 341.879 514.848 341.911 514.852 341.943L514.984 342.857C514.881 342.122 514.06 341.941 513.605 342.006C513.138 342.079 512.714 342.32 512.41 342.683C512.106 343.047 511.944 343.509 511.953 343.984C511.783 343.316 511.723 343.078 511.531 342.856C511.424 342.742 511.292 342.653 511.146 342.598C510.807 342.468 510.437 342.444 510.085 342.53L509.484 342.683C509.456 342.675 509.427 342.674 509.399 342.682C509.372 342.689 509.346 342.703 509.326 342.723L508.989 344.18L508.78 342.828C508.772 342.797 508.753 342.769 508.727 342.751C508.701 342.733 508.669 342.725 508.637 342.729L507.225 342.936C507.192 342.94 507.162 342.953 507.138 342.975C507.113 342.996 507.095 343.024 507.087 343.056L506.735 344.584C506.735 344.584 506.688 344.732 506.771 344.727L507.309 344.59L507.719 347.33C507.727 347.361 507.746 347.388 507.772 347.407C507.799 347.425 507.831 347.433 507.862 347.429L509.275 347.222C509.306 347.214 509.333 347.195 509.351 347.169C509.369 347.142 509.377 347.11 509.373 347.078L508.962 344.339L509.484 344.206C509.653 344.159 509.831 344.154 510.003 344.193C510.079 344.211 510.148 344.253 510.201 344.311C510.334 344.555 510.404 344.828 510.403 345.106L510.658 346.836C510.666 346.867 510.685 346.894 510.711 346.912C510.737 346.931 510.769 346.939 510.801 346.935L512.15 346.744C512.196 346.734 512.238 346.712 512.271 346.68C512.305 346.647 512.328 346.606 512.339 346.56L512.525 345.768C512.781 346.027 513.097 346.217 513.444 346.324C513.792 346.431 514.16 346.449 514.515 346.379L514.689 346.334C514.735 346.325 514.777 346.303 514.811 346.27C514.844 346.238 514.868 346.196 514.878 346.151L515.204 344.782L515.405 346.102C515.406 346.118 515.412 346.134 515.42 346.148C515.429 346.162 515.44 346.175 515.453 346.184C515.467 346.193 515.483 346.2 515.499 346.203C515.515 346.206 515.532 346.205 515.548 346.201L516.912 346.006C516.959 345.998 517.002 345.977 517.036 345.944C517.07 345.911 517.093 345.869 517.101 345.822L517.45 344.345C517.421 344.234 517.307 344.246 517.307 344.246L516.832 344.367L516.467 342.005L518.601 345.627C518.62 345.67 518.653 345.704 518.696 345.725C518.738 345.745 518.786 345.749 518.831 345.737L520.453 345.494C520.498 345.485 520.54 345.462 520.574 345.43C520.607 345.397 520.631 345.356 520.642 345.31L521.702 340.809C521.745 340.645 521.567 340.674 521.567 340.674L521.694 340.777ZM515.306 344.722L514.381 344.856C514.204 344.883 514.025 344.838 513.881 344.732C513.737 344.626 513.641 344.466 513.614 344.289C513.586 344.112 513.63 343.932 513.736 343.787C513.841 343.643 513.999 343.547 514.175 343.52L514.429 343.455C514.516 343.442 514.605 343.445 514.691 343.467C514.777 343.488 514.858 343.526 514.929 343.578C515.001 343.631 515.061 343.697 515.107 343.773C515.152 343.85 515.182 343.934 515.195 344.022L515.306 344.722Z" fill="white"/>
</svg>
