<svg width="14" height="14" viewBox="0 0 14 14" fill="none" xmlns="http://www.w3.org/2000/svg">
    <path fill-rule="evenodd" clip-rule="evenodd" d="M7.00004 1.02148C7.24167 1.02148 7.43754 1.21736 7.43754 1.45898V2.62565C7.43754 2.86728 7.24167 3.06315 7.00004 3.06315C6.75842 3.06315 6.56254 2.86728 6.56254 2.62565V1.45898C6.56254 1.21736 6.75842 1.02148 7.00004 1.02148ZM2.77227 2.77273C2.94312 2.60188 3.22013 2.60188 3.39098 2.77273L4.21594 3.59769C4.3868 3.76855 4.3868 4.04556 4.21594 4.21641C4.04509 4.38726 3.76808 4.38726 3.59722 4.21641L2.77227 3.39145C2.60141 3.2206 2.60141 2.94359 2.77227 2.77273ZM1.02087 7.00065C1.02087 6.75903 1.21675 6.56315 1.45837 6.56315H2.62504C2.86667 6.56315 3.06254 6.75903 3.06254 7.00065C3.06254 7.24228 2.86667 7.43815 2.62504 7.43815H1.45837C1.21675 7.43815 1.02087 7.24228 1.02087 7.00065ZM11.375 6.56315C11.1334 6.56315 10.9375 6.75903 10.9375 7.00065C10.9375 7.24228 11.1334 7.43815 11.375 7.43815H12.5417C12.7833 7.43815 12.9792 7.24228 12.9792 7.00065C12.9792 6.75903 12.7833 6.56315 12.5417 6.56315H11.375ZM9.78423 9.78491C9.95508 9.61405 10.2321 9.61405 10.4029 9.78491L11.2279 10.6099C11.3988 10.7807 11.3988 11.0577 11.2279 11.2286C11.0571 11.3994 10.78 11.3994 10.6092 11.2286L9.78423 10.4036C9.61337 10.2328 9.61337 9.95576 9.78423 9.78491ZM4.81254 7.00065C4.81254 5.79253 5.79192 4.81315 7.00004 4.81315C8.20816 4.81315 9.18754 5.79253 9.18754 7.00065C9.18754 8.20877 8.20816 9.18815 7.00004 9.18815C5.79192 9.18815 4.81254 8.20877 4.81254 7.00065ZM7.00004 3.93815C5.30867 3.93815 3.93754 5.30928 3.93754 7.00065C3.93754 8.69202 5.30867 10.0632 7.00004 10.0632C8.69141 10.0632 10.0625 8.69202 10.0625 7.00065C10.0625 5.30928 8.69141 3.93815 7.00004 3.93815ZM11.2278 3.39145C11.3987 3.2206 11.3987 2.94359 11.2278 2.77273C11.057 2.60188 10.78 2.60188 10.6091 2.77273L9.78414 3.59769C9.61328 3.76855 9.61328 4.04556 9.78414 4.21641C9.95499 4.38726 10.232 4.38726 10.4029 4.21641L11.2278 3.39145ZM7.00004 10.9382C7.24167 10.9382 7.43754 11.134 7.43754 11.3757V12.5423C7.43754 12.7839 7.24167 12.9798 7.00004 12.9798C6.75842 12.9798 6.56254 12.7839 6.56254 12.5423V11.3757C6.56254 11.134 6.75842 10.9382 7.00004 10.9382ZM4.21585 10.4036C4.38671 10.2328 4.38671 9.95576 4.21585 9.78491C4.045 9.61405 3.76799 9.61405 3.59713 9.78491L2.77218 10.6099C2.60132 10.7807 2.60132 11.0577 2.77218 11.2286C2.94303 11.3994 3.22004 11.3994 3.39089 11.2286L4.21585 10.4036Z" fill="#BAD5FB"/>
</svg>
