<svg width="183" height="229" viewBox="0 0 183 229" fill="none" xmlns="http://www.w3.org/2000/svg">
<path d="M97.2718 132.189C111.425 132.189 127.927 120.133 127.927 90.84C127.927 78.1118 126.884 70.1839 123.835 61.4832C118.256 45.5365 106.68 34.4448 87.5464 34.4448C72.4773 34.4448 59.9395 42.6272 53.979 55.1918C50.1051 63.3743 50.2321 73.475 50.2321 84.3577C50.2321 95.2403 52.4548 92.9584 52.8994 96.9223C54.1423 107.932 57.4355 117.142 64.53 123.87C72.7767 131.634 83.1282 132.189 97.2718 132.189Z" fill="#F9E3D2"/>
<path fill-rule="evenodd" clip-rule="evenodd" d="M111.606 81.9393C111.606 79.4482 112.513 77.5844 113.856 77.2662C114.324 77.198 114.802 77.2724 115.228 77.48C115.653 77.6875 116.007 78.0185 116.242 78.43C117.866 81.112 118.601 86.8942 116.133 87.7579C113.185 88.7216 111.606 86.0578 111.606 81.9393Z" fill="#262626"/>
<path fill-rule="evenodd" clip-rule="evenodd" d="M89.4788 88.4671C86.2762 88.3398 85.7138 83.3031 86.875 80.4938C87.1018 79.9664 87.9092 77.7208 90.1954 77.7663C90.9412 77.8114 91.6629 78.0484 92.2906 78.4545C92.9183 78.8606 93.431 79.4221 93.779 80.0846C94.9493 83.0758 94.6862 88.5944 90.3043 88.4671H89.4788Z" fill="#262626"/>
<path d="M103.796 89.849C104.028 90.0837 104.283 90.2939 104.558 90.4763C105.011 90.7829 105.519 90.9969 106.055 91.1061C106.591 91.2153 107.142 91.2175 107.679 91.1127L107.905 91.0582C109.457 90.8127 110.509 91.0036 110.89 91.5309C112.405 93.622 111.925 95.8404 109.33 97.6587C107.969 98.6224 106.091 98.9588 105.093 98.4588C104.975 98.4003 104.845 98.3684 104.713 98.3653C104.582 98.3622 104.451 98.388 104.33 98.4408C104.209 98.4936 104.101 98.5722 104.013 98.671C103.926 98.7699 103.861 98.8867 103.823 99.0133C103.718 99.2704 103.71 99.5568 103.8 99.8193C103.89 100.082 104.072 100.303 104.313 100.441C105.955 101.259 108.486 100.813 110.346 99.5316C113.866 97.0586 114.673 93.3584 112.387 90.1945C111.48 88.8944 109.802 88.5944 107.642 88.9398L107.361 88.9944C106.733 89.1202 106.081 88.9928 105.547 88.6398C105.388 88.5287 105.239 88.404 105.102 88.267C105.012 88.1747 104.903 88.1026 104.783 88.0557C104.663 88.0088 104.534 87.9881 104.405 87.9949C104.277 88.0018 104.151 88.0362 104.036 88.0956C103.922 88.1551 103.821 88.2383 103.741 88.3398C103.573 88.5582 103.487 88.8286 103.497 89.1042C103.507 89.3799 103.612 89.6433 103.796 89.849Z" fill="#262626"/>
<path d="M104.669 111.609C104.801 111.635 104.926 111.687 105.037 111.763C105.148 111.838 105.243 111.935 105.316 112.047C105.389 112.16 105.439 112.286 105.463 112.418C105.487 112.551 105.484 112.686 105.455 112.818C105.249 113.802 103.967 114.272 100.824 114.756C100.407 114.82 99.9862 114.855 99.5643 114.862C98.7576 114.881 97.9506 114.842 97.1495 114.745C96.6952 114.696 96.3499 114.646 96.1408 114.612C95.8743 114.565 95.6375 114.413 95.4826 114.191C95.3276 113.968 95.2671 113.693 95.3143 113.426C95.3616 113.159 95.5128 112.922 95.7347 112.767C95.9566 112.612 96.2309 112.551 96.4974 112.598L97.4061 112.715C98.1141 112.796 98.8269 112.83 99.5395 112.816C99.8765 112.813 100.213 112.785 100.546 112.731C101.528 112.609 102.498 112.397 103.441 112.096L103.658 112.012C103.771 111.855 103.926 111.734 104.105 111.663C104.284 111.592 104.48 111.573 104.669 111.609Z" fill="#262626"/>
<path d="M50.6787 95.003V72.9229C35.1516 71.3171 9.70443 82.6248 1.48831e-06 87.9776L3.23482 91.9921L15.2036 96.0137H27.3665L50.6787 95.003Z" fill="#23262A"/>
<path d="M182.443 74.7896C176.767 70.7469 143.252 67.7149 127.71 66.7043L128.724 88.939C148.995 86.9177 188.119 78.8323 182.443 74.7896Z" fill="#23262A"/>
<path d="M88.3969 67.1769C42.9888 69.6026 18.7972 79.9788 7.31005 84.3584C2.65273 86.134 -1.02698 89.3273 2.24218 92.2813C-3.64471 88.4125 -0.737597 77.993 45.8256 63.4709C45.2439 61.1009 45.8406 57.56 49.1706 54.0382C48.3232 50.5308 48.5729 45.0013 51.9071 39.4636C50.7718 38.9571 49.5889 37.5248 49.3196 34.8355C48.3668 34.6106 47.096 33.9951 45.8256 32.8538C43.1848 32.4408 38.8097 31.414 35.388 29.7821C28.7315 32.1271 14.4048 36.4208 10.3505 34.8355C16.297 24.055 32.386 2.08977 49.1706 0.472695C70.1514 -1.54865 63.0564 3.50471 77.2464 4.51538C91.4364 5.52605 116.086 34.8355 124.884 51.0062C149.21 57.0703 174.552 62.1236 181.646 73.241C169.483 70.209 133.805 64.7513 88.3969 67.1769Z" fill="#B03114"/>
<path d="M78.9351 44.083C73.5918 47.2945 70.9171 52.9779 70.08 56.0237C69.9831 56.3767 69.7188 56.6627 69.3673 56.7678L49.6651 62.6616L46.0372 63.3851C45.3417 63.5238 44.7221 62.9255 44.8387 62.2279L45.5702 57.8513C45.5969 57.6916 45.6617 57.5406 45.7591 57.4111L48.3329 53.9892C48.5325 53.7239 48.5888 53.3778 48.4836 53.0632L47.7231 50.7882C47.6673 50.6213 47.6562 50.4428 47.6908 50.2703L48.6249 45.6129C48.6426 45.5248 48.672 45.4395 48.7123 45.3591L51.3656 40.0677C51.5607 39.6786 51.4842 39.2087 51.1757 38.9011L46.7407 34.4788C46.6637 34.402 46.5747 34.338 46.4773 34.2895L44.7336 33.4201C44.6432 33.375 44.5466 33.3437 44.4469 33.3271L38.7304 32.3771C38.5889 32.3536 38.4541 32.3004 38.3348 32.2211L35.9319 30.6238C35.6469 30.4344 35.2852 30.4012 34.9704 30.5358L32.9189 31.4125C31.9058 31.8454 30.8551 30.633 30.9443 29.5375C30.998 28.8778 30.9506 28.1528 30.7623 27.379C30.6174 26.7839 30.9392 26.1466 31.527 25.9692C36.3706 24.5072 39.4626 21.8643 40.9019 20.1117C41.2827 19.6481 41.9902 19.5052 42.5645 19.6819C44.5651 20.2974 48.6895 20.191 54.9378 16.6424C55.397 16.3816 55.9796 16.504 56.3237 16.9039C60.413 21.6559 69.1472 23.6503 73.9847 24.1647C74.546 24.2244 74.9654 24.7111 74.944 25.2735C74.785 29.4486 75.4818 37.1827 79.2713 42.4407C79.6561 42.9746 79.4998 43.7436 78.9351 44.083Z" fill="black" fill-opacity="0.3"/>
<path d="M58.5877 107.75C58.5877 105.714 54.5052 83.3212 54.5052 83.3212C52.3994 83.7764 50.3492 84.4593 48.3905 85.3578C47.2427 85.9378 46.2639 86.805 45.5487 87.8753C44.8335 88.9457 44.4061 90.1829 44.3079 91.4673C44.3079 93.5038 44.3079 95.5404 46.3492 99.6498C50.4317 107.75 56.5555 107.75 58.5877 107.75Z" fill="#F9E3D2"/>
<path d="M40.7876 87.9283C40.7876 79.843 40.5428 72.7683 41.5565 73.7789L48.6515 71.7576L57.7737 69.7363C57.7737 71.7576 60.8144 76.2046 60.8144 77.8216C60.8144 79.843 58.7873 82.875 58.7873 90.9603C58.7873 99.0457 61.828 102.078 61.828 112.184C61.828 122.291 51.9367 127.344 45.8553 143.515C39.7739 159.686 44.8417 158.675 41.801 158.675C33.6924 158.675 30.6518 139.473 28.6247 127.344C26.5975 115.216 37.7469 108.142 40.7876 104.099C43.8283 100.056 40.7876 98.035 40.7876 87.9283Z" fill="#DFDFDF"/>
<path d="M125.608 75.9694C121.46 69.8967 110.919 70.4437 106.167 71.4763C104.398 78.8323 114.769 75.3175 119.067 76.7825C121.987 77.7781 130.893 78.5291 131.764 77.8216C132.176 77.488 127.27 78.4019 125.608 75.9694Z" fill="white"/>
<path d="M77.1499 76.7678C81.2982 70.6951 91.8389 71.2421 96.5907 72.2747C98.36 79.6307 87.9886 76.1159 83.6915 77.5809C80.7714 78.5765 71.8652 79.3275 70.9936 78.62C70.5825 78.2864 75.4882 79.2003 77.1499 76.7678Z" fill="white"/>
<path d="M57.5936 80.8537C59.2153 77.6195 58.2693 71.4208 57.5936 70.747C58.6073 69.7363 62.6616 69.7363 70.7702 68.7256C57.5936 100.585 86.5475 114.943 98.1367 116.227C112.732 117.844 123.476 113.195 127.53 85.907C136.652 101.067 129.557 104.099 134.625 112.184C139.693 120.27 131.585 124.313 138.68 135.43C144.356 144.324 143.072 159.349 141.72 165.75C141.382 163.055 139.085 155.845 132.598 148.569C139.085 157.463 139.355 169.793 138.68 174.846C138.004 174.172 131.585 161.505 127.53 152.611C129.557 174.846 142.734 187.985 144.761 195.059C142.734 196.07 133.612 192.027 126.517 184.953C127.328 190.613 140.369 202.134 146.788 207.187L131.585 226.39C119.084 228.748 91.0417 231.646 78.8788 224.369C63.6752 215.273 65.7023 204.156 67.7295 190.006C59.6209 199.102 51.5123 202.134 51.5123 198.091C51.5123 194.049 63.6752 175.857 57.5936 169.793C47.4577 165.75 46.4444 154.633 46.4444 145.537C46.4444 136.441 57.5936 120.27 59.6209 115.216C61.6481 110.163 55.5665 97.0244 54.5529 91.971C53.5393 86.9177 55.5664 84.8964 57.5936 80.8537Z" fill="#F0F0F0"/>
<path fill-rule="evenodd" clip-rule="evenodd" d="M103.441 112.469C111.226 117.911 120.152 121.493 129.533 122.942C129.533 122.942 130.885 111.823 132.363 110.823C137.509 110.696 142.562 112.215 146.788 115.16C146.788 115.16 145.799 126.07 135.647 129.034C135.647 129.034 125.26 128.506 101.173 113.696L103.441 112.469Z" fill="#962101"/>
<path fill-rule="evenodd" clip-rule="evenodd" d="M132.363 110.823C132.363 110.823 132.363 112.942 138.932 114.633C145.5 116.324 146.788 115.16 146.788 115.16C146.788 115.16 142.052 111.196 132.363 110.823Z" fill="#D9391B"/>
<path fill-rule="evenodd" clip-rule="evenodd" d="M133.987 111.387C133.987 111.387 133.987 113.024 139.068 114.333C144.148 115.642 145.137 114.742 145.137 114.742C145.137 114.742 141.472 111.678 133.987 111.387Z" fill="#8C0B01"/>
<path fill-rule="evenodd" clip-rule="evenodd" d="M136.264 114.169C139.438 115.418 142.839 115.979 146.244 115.815C146.244 115.815 144.629 124.161 137.979 127.279C131.329 130.398 133.978 120.288 136.264 114.169Z" fill="#BF300A"/>
<path fill-rule="evenodd" clip-rule="evenodd" d="M140.02 115.415C141.889 115.881 143.811 116.096 145.736 116.051C145.736 116.051 143.304 124.343 138.886 126.47C134.468 128.597 137.761 120.024 140.02 115.415Z" fill="#DC3417"/>
<path d="M98.0909 104.009C89.6516 102.847 71.9303 102.752 68.5601 111.672C89.7927 111.418 107.554 110.799 98.0909 104.009Z" fill="white"/>
<path d="M102.234 104.009C110.673 102.847 128.395 102.752 131.765 111.672C110.532 111.418 92.7704 110.799 102.234 104.009Z" fill="white"/>
<path fill-rule="evenodd" clip-rule="evenodd" d="M133.025 174.227L110.975 177.551C110.5 177.617 110.017 177.492 109.632 177.202C109.248 176.913 108.993 176.483 108.924 176.007L107.083 163.95C107.007 163.474 107.123 162.988 107.404 162.599C107.685 162.209 108.11 161.947 108.584 161.871L130.643 158.545C130.879 158.511 131.119 158.524 131.351 158.583C131.582 158.642 131.799 158.746 131.991 158.889C132.182 159.032 132.343 159.212 132.465 159.417C132.588 159.623 132.668 159.85 132.703 160.086L134.543 172.143C134.581 172.38 134.572 172.621 134.517 172.854C134.462 173.086 134.361 173.306 134.221 173.499C134.08 173.692 133.903 173.856 133.7 173.98C133.496 174.105 133.27 174.188 133.034 174.224" fill="white"/>
<path fill-rule="evenodd" clip-rule="evenodd" d="M121.351 162.488L119.062 162.834C118.982 162.845 118.901 162.824 118.836 162.775C118.771 162.727 118.728 162.655 118.715 162.575L118.618 162.196C118.607 162.116 118.628 162.035 118.676 161.97C118.725 161.905 118.796 161.862 118.876 161.849L121.166 161.503C121.206 161.496 121.246 161.498 121.286 161.507C121.325 161.517 121.362 161.534 121.394 161.559C121.427 161.583 121.454 161.613 121.474 161.648C121.495 161.683 121.508 161.722 121.513 161.762L121.607 162.132C121.614 162.172 121.613 162.214 121.603 162.253C121.594 162.293 121.577 162.33 121.553 162.363C121.53 162.397 121.5 162.425 121.465 162.446C121.43 162.467 121.392 162.482 121.351 162.488Z" fill="#262626"/>
<path fill-rule="evenodd" clip-rule="evenodd" d="M119.46 162.414L120.778 162.221L120.241 158.651L118.918 158.856L119.46 162.414Z" fill="#6A6A6A"/>
<path fill-rule="evenodd" clip-rule="evenodd" d="M121.841 172.993C120.858 173.141 119.851 172.994 118.949 172.571C118.047 172.147 117.29 171.466 116.773 170.612C116.257 169.759 116.004 168.772 116.047 167.776C116.089 166.781 116.425 165.821 117.013 165.017C117.601 164.214 118.413 163.604 119.348 163.263C120.282 162.923 121.297 162.868 122.265 163.105C123.232 163.342 124.108 163.861 124.783 164.595C125.457 165.33 125.9 166.248 126.054 167.233C126.157 167.889 126.13 168.559 125.974 169.204C125.817 169.849 125.535 170.457 125.144 170.992C124.753 171.527 124.259 171.979 123.693 172.323C123.126 172.666 122.497 172.894 121.841 172.993Z" fill="#C30000"/>
<path fill-rule="evenodd" clip-rule="evenodd" d="M114.023 171.299L114.658 168.614L115.632 168.47L115.004 171.144L114.023 171.299Z" fill="#C30000"/>
<path fill-rule="evenodd" clip-rule="evenodd" d="M126.581 169.407L127.198 166.727L127.73 166.648L127.111 169.32L126.581 169.407Z" fill="#C30000"/>
<path fill-rule="evenodd" clip-rule="evenodd" d="M128.553 169.104L129.173 166.432L129.454 166.361L128.835 169.032L128.553 169.104Z" fill="#C30000"/>
<path fill-rule="evenodd" clip-rule="evenodd" d="M125.313 167.008L124.412 167.143C124.395 167.148 124.379 167.156 124.366 167.168C124.353 167.179 124.342 167.193 124.335 167.21L124.073 168.786L123.363 167.362C123.353 167.347 123.339 167.334 123.322 167.327C123.305 167.319 123.286 167.317 123.268 167.321L121.564 167.575C121.546 167.579 121.531 167.59 121.521 167.604C121.511 167.619 121.507 167.637 121.509 167.654L121.582 168.161C121.525 167.754 121.069 167.654 120.816 167.69C120.556 167.73 120.32 167.863 120.151 168.065C119.982 168.266 119.892 168.522 119.897 168.786C119.803 168.416 119.769 168.283 119.663 168.16C119.603 168.097 119.53 168.048 119.449 168.018C119.26 167.946 119.054 167.932 118.859 167.98L118.524 168.065C118.509 168.06 118.493 168.06 118.477 168.064C118.462 168.068 118.448 168.076 118.436 168.087L118.249 168.894L118.133 168.145C118.129 168.128 118.118 168.113 118.104 168.103C118.089 168.092 118.071 168.088 118.054 168.09L117.268 168.205C117.25 168.207 117.234 168.215 117.22 168.226C117.206 168.238 117.196 168.254 117.192 168.271L116.996 169.118C116.996 169.118 116.97 169.2 117.016 169.198L117.315 169.122L117.543 170.64C117.548 170.657 117.558 170.672 117.573 170.683C117.587 170.693 117.605 170.697 117.623 170.695L118.408 170.58C118.425 170.576 118.44 170.565 118.45 170.551C118.461 170.536 118.465 170.518 118.463 170.501L118.234 168.982L118.525 168.909C118.619 168.882 118.718 168.88 118.813 168.901C118.855 168.912 118.894 168.935 118.923 168.967C118.997 169.102 119.036 169.254 119.036 169.408L119.177 170.366C119.182 170.384 119.192 170.399 119.207 170.409C119.221 170.419 119.239 170.423 119.257 170.421L120.007 170.315C120.032 170.31 120.056 170.298 120.074 170.28C120.093 170.262 120.106 170.239 120.112 170.214L120.215 169.775C120.358 169.918 120.533 170.024 120.726 170.083C120.92 170.142 121.124 170.152 121.322 170.113L121.419 170.088C121.444 170.083 121.467 170.071 121.486 170.053C121.505 170.035 121.518 170.012 121.524 169.987L121.705 169.228L121.816 169.959C121.817 169.968 121.82 169.977 121.825 169.985C121.83 169.993 121.836 170 121.844 170.005C121.851 170.01 121.86 170.014 121.869 170.015C121.878 170.017 121.887 170.017 121.896 170.014L122.655 169.906C122.68 169.902 122.704 169.89 122.723 169.872C122.742 169.854 122.755 169.83 122.76 169.804L122.953 168.986C122.938 168.924 122.874 168.931 122.874 168.931L122.61 168.998L122.407 167.689L123.593 169.696C123.604 169.72 123.623 169.739 123.646 169.75C123.67 169.762 123.696 169.764 123.721 169.757L124.623 169.623C124.648 169.617 124.672 169.605 124.69 169.587C124.709 169.569 124.722 169.546 124.728 169.521L125.318 167.026C125.342 166.935 125.243 166.951 125.243 166.951L125.313 167.008ZM121.762 169.195L121.247 169.269C121.149 169.284 121.049 169.259 120.969 169.2C120.889 169.141 120.836 169.053 120.82 168.955C120.805 168.857 120.83 168.757 120.888 168.677C120.947 168.597 121.035 168.543 121.133 168.529L121.274 168.493C121.322 168.485 121.372 168.487 121.42 168.499C121.467 168.511 121.512 168.532 121.552 168.561C121.592 168.59 121.625 168.627 121.651 168.669C121.676 168.711 121.693 168.758 121.7 168.807L121.762 169.195Z" fill="white"/>
</svg>
